<svg width="29" height="29" viewBox="0 0 29 29" fill="none" xmlns="http://www.w3.org/2000/svg">
<circle cx="14.5" cy="14.5" r="14.5" fill="white"/>
<path d="M14.9974 22.9996C12.934 22.9996 10.8707 22.9996 8.80729 22.9996C8.76355 22.9996 8.71982 23.0012 8.67626 22.9983C8.46336 22.9839 8.32059 22.8449 8.31842 22.6308C8.3139 22.1543 8.30667 21.6773 8.32077 21.2011C8.33794 20.6194 8.78108 20.1874 9.35978 20.1663C9.47237 20.1621 9.58551 20.1616 9.6981 20.1663C9.76497 20.1692 9.79425 20.1481 9.80599 20.0793C9.86907 19.7112 9.93702 19.3441 10.0023 18.9764C10.0912 18.4754 10.179 17.9742 10.2676 17.4732C10.3675 16.9072 10.4675 16.3412 10.5678 15.7753C10.6675 15.213 10.7686 14.651 10.8674 14.0886C10.9238 13.7678 10.9674 13.443 11.1071 13.1447C11.49 12.3265 12.1213 11.8364 13.0121 11.6919C13.1386 11.6713 13.2651 11.664 13.3925 11.664C14.4625 11.6638 15.5324 11.6627 16.6023 11.6642C17.3442 11.6653 17.9697 11.9398 18.4707 12.4916C18.8012 12.8557 18.989 13.2908 19.0741 13.7742C19.1999 14.488 19.328 15.2015 19.4538 15.9152C19.5644 16.5425 19.6725 17.1702 19.7835 17.7974C19.8944 18.4246 20.0076 19.0516 20.1198 19.6786C20.1437 19.8118 20.1717 19.9447 20.1896 20.0789C20.1991 20.1503 20.2313 20.1667 20.2971 20.1667C20.5004 20.1663 20.7055 20.1481 20.9047 20.208C21.3639 20.3458 21.6645 20.7267 21.6757 21.2129C21.6864 21.6819 21.6813 22.1514 21.6775 22.6206C21.6757 22.8467 21.5315 22.9883 21.3077 22.9994C21.2678 23.0014 21.2277 23.0001 21.1877 23.0001C19.1243 23.0001 17.061 23.0001 14.9976 23.0001L14.9974 22.9996ZM14.9951 20.1648C16.4214 20.1648 17.8477 20.1657 19.274 20.1639C19.5129 20.1636 19.4972 20.2167 19.4491 19.9367C19.3528 19.374 19.2485 18.8125 19.1489 18.2504C19.038 17.6232 18.9293 16.9956 18.8184 16.3686C18.694 15.6659 18.5684 14.9632 18.4434 14.2606C18.3978 14.005 18.3718 13.7431 18.27 13.5028C17.9623 12.7756 17.4054 12.39 16.6258 12.3775C15.5418 12.36 14.4572 12.3658 13.373 12.3753C12.4663 12.3833 11.764 13.0068 11.6167 13.9007C11.5352 14.3956 11.4405 14.888 11.3525 15.3816C11.2665 15.8644 11.1813 16.3474 11.096 16.8303C10.9961 17.3962 10.8963 17.9622 10.7964 18.528C10.7078 19.029 10.618 19.5298 10.5313 20.031C10.5083 20.1639 10.5126 20.1648 10.6504 20.1648C12.0985 20.1648 13.5465 20.1648 14.9947 20.1648H14.9951ZM14.9924 22.29C16.9464 22.29 18.9004 22.2892 20.8545 22.292C20.9484 22.292 20.9797 22.2708 20.9774 22.1713C20.9705 21.8781 20.9759 21.5849 20.9745 21.2916C20.9732 21.0183 20.8333 20.8745 20.5649 20.8745C16.8533 20.8739 13.1417 20.8739 9.43008 20.8745C9.1626 20.8745 9.02163 21.0196 9.02055 21.2916C9.01928 21.5776 9.02019 21.8634 9.02019 22.1494C9.02019 22.2431 9.06772 22.29 9.16278 22.2901C11.106 22.2901 13.049 22.2901 14.9922 22.2901L14.9924 22.29Z" fill="#003060"/>
<path d="M22.1328 15.206C21.6494 15.206 21.166 15.2057 20.6825 15.2062C20.5401 15.2064 20.4176 15.1678 20.3342 15.0418C20.2122 14.8572 20.2948 14.6014 20.5018 14.5252C20.5569 14.5048 20.614 14.4969 20.6729 14.4969C21.647 14.4973 22.6212 14.4975 23.5953 14.4969C23.7171 14.4969 23.8272 14.5263 23.9081 14.6227C23.9965 14.7282 24.0287 14.8476 23.9709 14.9799C23.9072 15.1254 23.7919 15.1995 23.6374 15.204C23.4558 15.2093 23.274 15.2059 23.0922 15.2059C22.7723 15.2059 22.4524 15.2059 22.1325 15.2059L22.1328 15.206Z" fill="#003060"/>
<path d="M7.86593 14.4974C8.34992 14.4974 8.83391 14.4977 9.31772 14.4974C9.46049 14.4974 9.58194 14.5385 9.66345 14.6665C9.78056 14.8507 9.70068 15.0987 9.4979 15.1766C9.43573 15.2005 9.37121 15.2068 9.30507 15.2066C8.34088 15.2061 7.37652 15.2066 6.41233 15.2061C6.21443 15.2061 6.07961 15.1258 6.02521 14.9796C5.9334 14.7331 6.10148 14.5014 6.38143 14.4985C6.7671 14.4944 7.15277 14.4974 7.53845 14.4974C7.64761 14.4974 7.75677 14.4974 7.86593 14.4974Z" fill="#003060"/>
<path d="M9.01471 8.48889C9.13833 8.49344 9.23086 8.54059 9.30785 8.61797C9.95377 9.26772 10.5999 9.91692 11.2435 10.569C11.3485 10.6755 11.4034 10.8046 11.3463 10.9594C11.2973 11.0917 11.201 11.1682 11.0656 11.1904C10.9171 11.2148 10.8088 11.1347 10.7108 11.0362C10.3096 10.6322 9.90877 10.2279 9.50756 9.82371C9.27875 9.59323 9.04887 9.36366 8.82115 9.13209C8.66789 8.97625 8.64169 8.8033 8.74308 8.64728C8.80434 8.55316 8.91657 8.49053 9.01489 8.48907L9.01471 8.48889Z" fill="#003060"/>
<path d="M15.3496 7.77472C15.3496 8.22512 15.3493 8.6757 15.3498 9.1261C15.35 9.26956 15.3111 9.39263 15.1852 9.47601C15.0005 9.59799 14.7487 9.5146 14.6732 9.30542C14.6517 9.24608 14.6455 9.18472 14.6455 9.12191C14.6459 8.21729 14.6455 7.31266 14.6461 6.40804C14.6461 6.2167 14.7258 6.08253 14.8671 6.02682C15.1098 5.93124 15.3444 6.09964 15.3484 6.37927C15.3531 6.70515 15.3496 7.03121 15.3496 7.35709C15.3496 7.49617 15.3496 7.63545 15.3496 7.77453V7.77472Z" fill="#003060"/>
<path d="M18.9739 11.1975C18.8508 11.1847 18.7418 11.1361 18.6751 11.016C18.6117 10.9013 18.6095 10.7851 18.6768 10.6723C18.7046 10.6257 18.7386 10.5812 18.7767 10.5426C19.4058 9.90727 20.0358 9.27263 20.6662 8.63854C20.8332 8.47068 21.0139 8.44483 21.1732 8.56226C21.3145 8.66639 21.3539 8.87266 21.2588 9.02212C21.2335 9.06199 21.2048 9.10077 21.1719 9.13427C20.5375 9.77473 19.9021 10.4143 19.267 11.054C19.1875 11.1341 19.095 11.1878 18.9739 11.1977V11.1975Z" fill="#003060"/>
<path d="M18.5945 19.0765C18.5909 19.2737 18.4826 19.4151 18.3046 19.4492C18.1342 19.4817 17.9621 19.3807 17.9155 19.193C17.8575 18.9593 17.8201 18.7202 17.7767 18.483C17.6876 17.9936 17.6007 17.5041 17.5125 17.0146C17.4729 16.795 17.4295 16.5762 17.393 16.3561C17.367 16.1993 17.3907 16.0529 17.5322 15.9563C17.65 15.8756 17.776 15.8716 17.9034 15.9406C18.0129 16 18.0621 16.1016 18.0834 16.215C18.1707 16.6823 18.2529 17.1506 18.3372 17.6184C18.4136 18.0432 18.4906 18.4677 18.5667 18.8924C18.5777 18.9534 18.5851 19.0151 18.5943 19.0765H18.5945Z" fill="#003060"/>
<path d="M17.8084 14.8498C17.8097 15.0364 17.6469 15.2021 17.4609 15.2033C17.276 15.2046 17.1108 15.0402 17.1094 14.8536C17.1079 14.6676 17.2717 14.5012 17.4571 14.4999C17.6418 14.4986 17.8072 14.6632 17.8083 14.85L17.8084 14.8498Z" fill="#003060"/>
</svg>
