<svg width="12" height="18" viewBox="0 0 12 18" fill="none" xmlns="http://www.w3.org/2000/svg">
<path d="M11.9996 6.31836C11.9669 7.42668 11.7217 8.43555 11.2251 9.38211C9.79004 12.1176 8.24375 14.7847 6.74164 17.479C6.35554 18.1716 5.63285 18.174 5.24752 17.4842C3.91217 15.095 2.57683 12.7059 1.24682 10.3135C1.01722 9.90053 0.799422 9.47917 0.600663 9.04942C0.141841 8.05692 -0.0523488 7.01091 0.0120005 5.90259C0.0908188 4.54065 0.54431 3.33528 1.36562 2.29566C2.33962 1.06273 3.59081 0.297887 5.11196 0.0714299C6.88823 -0.193369 8.48173 0.277917 9.85553 1.48768C11.0728 2.55926 11.7609 3.94635 11.9574 5.59905C11.9871 5.84867 11.9878 6.10229 12 6.31876L11.9996 6.31836ZM6.00524 3.61925C4.70607 3.61685 3.65021 4.7092 3.64526 6.06115C3.64031 7.40311 4.69122 8.51303 5.97135 8.51742C7.28347 8.52182 8.34199 7.42708 8.34085 6.06714C8.33971 4.72438 7.28765 3.62165 6.00524 3.61925Z" fill="#003060"/>
</svg>
