<svg width="28" height="28" viewBox="0 0 28 28" fill="none" xmlns="http://www.w3.org/2000/svg">
<circle cx="14" cy="14" r="14" fill="#003060"/>
<path d="M6.00421 10.0996C5.98715 9.08045 6.28141 8.2471 6.82522 7.4945C7.07557 7.14793 7.39162 6.864 7.68888 6.56227C7.82029 6.42888 7.93907 6.28151 8.0997 6.17834C8.5279 5.90315 9.03997 5.94623 9.40214 6.30902C10.3522 7.26081 11.2985 8.21641 12.2419 9.17488C12.4507 9.38696 12.5102 9.65579 12.4944 9.95148C12.4787 10.2472 12.334 10.4709 12.1376 10.6697C11.7699 11.0425 11.398 11.4112 11.029 11.7827C10.7913 12.0221 10.7259 12.359 10.9328 12.6712C11.1145 12.9455 11.2934 13.2218 11.4959 13.4803C11.6891 13.7269 11.5643 14.0386 11.2991 14.1119C11.183 14.144 11.0279 14.0973 10.9281 13.9736C10.7474 13.7497 10.5837 13.513 10.425 13.273C10.323 13.1189 10.2102 12.9698 10.1483 12.7937C9.9458 12.2169 10.0639 11.7045 10.4812 11.2678C10.8406 10.8917 11.213 10.5281 11.5796 10.1589C11.5916 10.1469 11.6039 10.1348 11.6158 10.1225C11.806 9.92684 11.8026 9.79887 11.6109 9.60587C11.1454 9.13752 10.6829 8.66616 10.2173 8.19797C9.77111 7.74918 9.32301 7.30214 8.87444 6.85574C8.74982 6.73173 8.58966 6.72617 8.46583 6.85113C8.14788 7.17194 7.81066 7.47463 7.52319 7.82422C7.21741 8.19607 7.00323 8.6191 6.87419 9.08474C6.81274 9.30636 6.79727 9.53608 6.75857 9.76103C6.7164 10.0065 6.75241 10.2418 6.7791 10.4766C6.82017 10.8383 6.9282 11.1866 7.09279 11.5136C7.46902 12.2609 7.874 12.9917 8.33457 13.6904C8.79878 14.3947 9.30121 15.0692 9.84645 15.7123C10.4675 16.445 11.1396 17.1261 11.8619 17.7567C12.225 18.0737 12.6022 18.3737 12.9885 18.6626C13.5693 19.0971 14.1739 19.4944 14.8005 19.8575C15.2788 20.1347 15.7597 20.4099 16.2746 20.6139C16.5667 20.7294 16.8728 20.7895 17.1894 20.8091C17.5463 20.831 17.8989 20.8147 18.2452 20.735C18.5239 20.6709 18.7901 20.5641 19.0466 20.4328C19.4509 20.226 19.7858 19.9325 20.0981 19.6075C20.2498 19.4497 20.4064 19.2964 20.5607 19.1411C20.568 19.1338 20.5751 19.1265 20.5822 19.119C20.7567 18.9368 20.7569 18.8144 20.5795 18.634C20.3685 18.4192 20.156 18.2059 19.9439 17.9922C19.2763 17.3196 18.6086 16.6471 17.9408 15.9746C17.9095 15.943 17.877 15.9126 17.8446 15.8821C17.6887 15.7349 17.55 15.7347 17.3989 15.8861C17.0217 16.264 16.6469 16.6444 16.2689 17.0213C16.1378 17.152 15.9955 17.2684 15.824 17.3455C15.3372 17.5642 14.8692 17.5292 14.4244 17.2367C13.9904 16.9512 13.5668 16.6506 13.1713 16.3123C12.9948 16.1614 12.9846 15.9209 13.1425 15.7576C13.2562 15.6401 13.448 15.6018 13.5832 15.6943C13.783 15.8311 13.9719 15.9842 14.164 16.132C14.408 16.3198 14.6591 16.5 14.927 16.6485C15.1595 16.7773 15.4751 16.7515 15.7311 16.4915C15.9688 16.25 16.2087 16.0105 16.4476 15.7703C16.5948 15.6223 16.7409 15.473 16.8895 15.3263C17.1242 15.0945 17.4077 14.9823 17.7342 15.0184C17.9801 15.0456 18.1942 15.1548 18.3726 15.3352C19.2658 16.2374 20.1619 17.1367 21.0563 18.0378C21.1792 18.1617 21.2991 18.2866 21.3713 18.4521C21.5408 18.8406 21.4733 19.2634 21.1904 19.5696C20.8862 19.8988 20.5735 20.221 20.2412 20.521C19.8182 20.9029 19.3311 21.1792 18.7917 21.3665C18.2336 21.5604 17.66 21.6059 17.0789 21.5668C16.5859 21.5335 16.1154 21.3959 15.6694 21.1808C15.0294 20.8722 14.4104 20.5236 13.8089 20.1457C13.2188 19.7748 12.6507 19.371 12.1027 18.9384C11.3553 18.3483 10.6539 17.7073 9.99871 17.0161C9.4053 16.39 8.85311 15.7282 8.34421 15.0297C7.95471 14.495 7.587 13.9462 7.24852 13.3777C6.91383 12.8156 6.59051 12.2458 6.32721 11.6463C6.10103 11.1306 5.97483 10.5879 6.00421 10.0996Z" fill="white"/>
<path d="M12.239 15.3256C12.0366 15.3237 11.8634 15.1444 11.8657 14.9398C11.868 14.7457 12.049 14.5661 12.2437 14.5648C12.4391 14.5634 12.6228 14.7495 12.6239 14.9503C12.625 15.1471 12.4399 15.3275 12.239 15.3256Z" fill="white"/>
</svg>
