<svg width="46" height="37" viewBox="0 0 46 37" fill="none" xmlns="http://www.w3.org/2000/svg">
<path d="M45.1566 7.73766C45.1566 9.69204 45.1337 11.647 45.1664 13.6014C45.1818 14.5208 44.4792 15.3573 43.3726 15.3369C42.1475 15.3146 40.9212 15.3315 39.6955 15.3321C39.3489 15.3321 39.3452 15.3351 39.3452 15.6616C39.3452 18.1006 39.3476 20.5397 39.3408 22.9788C39.3402 23.2103 39.3994 23.3113 39.6536 23.3576C40.3759 23.4881 41.1087 23.5867 41.8002 23.8495C43.3868 24.4533 44.4077 25.588 44.9894 27.1178C45.1066 27.4263 45.1627 27.7589 45.1603 28.0986C45.1504 29.2682 45.1652 30.4372 45.1529 31.6069C45.1411 32.7085 44.0943 33.7356 42.9605 33.7747C42.6096 33.7867 42.2573 33.7928 41.9063 33.7771C41.6867 33.7675 41.5831 33.8535 41.5097 34.0447C40.9539 35.4934 39.8763 36.3876 38.3384 36.6774C36.2356 37.0743 34.2888 35.951 33.5652 34.0658C33.4832 33.8517 33.3709 33.7765 33.1347 33.7771C26.3801 33.7831 19.6261 33.7831 12.8716 33.7777C12.618 33.7777 12.5033 33.8583 12.4071 34.0952C11.9013 35.3412 10.9963 36.1909 9.66824 36.5758C7.47717 37.2108 5.22318 36.1188 4.46198 34.0159C4.29296 33.5498 4.04683 33.3231 3.60887 33.1439C2.88468 32.8474 2.13582 32.5871 1.47516 32.1619C0.983529 31.8456 0.696691 31.3832 0.694224 30.7987C0.686822 28.6603 0.683121 26.5219 0.696074 24.3835C0.702243 23.3931 1.52389 22.3702 2.55589 21.9769C3.11106 21.7652 3.70263 21.7081 4.27322 21.5614C5.11029 21.3467 5.87828 20.9973 6.6222 20.5752C7.44016 20.1115 8.06626 19.4266 8.78552 18.8505C9.9304 17.9335 11.2283 17.3153 12.6674 16.9797C13.4526 16.7969 14.2515 16.7194 15.0608 16.7212C17.6837 16.7284 20.3071 16.6977 22.9294 16.7362C24.5961 16.7608 26.1654 17.2233 27.5712 18.1C29.1078 19.058 30.6074 20.0725 32.1212 21.0647C33.0212 21.6546 33.9557 22.1736 35.0167 22.4381C35.2733 22.5025 35.5355 22.5458 35.7945 22.6023C35.9358 22.633 35.9518 22.5596 35.9487 22.449C35.9426 22.2235 35.9432 21.998 35.9432 21.7725C35.9432 19.7592 35.9432 17.7465 35.9432 15.7331C35.9432 15.3375 35.9364 15.3315 35.5219 15.3315C34.1247 15.3315 32.7275 15.3339 31.3304 15.3296C30.6216 15.3278 30.0639 15.0542 29.7444 14.4168C29.6247 14.1781 29.5594 13.9171 29.56 13.6435C29.5631 12.5827 29.5612 11.5219 29.5612 10.4612C29.5612 10.4197 29.5606 10.3776 29.5637 10.3361C29.5921 9.93318 29.8875 9.62228 30.2465 9.61566C30.6111 9.60905 30.9232 9.8989 30.9362 10.3144C30.9578 10.9988 30.946 11.6843 30.9479 12.3686C30.9491 12.7613 30.9461 13.154 30.9491 13.5467C30.9522 13.8984 31.0256 13.97 31.392 13.9706C33.3808 13.9724 35.3695 13.9718 37.3577 13.9718C39.3118 13.9718 41.266 13.9718 43.2209 13.9718C43.3233 13.9718 43.4275 13.9742 43.5287 13.9586C43.6897 13.9339 43.7939 13.8467 43.7958 13.6741C43.7964 13.6074 43.7982 13.5406 43.7982 13.4739C43.7982 9.64814 43.7982 5.82238 43.7982 1.99722C43.7982 1.52577 43.7649 1.49269 43.2918 1.49269C39.3402 1.49269 35.3886 1.49269 31.4377 1.49269C30.9997 1.49269 30.9491 1.5402 30.9491 1.96535C30.9479 3.29372 30.9491 4.62149 30.9485 5.94986C30.9485 6.05811 30.9498 6.16755 30.938 6.27519C30.8924 6.69313 30.6241 6.9481 30.2472 6.93848C29.8863 6.92945 29.5988 6.63901 29.5649 6.24813C29.5594 6.18198 29.5612 6.11463 29.5612 6.04788C29.5612 4.65276 29.5637 3.25824 29.5606 1.86312C29.5581 0.812571 30.3533 0.12403 31.331 0.129443C35.3596 0.151091 39.3883 0.151692 43.4164 0.127638C44.2868 0.122226 45.1806 0.781902 45.1646 1.82463C45.1331 3.79524 45.1553 5.76705 45.1553 7.73826L45.1566 7.73766ZM18.7484 18.082C17.403 18.082 16.057 18.0796 14.7116 18.0832C13.9356 18.085 13.1751 18.2125 12.4373 18.4326C11.066 18.8409 9.90079 19.5872 8.88606 20.5662C8.26674 21.1639 7.55551 21.6402 6.79431 22.0497C5.72406 22.6252 4.55697 22.9192 3.37014 23.1447C2.62745 23.286 2.05254 23.8802 2.05007 24.5711C2.04329 26.5838 2.04884 28.5971 2.04452 30.6098C2.04452 30.8564 2.14137 31.0314 2.36714 31.1312C2.92909 31.379 3.49413 31.6195 4.0567 31.8654C4.2066 31.931 4.27692 31.8835 4.30838 31.7307C4.34169 31.5678 4.3824 31.4042 4.43977 31.2485C5.09425 29.4607 6.83317 28.3939 8.7374 28.4973C10.7002 28.6037 12.3978 30.1294 12.6464 32.0392C12.6826 32.3171 12.8436 32.4562 13.1294 32.4566C19.7032 32.4566 26.2771 32.4566 32.8509 32.4566C32.9194 32.4566 32.9885 32.4524 33.0563 32.4566C33.2253 32.4668 33.3061 32.4 33.3154 32.2275C33.3283 31.9857 33.3851 31.7512 33.4523 31.5167C34.0729 29.3524 36.2516 28.104 38.5093 28.5821C40.2717 28.9555 41.5899 30.4673 41.7583 32.2287C41.7749 32.403 41.8508 32.4608 42.018 32.4566C42.2579 32.4506 42.4979 32.459 42.7379 32.4542C43.3146 32.4433 43.8235 31.9292 43.81 31.388C43.7865 30.4282 43.7865 29.4667 43.81 28.5069C43.826 27.8551 43.649 27.2766 43.285 26.7378C42.7514 25.947 42.0686 25.3517 41.1223 25.0606C40.4419 24.8513 39.7399 24.7521 39.0454 24.6144C37.8635 24.3799 36.6871 24.1129 35.4978 23.9211C34.2481 23.7196 33.1032 23.2728 32.0515 22.6155C30.6166 21.7189 29.1923 20.8037 27.8038 19.8409C26.1081 18.6647 24.2692 18.0098 22.1682 18.0754C21.0295 18.1109 19.8883 18.082 18.7484 18.082ZM5.59514 32.6231C5.53531 34.1981 6.91398 35.4164 8.43761 35.4122C10.0519 35.4074 11.359 34.1993 11.3165 32.5672C11.277 31.0434 10.2018 29.8594 8.42959 29.8341C6.86216 29.8118 5.54332 31.0434 5.59514 32.6231ZM40.4092 32.6442C40.4135 31.1041 39.1194 29.795 37.5476 29.8263C35.8969 29.8594 34.7144 31.0097 34.6706 32.575C34.6268 34.1391 35.9395 35.4134 37.5279 35.417C39.0996 35.42 40.4049 34.1638 40.4092 32.6448V32.6442ZM37.9893 19.1861C37.9893 17.9918 37.9844 16.7975 37.993 15.6033C37.9949 15.3417 37.8462 15.3321 37.647 15.329C37.4452 15.326 37.3287 15.3609 37.3293 15.6003C37.3361 17.9467 37.3324 20.2938 37.3342 22.6408C37.3342 22.8765 37.4847 22.9806 37.7882 22.9872C38.0504 22.9926 37.9868 22.805 37.9875 22.6697C37.9912 21.5091 37.9899 20.3479 37.9893 19.1873V19.1861Z" fill="#003060"/>
<path d="M18.3019 3.21234C21.2387 3.27488 23.7049 4.14142 25.777 5.99176C25.9034 6.10421 26.0447 6.20343 26.1563 6.32851C26.54 6.75967 26.3364 7.35741 25.764 7.47046C25.5055 7.52158 25.3063 7.36763 25.1225 7.21489C24.7635 6.91783 24.4273 6.59551 24.0411 6.32971C22.9863 5.60569 21.8383 5.08974 20.5781 4.8035C19.5572 4.57138 18.5227 4.53169 17.4913 4.62369C16.1114 4.74697 14.8197 5.17272 13.6218 5.86547C12.9698 6.24252 12.3838 6.69834 11.8255 7.19505C11.5973 7.3983 11.3518 7.58111 10.9983 7.42236C10.5425 7.2173 10.4197 6.70615 10.7664 6.34835C11.3049 5.79331 11.9168 5.32306 12.5738 4.90994C13.7526 4.16788 15.0332 3.67116 16.4125 3.41439C17.0873 3.28871 17.7733 3.27007 18.3019 3.21234Z" fill="#003060"/>
<path d="M35.1045 7.52696C35.1045 6.4247 35.1027 5.32243 35.1057 4.22077C35.107 3.84673 35.2785 3.64949 35.6609 3.65009C36.585 3.65189 37.5146 3.56289 38.4324 3.7012C39.5878 3.87499 40.2071 4.56654 40.3089 5.72172C40.3632 6.34111 40.3336 6.95749 39.99 7.51614C39.6347 8.09403 39.0931 8.39891 38.43 8.50776C37.9143 8.59255 37.3924 8.62863 36.8687 8.60277C36.6479 8.59195 36.5646 8.66772 36.5689 8.88961C36.5806 9.51561 36.5739 10.1422 36.5726 10.7682C36.5714 11.2048 36.4844 11.304 36.0619 11.4171C35.8028 11.4862 35.569 11.4219 35.3414 11.3202C35.1292 11.2252 35.1033 11.0364 35.1039 10.8338C35.1064 9.7315 35.1051 8.62923 35.1051 7.52756L35.1045 7.52696ZM36.5732 6.13244C36.5732 6.46559 36.5751 6.79873 36.572 7.13188C36.5708 7.26838 36.6096 7.35438 36.7706 7.35979C37.1981 7.37362 37.6256 7.38023 38.0506 7.33814C38.2998 7.31349 38.5089 7.19562 38.6305 6.97252C38.8902 6.49445 38.8895 5.99774 38.7002 5.50163C38.6021 5.24365 38.3973 5.09933 38.1185 5.02356C37.6867 4.9063 37.2512 4.98267 36.8181 4.95441C36.6238 4.94178 36.5646 5.03018 36.5695 5.20818C36.5788 5.51606 36.572 5.82455 36.5726 6.13244H36.5732Z" fill="#003060"/>
<path d="M18.455 6.83487C20.395 6.84329 22.0667 7.49815 23.4707 8.80548C23.6193 8.94379 23.7186 9.10014 23.7353 9.30399C23.7748 9.78808 23.2874 10.1453 22.823 9.96908C22.6934 9.91977 22.5805 9.844 22.4825 9.74899C21.6812 8.96904 20.7071 8.49278 19.6091 8.28652C17.6839 7.92511 15.9851 8.41521 14.5133 9.67081C14.4041 9.76402 14.2949 9.86144 14.1716 9.9342C13.9267 10.0791 13.5948 10.0286 13.3882 9.83197C13.1494 9.60406 13.1032 9.33286 13.258 9.05804C13.4153 8.77842 13.6731 8.5914 13.9199 8.40077C15.2467 7.37548 16.7457 6.81923 18.455 6.83487Z" fill="#003060"/>
<path d="M15.7686 11.8296C15.7482 11.6546 15.8297 11.4916 15.9709 11.3593C17.378 10.04 19.5425 10.0526 20.9119 11.3275C21.2389 11.6318 21.2654 12.0022 20.9977 12.3077C20.7676 12.5705 20.3309 12.5843 20.0021 12.3137C19.5703 11.9589 19.0953 11.7316 18.5192 11.7165C17.9517 11.7015 17.4687 11.8969 17.0307 12.2301C16.9098 12.3221 16.7981 12.4273 16.6464 12.4742C16.1837 12.6162 15.7692 12.3233 15.7686 11.829V11.8296Z" fill="#003060"/>
<path d="M23.1622 25.9985C20.4024 25.9985 17.6419 25.9985 14.8821 25.9985C14.7193 25.9985 14.5576 25.9955 14.3979 25.9534C14.0216 25.8548 13.8501 25.6521 13.8507 25.2973C13.8507 24.9407 14.0234 24.7405 14.3985 24.6455C14.5761 24.6004 14.755 24.6106 14.9345 24.5992C15.4601 24.5661 15.9906 24.6791 16.5118 24.539C16.5933 24.0333 16.5396 23.5246 16.5458 23.017C16.5563 22.1818 16.5415 21.3465 16.5532 20.5112C16.5563 20.2761 16.4866 20.1889 16.2343 20.1907C15.3435 20.1973 14.4491 20.1666 13.5725 20.3483C12.6226 20.5449 11.754 20.9274 10.9904 21.5239C10.3815 21.999 9.84672 22.5558 9.22246 23.0146C8.72774 23.3784 8.1991 23.6839 7.66737 23.9882C7.51254 24.0772 7.37128 24.1842 7.42371 24.3833C7.47738 24.5871 7.6575 24.601 7.83639 24.6004C8.60807 24.6004 9.37914 24.5962 10.1508 24.6028C10.6184 24.607 10.8658 24.7597 10.9867 25.0941C11.1088 25.4314 10.9213 25.8067 10.5691 25.9167C10.4142 25.9654 10.2551 25.9985 10.0898 25.9979C9.36125 25.9967 8.63213 26.0135 7.90424 25.9925C7.31391 25.975 6.76799 25.8211 6.3948 25.3202C5.79274 24.5108 5.96238 23.4915 6.80994 22.9286C7.21275 22.661 7.64084 22.4295 8.0529 22.1751C8.65064 21.8065 9.14782 21.32 9.66475 20.8576C10.7196 19.9147 11.9416 19.2947 13.3449 19.0205C14.0271 18.887 14.7186 18.8365 15.4138 18.8371C17.6339 18.8377 19.854 18.8275 22.074 18.8413C23.3497 18.8491 24.6025 19.0139 25.7733 19.5503C26.3717 19.8245 26.9237 20.1769 27.4734 20.5335C28.9137 21.468 30.3177 22.456 31.7969 23.3339C32.3854 23.6827 32.7648 24.1716 32.8419 24.8571C32.8992 25.3653 32.5637 25.8175 32.0529 25.9305C31.8253 25.9811 31.5977 26.0009 31.3651 26.0009C28.6306 25.9991 25.8967 25.9997 23.1622 25.9997V25.9985ZM31.18 24.5468C30.8655 24.3592 30.5755 24.2005 30.3004 24.0207C28.9415 23.1325 27.5832 22.2443 26.2316 21.3453C25.0621 20.5665 23.7636 20.2093 22.3603 20.1985C20.9976 20.1877 19.635 20.1955 18.2717 20.1967C17.9232 20.1967 17.9072 20.2124 17.9066 20.5485C17.9053 21.7596 17.9066 22.9707 17.9066 24.1818C17.9066 24.4613 18.047 24.6012 18.3279 24.6016C22.5015 24.6016 26.6758 24.6016 30.8494 24.6004C30.9413 24.6004 31.0376 24.6208 31.18 24.5468Z" fill="#003060"/>
<path d="M18.4592 28.1201C18.1427 28.1201 17.8257 28.1243 17.5092 28.1189C17.1113 28.1122 16.8183 27.8513 16.8066 27.5019C16.7937 27.1266 17.0552 26.8368 17.4623 26.8049C17.7257 26.7839 17.9922 26.7959 18.2575 26.7959C18.6337 26.7953 19.0106 26.7899 19.3869 26.7983C19.8261 26.8079 20.113 27.0876 20.1049 27.4826C20.0963 27.8879 19.844 28.1135 19.3832 28.1195C19.0754 28.1237 18.767 28.1201 18.4592 28.1195V28.1201Z" fill="#003060"/>
<path d="M6.47059 32.6434C6.46874 31.5616 7.34961 30.7004 8.45501 30.704C9.52279 30.707 10.4191 31.5778 10.424 32.6163C10.4289 33.6578 9.50922 34.5575 8.44452 34.5526C7.37983 34.5478 6.47182 33.6699 6.46997 32.6434H6.47059ZM7.86221 32.6139C7.85913 32.9314 8.12129 33.1936 8.44452 33.1972C8.7474 33.2008 9.02128 32.9338 9.02067 32.6368C9.02005 32.306 8.77701 32.0691 8.43651 32.0673C8.1034 32.0655 7.86468 32.2922 7.86221 32.6133V32.6139Z" fill="#003060"/>
<path d="M39.502 32.638C39.4971 33.6909 38.6144 34.5478 37.5349 34.5466C36.4461 34.5454 35.5653 33.6753 35.5714 32.6067C35.5776 31.5501 36.456 30.7016 37.5411 30.704C38.6421 30.7064 39.507 31.5591 39.5014 32.638H39.502ZM37.5306 32.0673C37.2018 32.0703 36.952 32.3042 36.947 32.6127C36.9421 32.9062 37.2333 33.1972 37.5337 33.2002C37.818 33.2026 38.1339 32.9013 38.1369 32.6235C38.1406 32.3174 37.8649 32.0637 37.5306 32.0673Z" fill="#003060"/>
</svg>
