<svg width="32" height="41" viewBox="0 0 32 41" fill="none" xmlns="http://www.w3.org/2000/svg">
<path d="M24.0003 11.687C24.2325 11.6844 24.4127 11.5868 24.6018 11.5315C25.6576 11.227 26.6449 11.9568 26.6626 13.0645C26.6677 13.396 26.6652 13.7275 26.6626 14.059C26.6601 14.7568 26.3454 15.2631 25.7337 15.5792C25.2173 15.8464 24.6995 16.1124 24.178 16.3681C24.027 16.4427 23.9584 16.5403 23.9381 16.7074C23.7529 18.1979 23.1158 19.4559 22.022 20.4698C21.8202 20.6574 21.9319 20.7088 22.0918 20.7987C24.098 21.9385 26.1018 23.0847 28.108 24.2232C29.896 25.237 31.1079 26.7212 31.6967 28.7129C31.8731 29.3091 31.986 29.9195 31.9873 30.5427C31.9937 33.9325 31.9873 37.3235 32 40.7133C32.0013 41.0602 31.8008 40.9908 31.6117 40.9908C25.0193 40.9908 18.4269 40.9908 11.8333 40.9908C8.01872 40.9908 4.20542 40.987 0.390847 40.9972C0.0913669 40.9972 0 40.9291 0 40.6118C0.0126899 37.3826 -0.0088829 34.1522 0.0126898 30.923C0.0329936 27.9162 1.36543 25.6714 3.95289 24.1936C5.9287 23.0654 7.90578 21.9372 9.88793 20.818C10.1303 20.6818 10.1252 20.606 9.92981 20.421C8.88289 19.429 8.2484 18.2134 8.07455 16.7652C8.04917 16.5545 7.96669 16.4234 7.76746 16.3296C7.2789 16.1022 6.80176 15.8477 6.31955 15.6062C5.67109 15.2811 5.32847 14.7658 5.34116 14.0218C5.3475 13.7005 5.33735 13.3806 5.3437 13.0593C5.364 11.9581 6.32589 11.2282 7.37027 11.5199C8.00856 11.6973 7.97049 11.6947 8.01872 11.0304C8.06694 10.384 7.921 9.90087 7.36265 9.50767C6.87282 9.16201 6.66979 8.60305 6.6774 7.9914C6.68247 7.58663 6.63552 7.18058 6.73831 6.77838C6.8081 6.5034 6.90962 6.23869 7.10251 6.04209C7.3322 5.80823 7.4261 5.5281 7.50985 5.22742C7.7205 4.46671 7.92735 3.70472 8.15577 2.94916C8.60245 1.47915 9.86128 0.534694 11.379 0.533409C14.4639 0.529554 17.5488 0.529554 20.6337 0.533409C22.1362 0.534694 23.3912 1.47144 23.8353 2.93117C24.0968 3.78825 24.3341 4.65175 24.5739 5.51525C24.6158 5.6656 24.678 5.78895 24.782 5.90075C25.1538 6.30037 25.3353 6.77967 25.3302 7.32707C25.3277 7.65859 25.3429 7.99268 25.2998 8.31907C25.216 8.95127 24.8455 9.419 24.3493 9.77623C24.0676 9.97925 23.9673 10.2157 23.9927 10.5588C24.0206 10.9301 23.999 11.3041 23.999 11.6857L24.0003 11.687ZM22.6679 11.2488C22.1387 11.705 21.6819 12.0956 21.2301 12.4914C20.588 13.0516 19.8444 13.3407 18.998 13.3433C17.0019 13.3485 15.0057 13.3485 13.0096 13.3433C12.1645 13.3407 11.4183 13.0542 10.7775 12.4927C10.3778 12.1431 9.97676 11.7962 9.57322 11.4518C9.51612 11.403 9.4717 11.3028 9.36003 11.358C9.35496 11.3979 9.34607 11.4403 9.34607 11.4827C9.34607 13.0645 9.31435 14.6488 9.35876 16.2294C9.39937 17.6287 10.0034 18.789 11.0833 19.6602C11.8333 20.2655 12.6213 20.8257 13.4119 21.377C14.9575 22.4538 17.0184 22.4615 18.5691 21.395C19.2936 20.8964 19.9979 20.3683 20.701 19.8389C22.0105 18.852 22.6603 17.5233 22.6666 15.8734C22.6704 14.911 22.6666 13.9485 22.6666 12.9861C22.6666 12.4425 22.6666 11.9003 22.6666 11.2488H22.6679ZM30.6612 34.8833C30.6612 33.5251 30.6676 32.1682 30.6599 30.81C30.6498 29.2012 30.0978 27.8083 29.0255 26.6184C28.8364 26.4089 28.7425 26.3999 28.5484 26.6235C26.9862 28.4212 25.4076 30.2047 23.8417 31.9986C23.697 32.1643 23.5511 32.2491 23.3278 32.2363C23.0016 32.2183 22.6717 32.2491 22.3456 32.226C22.0765 32.208 21.9725 32.2761 21.9864 32.573C22.0118 33.0844 21.9839 33.5996 21.9979 34.1124C22.0042 34.3604 21.9357 34.5621 21.7999 34.7664C20.7923 36.2827 19.7924 37.8041 18.7937 39.3255C18.7391 39.409 18.6147 39.499 18.6757 39.5992C18.7315 39.693 18.8711 39.6403 18.9726 39.6403C20.5258 39.6429 22.0778 39.6326 23.631 39.6493C23.947 39.6532 24.0117 39.5529 24.0079 39.2522C23.9914 37.9056 24.0054 36.5577 23.9965 35.211C23.9952 34.99 24.0498 34.9052 24.277 34.9232C24.5295 34.9424 24.7845 34.9424 25.0371 34.9232C25.2718 34.9052 25.3416 34.9797 25.3404 35.2239C25.3289 36.5924 25.3404 37.9608 25.3289 39.3293C25.3264 39.5863 25.4025 39.6493 25.6475 39.6467C27.221 39.6365 28.7945 39.6365 30.3693 39.6467C30.6079 39.648 30.6714 39.5786 30.6701 39.3396C30.6599 37.8542 30.665 36.3675 30.665 34.8808L30.6612 34.8833ZM13.3751 39.5902C13.3256 39.5092 13.2888 39.445 13.2482 39.3846C12.2191 37.8195 11.1912 36.2531 10.1557 34.6919C10.044 34.5235 9.99452 34.3578 9.99833 34.156C10.0072 33.6215 9.99072 33.0869 10.0059 32.5524C10.0136 32.3121 9.9628 32.2042 9.69885 32.226C9.40572 32.2504 9.10624 32.2119 8.8131 32.2376C8.49966 32.2646 8.29282 32.1528 8.0847 31.9125C6.54416 30.1379 4.98584 28.3814 3.44403 26.6081C3.25622 26.3922 3.1585 26.4192 2.98465 26.6107C1.92378 27.7774 1.35654 29.1485 1.34893 30.7342C1.33497 33.5996 1.34766 36.4639 1.33751 39.3293C1.33751 39.5876 1.41619 39.6493 1.6611 39.648C3.20292 39.6377 4.74473 39.6326 6.28655 39.6519C6.61522 39.6557 6.68882 39.5594 6.68501 39.2407C6.66725 37.9043 6.68248 36.5679 6.67232 35.2316C6.67105 34.9977 6.72562 34.9026 6.97053 34.9245C7.21164 34.9463 7.45782 34.9463 7.69893 34.9245C7.95146 34.9026 8.01872 34.9938 8.01618 35.2457C8.00476 36.5924 8.01745 37.9403 8.00476 39.2869C8.00222 39.5555 8.05425 39.6544 8.34611 39.6506C9.91965 39.6352 11.4932 39.6429 13.0667 39.6416C13.1594 39.6416 13.2571 39.6634 13.3751 39.5889V39.5902ZM16.0235 5.24669C17.3965 5.24669 18.7683 5.24669 20.1413 5.24669C21.0385 5.24669 21.9357 5.24669 22.8341 5.24669C22.9737 5.24669 23.1273 5.27368 23.0562 5.03596C22.8773 4.43331 22.7301 3.82037 22.5283 3.22543C22.2466 2.39405 21.5106 1.88392 20.6375 1.88263C17.5437 1.88006 14.4499 1.87878 11.3574 1.88263C10.4476 1.88263 9.67855 2.47757 9.42729 3.35393C9.28009 3.86663 9.15446 4.38576 8.98568 4.89076C8.88924 5.17987 8.94 5.25312 9.24582 5.25183C11.5046 5.24027 13.7647 5.24541 16.0247 5.24541L16.0235 5.24669ZM13.4741 37.2811C13.4969 37.2695 13.5198 37.258 13.5439 37.2464C13.5439 37.2053 13.549 37.1629 13.5439 37.1218C13.304 35.3986 13.0705 33.6742 12.818 31.9523C12.7673 31.6079 12.7761 31.2469 12.6036 30.9243C11.2673 28.4148 9.93235 25.9052 8.60118 23.3918C8.51362 23.2261 8.44256 23.1811 8.26363 23.2852C7.02637 23.9996 5.78403 24.7038 4.54043 25.4054C4.36404 25.5043 4.31201 25.5776 4.47063 25.7562C5.9287 27.4035 7.37915 29.0585 8.82833 30.7136C8.93619 30.837 9.04913 30.8884 9.21029 30.8871C9.83336 30.8794 10.4564 30.8922 11.0795 30.8794C11.2914 30.8755 11.3447 30.9475 11.3422 31.1531C11.332 32.0294 11.3422 32.9058 11.3358 33.7821C11.3346 33.9607 11.3764 34.1098 11.478 34.2576C11.8066 34.7407 12.1226 35.2354 12.4449 35.7237C12.7876 36.2428 13.1327 36.7607 13.4766 37.2798L13.4741 37.2811ZM18.4345 37.3081C18.4523 37.3132 18.4701 37.3171 18.4878 37.3222C18.5272 37.2734 18.5691 37.2284 18.6033 37.177C19.2556 36.1914 19.9053 35.2046 20.5588 34.219C20.6464 34.0867 20.6629 33.9466 20.6616 33.7937C20.6591 32.9482 20.6768 32.1039 20.6515 31.2597C20.6426 30.9359 20.7466 30.8678 21.0423 30.8794C21.6222 30.9025 22.2047 30.8794 22.7859 30.8896C22.961 30.8922 23.0803 30.8331 23.1945 30.7033C24.6285 29.0611 26.065 27.4202 27.5091 25.787C27.6766 25.5968 27.6677 25.5159 27.4481 25.3925C26.2566 24.7269 25.065 24.0574 23.8886 23.3648C23.6031 23.1965 23.4851 23.2235 23.3278 23.5229C22.0347 25.9849 20.7251 28.4379 19.4167 30.8922C19.3241 31.067 19.2822 31.2481 19.2556 31.4409C19.1566 32.1605 19.0563 32.8801 18.9548 33.5996C18.781 34.8358 18.6071 36.0732 18.432 37.3094L18.4345 37.3081ZM15.9867 39.6442C16.743 39.6442 16.7481 39.6442 16.8534 38.9092C17.2062 36.4574 17.5526 34.0044 17.9117 31.554C17.9714 31.1505 17.9231 30.792 17.7544 30.4142C17.2734 29.3464 16.8255 28.2631 16.3801 27.1786C16.3014 26.9872 16.2037 26.9319 16.0057 26.9293C15.8039 26.9268 15.705 26.9897 15.6275 27.1761C15.1238 28.3865 14.6111 29.5918 14.0984 30.7971C14.0413 30.932 14.0375 31.0605 14.0578 31.2032C14.4246 33.7821 14.7862 36.3623 15.1529 38.9413C15.2532 39.6467 15.2595 39.6455 15.9867 39.6455V39.6442ZM16.007 11.9941C16.9892 11.9941 17.9714 11.9941 18.9536 11.9941C19.4815 11.9941 19.9472 11.827 20.3494 11.4788C21.0626 10.8595 21.7771 10.2427 22.489 9.62075C22.5651 9.55393 22.6945 9.4961 22.6527 9.37275C22.6082 9.24296 22.4699 9.29693 22.3735 9.29565C18.1287 9.29308 13.8827 9.29308 9.63794 9.29565C9.54404 9.29565 9.40698 9.23397 9.36384 9.37403C9.3245 9.50124 9.45013 9.55778 9.52627 9.6246C10.2141 10.2247 10.9095 10.8158 11.5922 11.421C12.0351 11.8129 12.5388 12.0005 13.1264 11.9954C14.087 11.9864 15.0489 11.9928 16.0095 11.9928L16.007 11.9941ZM16.0222 7.94514C18.0297 7.94514 20.036 7.94514 22.0435 7.94514C22.6032 7.94514 23.1628 7.94771 23.7237 7.94257C23.8201 7.94257 23.9394 7.98626 23.9952 7.84748C24.2402 7.24226 23.8353 6.5972 23.197 6.5972C18.4016 6.59463 13.6061 6.59463 8.80929 6.5972C8.26363 6.5972 8.01872 6.85163 8.01237 7.40031C8.01237 7.46456 8.02125 7.53009 8.0111 7.59306C7.96669 7.87061 8.06948 7.95413 8.35373 7.95285C10.9095 7.94128 13.4665 7.94642 16.0222 7.94642V7.94514ZM14.4905 23.3507C14.172 23.2312 13.8852 23.131 13.6048 23.0153C12.8409 22.7031 12.2114 22.1749 11.5554 21.6905C11.3942 21.571 11.2724 21.562 11.1011 21.6674C10.7039 21.9115 10.2991 22.1428 9.88793 22.3587C9.69631 22.4589 9.65317 22.545 9.7623 22.7493C10.8854 24.8425 11.9983 26.9409 13.1162 29.0367C13.153 29.1048 13.1632 29.223 13.2723 29.2115C13.3573 29.2025 13.3649 29.101 13.3929 29.0367C13.7431 28.213 14.0832 27.3855 14.4423 26.5657C14.5248 26.3768 14.4931 26.2586 14.3649 26.1108C14.0794 25.7806 13.9284 25.3899 13.9017 24.9453C13.8637 24.3337 14.0705 23.8159 14.4893 23.3507H14.4905ZM18.7175 29.2796C18.7784 29.2063 18.8114 29.1793 18.8305 29.1446C19.9751 26.9936 21.1172 24.8413 22.2682 22.6928C22.3684 22.5065 22.2758 22.4486 22.1463 22.3767C21.7403 22.1492 21.3316 21.9269 20.9344 21.6854C20.7466 21.571 20.6109 21.5697 20.4256 21.7098C19.7416 22.2263 19.0728 22.7712 18.2594 23.077C18.0247 23.1657 17.7886 23.2466 17.5539 23.3314C17.5666 23.3751 17.5678 23.3982 17.578 23.4149C18.314 24.511 18.3127 25.1111 17.5577 26.2085C17.4955 26.2997 17.4828 26.373 17.5247 26.4732C17.9168 27.3932 18.3064 28.3133 18.7175 29.2796ZM8.0111 14.0899C8.0111 13.4551 7.72558 13.0482 7.15454 12.8692C7.14439 12.8666 7.13423 12.8627 7.12408 12.8589C6.80049 12.7638 6.68882 12.8422 6.67994 13.175C6.67486 13.3459 6.70151 13.5206 6.67486 13.6864C6.60253 14.1413 6.78399 14.4086 7.21037 14.5499C7.46671 14.6347 7.76492 14.9598 7.93369 14.8519C8.14688 14.7157 7.97176 14.3199 8.01237 14.0899H8.0111ZM24.0003 14.0423C24.0003 14.1811 24.0003 14.3199 24.0003 14.4587C24.0003 14.9521 24.0029 14.9585 24.4407 14.7272C25.5383 14.1451 25.3061 14.5216 25.3315 13.2302C25.3391 12.8358 25.2185 12.7548 24.848 12.8717C24.2837 13.0499 24.0016 13.4405 24.0016 14.0436L24.0003 14.0423ZM16.7722 24.8233C16.7785 24.4314 16.4016 24.0382 16.0133 24.0317C15.6212 24.0253 15.2405 24.4005 15.2354 24.7989C15.2304 25.2049 15.5895 25.5801 15.9892 25.5853C16.3826 25.5904 16.7658 25.2178 16.7722 24.8233Z" fill="#003060"/>
</svg>
