<svg width="25" height="25" viewBox="0 0 25 25" fill="none" xmlns="http://www.w3.org/2000/svg">
<circle cx="12.5" cy="12.5" r="12.5" fill="#D9D9D9"/>
<path d="M8.04441 17.6631C8.03062 17.3401 8.01984 17.017 8.00126 16.6945C7.99197 16.5325 8.03422 16.3948 8.12592 16.263C9.74382 13.9386 11.3602 11.6129 12.9766 9.28729C13.1507 9.0369 13.3215 8.78403 13.4959 8.53364C13.6284 8.34361 13.7366 8.32543 13.9239 8.46188C14.7054 9.03228 15.4866 9.60329 16.2673 10.1746C16.4779 10.3289 16.4953 10.4281 16.344 10.6458C15.3572 12.0651 14.3692 13.4837 13.3815 14.9026C12.5826 16.0502 11.7822 17.1965 10.9859 18.3456C10.8882 18.4867 10.7678 18.5748 10.6057 18.6225C9.99644 18.8018 9.38931 18.989 8.78159 19.1729C8.34737 19.3041 8.09685 19.123 8.08756 18.6626C8.08067 18.3293 8.08636 17.9961 8.08636 17.6628H8.04441V17.6631Z" fill="black"/>
<path d="M18.0006 7.88039C18.0021 8.08151 17.9425 8.26661 17.8481 8.43755C17.5571 8.96606 17.1795 9.43359 16.8412 9.92854C16.7537 10.0567 16.6236 10.0517 16.4711 9.94055C15.9092 9.53092 15.3476 9.12037 14.7864 8.71012C14.5544 8.54073 14.3222 8.37195 14.0911 8.20101C13.9239 8.0772 13.9032 7.95616 14.0225 7.78307C14.282 7.40608 14.5427 7.03003 14.8055 6.65551C14.9227 6.48857 15.0546 6.33458 15.2134 6.20707C15.4789 5.99394 15.7717 5.9462 16.0878 6.05985C16.1768 6.09188 16.2664 6.13069 16.3452 6.18274C16.7863 6.4741 17.2188 6.77901 17.6206 7.12612C17.8454 7.32015 17.9976 7.56347 18.0006 7.8807V7.88039Z" fill="black"/>
</svg>
