<svg width="26" height="26" viewBox="0 0 26 26" fill="none" xmlns="http://www.w3.org/2000/svg">
<path d="M16.299 25.9914C16.299 23.6645 16.299 21.4551 16.299 19.2456C16.299 17.7611 15.5846 17.0188 14.1559 17.0188C13.2719 17.0188 12.388 17.0166 11.502 17.0188C9.97381 17.0253 9.82996 17.1645 9.82371 18.7237C9.81537 20.694 9.82371 22.6664 9.81954 24.6366C9.81954 25.0455 9.78201 25.4543 9.75491 25.9784C7.95158 25.9784 6.23163 26.0393 4.51794 25.9566C3.36923 25.9001 3.01065 25.0368 3.01482 23.932C3.02733 21.2485 2.99814 18.565 3.02733 15.8814C3.03984 14.6353 2.73963 13.8264 1.36367 13.6154C-0.0352145 13.4001 -0.466764 11.8713 0.583965 10.8949C4.36159 7.3763 8.18299 3.90771 12.0044 0.441292C12.6653 -0.158916 13.422 -0.141519 14.0892 0.460864C17.9147 3.92293 21.7445 7.37847 25.52 10.8993C25.8786 11.2342 26.1017 12.0888 25.9536 12.5498C25.8035 13.0174 25.1593 13.4958 24.6527 13.6219C23.0662 14.0156 22.8286 14.22 22.8244 15.9575C22.8161 18.5997 22.8348 21.242 22.8161 23.882C22.8056 25.4739 22.3136 25.9697 20.7813 25.9849C19.3428 25.998 17.9043 25.9871 16.3011 25.9871L16.299 25.9914Z" fill="#003060"/>
</svg>
