<svg width="45" height="51" viewBox="0 0 45 51" fill="none" xmlns="http://www.w3.org/2000/svg">
<path d="M20.3537 36.035C20.3084 36.6132 20.2681 37.1463 20.2238 37.6788C20.1286 38.8228 20.0309 39.9667 19.9342 41.1107C19.8212 42.4436 19.7071 43.777 19.5956 45.1099C19.4872 46.4085 19.3813 47.7077 19.2739 49.0069C19.2235 49.6178 19.166 50.2282 19.1242 50.8391C19.1105 51.0389 18.9817 50.9953 18.8722 50.9958C17.6855 50.9979 16.4994 50.9974 15.3127 50.9974C11.9563 50.9974 8.60039 51.001 5.24399 50.9958C2.95361 50.9922 1.02927 49.6323 0.288039 47.5162C-0.0306493 46.6068 -0.0571218 45.6793 0.0742224 44.7331C0.278366 43.2642 0.468764 41.7937 0.666798 40.3238C0.886724 38.692 1.05574 37.0507 1.34439 35.4313C1.63152 33.8202 2.62474 32.7546 4.14691 32.246C7.34295 31.1783 10.5476 30.1371 13.7462 29.0767C13.9473 29.0098 14.0359 29.044 14.1377 29.2345C15.2287 31.2811 16.3736 33.2991 17.4111 35.3732C17.9772 36.5042 19.2805 36.934 20.3537 36.0355V36.035Z" fill="#003060"/>
<path d="M24.8313 36.0225C25.0986 36.1621 25.3374 36.3106 25.6087 36.3801C26.3657 36.5742 27.1487 36.2125 27.533 35.4796C28.3786 33.8674 29.2196 32.2532 30.0627 30.6395C30.3289 30.1298 30.6033 29.6238 30.8584 29.1078C30.9439 28.9345 31.0233 28.9002 31.2097 28.9578C34.1288 29.8537 37.0519 30.7371 39.972 31.6293C41.7238 32.1645 42.7644 33.4704 42.9823 35.3259C43.1946 37.1327 43.4425 38.9348 43.6721 40.7396C43.8625 42.2365 44.0671 43.7313 44.2331 45.2308C44.5335 47.9371 42.6885 50.4051 40.0606 50.8359C39.8275 50.8744 39.5882 50.8863 39.3515 50.8863C35.0471 50.8894 30.7423 50.8889 26.438 50.8889C26.0633 50.8889 26.0735 50.8873 26.0435 50.5162C25.9167 48.9679 25.7828 47.4207 25.653 45.8729C25.5446 44.5742 25.4397 43.2756 25.3307 41.9769C25.2203 40.6612 25.1057 39.3459 24.9942 38.0302C24.9387 37.3699 24.8868 36.7092 24.8308 36.022L24.8313 36.0225Z" fill="#003060"/>
<path d="M22.086 0C24.2954 0.0233569 26.4265 0.249659 28.4811 0.975279C29.8058 1.44345 31.0413 2.07409 32.0086 3.14643C33.0054 4.25095 33.3022 5.57139 33.0512 7.01536C32.8613 8.10846 32.085 8.66643 31.1151 8.99914C31.0485 9.02198 30.992 9.02976 30.9507 8.94101C30.8662 8.7583 30.7181 8.77751 30.5602 8.82889C29.287 9.24465 27.9945 9.57943 26.6759 9.80781C24.8081 10.1312 22.9301 10.2563 21.0347 10.167C18.7719 10.0606 16.5818 9.55607 14.4008 8.98512C14.1305 8.91454 13.8587 8.84862 13.5766 8.84654C13.4402 8.8455 13.3007 8.83824 13.2065 8.96644C13.1429 9.05312 13.0686 9.009 12.9998 8.98876C11.6385 8.58702 10.907 7.41814 11.0063 5.98091C11.1427 4.0044 12.2749 2.77635 13.8459 1.8509C15.2642 1.01576 16.817 0.580288 18.418 0.301563C19.648 0.087718 20.8902 0.0155712 22.086 0ZM22.2326 8.91765C23.122 8.91661 23.797 8.22732 23.7889 7.32886C23.7802 6.4112 23.0772 5.64665 22.2341 5.63938C21.3132 5.6316 20.5745 6.38006 20.5684 7.32834C20.5628 8.20604 21.3091 8.91869 22.2326 8.91765Z" fill="#003060"/>
<path d="M31.7248 14.5077C31.9152 15.1368 31.9142 15.77 31.8379 16.41C31.7416 17.2135 31.5589 17.9895 31.1256 18.6813C30.8894 19.0582 30.6191 19.4002 30.135 19.4552C29.967 19.4744 29.995 19.6369 29.967 19.7391C29.6294 20.9677 29.1494 22.1324 28.4799 23.2121C27.5554 24.7027 26.3799 25.9432 24.7911 26.6725C22.2874 27.8222 19.9293 27.4277 17.7789 25.7455C16.0562 24.3975 15.0075 22.5612 14.3044 20.4995C14.2072 20.2151 14.1268 19.9244 14.0473 19.6343C14.0204 19.5357 13.9974 19.4599 13.8763 19.448C13.497 19.4101 13.2496 19.1594 13.0419 18.8687C12.5287 18.1509 12.3022 17.3235 12.2156 16.4552C12.1434 15.7285 12.1943 15.0076 12.4213 14.2939C12.4478 14.3141 12.4727 14.3229 12.4799 14.3401C13.0638 15.7093 14.0967 16.6399 15.3358 17.363C16.7735 18.2017 18.3364 18.6471 19.969 18.8698C21.6363 19.0971 23.299 19.068 24.9525 18.7582C26.8422 18.4037 28.6036 17.7362 30.1075 16.4728C30.728 15.9512 31.2458 15.3392 31.6245 14.6115C31.6439 14.5747 31.6505 14.5275 31.7253 14.5088L31.7248 14.5077Z" fill="#003060"/>
<path d="M22.0377 17.9697C19.8349 17.9199 17.655 17.4818 15.6594 16.3171C14.6825 15.7467 13.8333 15.0288 13.341 13.9596C12.9602 13.1328 12.977 12.2919 13.2917 11.4469C13.3431 11.3089 13.4093 11.2637 13.5569 11.3089C14.8708 11.707 16.2082 11.9976 17.5649 12.198C19.4969 12.4834 21.437 12.5935 23.3894 12.5052C25.3219 12.418 27.2294 12.1596 29.112 11.708C29.5972 11.5917 30.0808 11.4672 30.5578 11.3213C30.7441 11.2642 30.8083 11.3182 30.8745 11.4838C31.379 12.7544 31.1646 13.902 30.3063 14.9328C29.5183 15.8785 28.4899 16.4712 27.3826 16.9316C25.694 17.6344 23.9275 17.9438 22.0388 17.9697H22.0377Z" fill="#003060"/>
<path d="M22.6945 30.9037C22.5193 31.1633 22.3656 31.389 22.2139 31.6159C21.4543 32.7494 20.6963 33.8835 19.9352 35.0161C19.5112 35.6473 18.7791 35.6187 18.4207 34.9554C17.3267 32.9306 16.2367 30.9037 15.1407 28.88C15.0679 28.7456 15.0531 28.6438 15.132 28.5032C15.5607 27.7397 15.9806 26.971 16.3976 26.2007C16.4699 26.0668 16.5142 26.0279 16.6496 26.1457C17.3094 26.7192 18.0267 27.2024 18.8132 27.5819C19.1197 27.7293 19.3533 27.9961 19.6165 28.2125C20.5869 29.0087 21.5556 29.806 22.5168 30.6136C22.6599 30.734 22.7352 30.7283 22.8696 30.6063C24.571 29.0596 26.2805 27.5222 27.9803 25.9744C28.1356 25.8327 28.1946 25.8384 28.3061 26.0164C28.806 26.8173 29.3172 27.6115 29.8339 28.4014C29.9235 28.5379 29.9174 28.6371 29.8451 28.7741C28.7857 30.7885 27.7314 32.806 26.6745 34.822C26.6307 34.9055 26.5849 34.9896 26.5279 35.0633C26.2005 35.4858 25.5398 35.5616 25.2068 35.0042C24.4371 33.7143 23.6409 32.4401 22.8553 31.1601C22.8105 31.0875 22.7642 31.0153 22.695 30.9048L22.6945 30.9037Z" fill="#003060"/>
<path d="M22.6466 32.7105C22.9322 33.2571 23.2106 33.7517 23.4484 34.2656C23.5303 34.4431 23.5196 34.6689 23.5375 34.8739C23.7304 37.1011 23.9177 39.3288 24.1127 41.5555C24.324 43.9716 24.5429 46.3872 24.7567 48.8029C24.8148 49.4563 24.8621 50.1109 24.9237 50.7638C24.9405 50.9434 24.8916 51.001 24.7084 51.0005C23.259 50.9937 21.8096 50.9937 20.3603 51.0005C20.1714 51.0015 20.1363 50.9366 20.152 50.7597C20.3419 48.6363 20.5257 46.5123 20.7115 44.3889C20.9146 42.0678 21.1178 39.7461 21.3209 37.425C21.4059 36.4533 21.4899 35.4817 21.5775 34.5105C21.5851 34.4259 21.5938 34.3299 21.637 34.2624C21.9588 33.7569 22.2892 33.2571 22.646 32.711L22.6466 32.7105Z" fill="#003060"/>
</svg>
