<svg width="12" height="12" viewBox="0 0 12 12" fill="none" xmlns="http://www.w3.org/2000/svg">
<circle cx="6" cy="6" r="6" fill="#003060"/>
<path d="M6.44594 5.35168C6.46961 5.52335 6.4802 5.76377 6.47505 6.07806L6.45155 7.10971C6.45155 7.10974 6.45155 7.10977 6.45155 7.1098C6.44091 7.48545 6.44356 7.85626 6.45954 8.22223L6.45952 8.22224L6.45973 8.22586C6.46774 8.36347 6.51336 8.4918 6.6011 8.60063L6.60791 8.60909L6.61544 8.61693C6.61619 8.61771 6.61694 8.61849 6.6177 8.61927C6.58973 8.6339 6.55469 8.64998 6.51128 8.66703C6.42889 8.69657 6.29432 8.72566 6.09693 8.74948C6.05882 8.75161 5.99762 8.74761 5.90766 8.73044L5.90771 8.73018L5.89621 8.72853C5.84426 8.7211 5.78053 8.69645 5.70414 8.63933C5.65151 8.59238 5.59217 8.50567 5.53935 8.35482C5.49097 8.21189 5.46465 7.99627 5.47405 7.69403C5.48014 7.62045 5.47925 7.50222 5.4744 7.3526C5.47436 7.1917 5.47173 7.00206 5.46655 6.78394C5.46652 6.56385 5.4639 6.33651 5.45869 6.10192C5.45867 5.86754 5.45606 5.64994 5.45083 5.44921C5.45081 5.26974 5.44879 5.11884 5.44465 4.99732L5.45028 4.99684C5.55012 4.98818 5.6623 4.98791 5.78749 4.9971C5.90484 5.00571 6.01645 5.02714 6.12285 5.06098L6.12276 5.06124L6.13409 5.06427C6.23205 5.09044 6.30552 5.13084 6.36156 5.18117L6.36149 5.18124L6.36689 5.18582C6.40789 5.2206 6.4361 5.26768 6.44527 5.34645L6.44521 5.34646L6.44594 5.35168ZM5.86607 4.25806C5.74264 4.26089 5.6379 4.22886 5.54333 4.16253C5.43995 4.08625 5.36286 3.99571 5.30843 3.88987C5.25723 3.77536 5.24358 3.68069 5.25259 3.60102C5.2697 3.46963 5.32299 3.4021 5.40815 3.35893C5.54362 3.29026 5.68289 3.25487 5.82832 3.25091L5.82832 3.25092L5.83104 3.25082C6.04615 3.24261 6.17719 3.29612 6.26174 3.37679C6.36584 3.47612 6.40431 3.57309 6.40431 3.67572C6.40431 3.75457 6.38556 3.84144 6.34086 3.93838L6.34072 3.93832L6.33732 3.94642C6.30319 4.02785 6.24812 4.10094 6.16548 4.16614C6.0987 4.21449 6.00379 4.24982 5.86607 4.25806Z" stroke="white" stroke-width="0.5"/>
</svg>
