<svg width="306" height="90" viewBox="0 0 306 90" fill="none" xmlns="http://www.w3.org/2000/svg">
<rect width="306" height="90" fill="black"/>
<g clip-path="url(#clip0_0_1)">
<rect width="360" height="1016" transform="translate(-27 -513)" fill="white"/>
<g filter="url(#filter0_d_0_1)">
<rect x="-32" y="-122" width="370" height="584" rx="56" fill="#003060"/>
</g>
<rect x="0.5" y="0.5" width="305" height="89" rx="9.5" stroke="#CCE5ED"/>
<path d="M261.938 27.186C261.938 27.6713 261.812 28.1287 261.56 28.558C261.317 28.978 260.953 29.328 260.468 29.608C259.992 29.8787 259.427 30.0373 258.774 30.084V31.218H257.878V30.07C256.945 29.986 256.193 29.706 255.624 29.23C255.055 28.7447 254.761 28.0913 254.742 27.27H256.842C256.898 27.942 257.243 28.348 257.878 28.488V25.814C257.206 25.646 256.665 25.478 256.254 25.31C255.843 25.142 255.489 24.8713 255.19 24.498C254.891 24.1247 254.742 23.616 254.742 22.972C254.742 22.16 255.031 21.4973 255.61 20.984C256.198 20.4707 256.954 20.1767 257.878 20.102V18.968H258.774V20.102C259.67 20.1767 260.384 20.4473 260.916 20.914C261.457 21.3807 261.761 22.0247 261.826 22.846H259.712C259.684 22.5753 259.586 22.342 259.418 22.146C259.259 21.9407 259.045 21.796 258.774 21.712V24.358C259.474 24.5353 260.025 24.708 260.426 24.876C260.837 25.0347 261.191 25.3007 261.49 25.674C261.789 26.038 261.938 26.542 261.938 27.186ZM256.786 22.874C256.786 23.182 256.879 23.434 257.066 23.63C257.253 23.8167 257.523 23.9707 257.878 24.092V21.67C257.542 21.7167 257.276 21.8427 257.08 22.048C256.884 22.2533 256.786 22.5287 256.786 22.874ZM258.774 28.516C259.129 28.4507 259.404 28.306 259.6 28.082C259.805 27.858 259.908 27.5873 259.908 27.27C259.908 26.962 259.81 26.7147 259.614 26.528C259.418 26.3413 259.138 26.1873 258.774 26.066V28.516ZM263.398 21.6V19.794H266.772V30H264.756V21.6H263.398ZM268.442 24.764C268.442 23.1493 268.732 21.8847 269.31 20.97C269.898 20.0553 270.869 19.598 272.222 19.598C273.576 19.598 274.542 20.0553 275.12 20.97C275.708 21.8847 276.002 23.1493 276.002 24.764C276.002 26.388 275.708 27.662 275.12 28.586C274.542 29.51 273.576 29.972 272.222 29.972C270.869 29.972 269.898 29.51 269.31 28.586C268.732 27.662 268.442 26.388 268.442 24.764ZM274.07 24.764C274.07 24.0733 274.024 23.4947 273.93 23.028C273.846 22.552 273.669 22.1647 273.398 21.866C273.137 21.5673 272.745 21.418 272.222 21.418C271.7 21.418 271.303 21.5673 271.032 21.866C270.771 22.1647 270.594 22.552 270.5 23.028C270.416 23.4947 270.374 24.0733 270.374 24.764C270.374 25.4733 270.416 26.0707 270.5 26.556C270.584 27.032 270.762 27.4193 271.032 27.718C271.303 28.0073 271.7 28.152 272.222 28.152C272.745 28.152 273.142 28.0073 273.412 27.718C273.683 27.4193 273.86 27.032 273.944 26.556C274.028 26.0707 274.07 25.4733 274.07 24.764ZM278.319 30.098C277.965 30.098 277.671 29.9907 277.437 29.776C277.213 29.552 277.101 29.2767 277.101 28.95C277.101 28.6233 277.213 28.3527 277.437 28.138C277.671 27.914 277.965 27.802 278.319 27.802C278.665 27.802 278.949 27.914 279.173 28.138C279.397 28.3527 279.509 28.6233 279.509 28.95C279.509 29.2767 279.397 29.552 279.173 29.776C278.949 29.9907 278.665 30.098 278.319 30.098ZM280.598 24.764C280.598 23.1493 280.887 21.8847 281.466 20.97C282.054 20.0553 283.025 19.598 284.378 19.598C285.731 19.598 286.697 20.0553 287.276 20.97C287.864 21.8847 288.158 23.1493 288.158 24.764C288.158 26.388 287.864 27.662 287.276 28.586C286.697 29.51 285.731 29.972 284.378 29.972C283.025 29.972 282.054 29.51 281.466 28.586C280.887 27.662 280.598 26.388 280.598 24.764ZM286.226 24.764C286.226 24.0733 286.179 23.4947 286.086 23.028C286.002 22.552 285.825 22.1647 285.554 21.866C285.293 21.5673 284.901 21.418 284.378 21.418C283.855 21.418 283.459 21.5673 283.188 21.866C282.927 22.1647 282.749 22.552 282.656 23.028C282.572 23.4947 282.53 24.0733 282.53 24.764C282.53 25.4733 282.572 26.0707 282.656 26.556C282.74 27.032 282.917 27.4193 283.188 27.718C283.459 28.0073 283.855 28.152 284.378 28.152C284.901 28.152 285.297 28.0073 285.568 27.718C285.839 27.4193 286.016 27.032 286.1 26.556C286.184 26.0707 286.226 25.4733 286.226 24.764ZM289.383 24.764C289.383 23.1493 289.672 21.8847 290.251 20.97C290.839 20.0553 291.809 19.598 293.163 19.598C294.516 19.598 295.482 20.0553 296.061 20.97C296.649 21.8847 296.943 23.1493 296.943 24.764C296.943 26.388 296.649 27.662 296.061 28.586C295.482 29.51 294.516 29.972 293.163 29.972C291.809 29.972 290.839 29.51 290.251 28.586C289.672 27.662 289.383 26.388 289.383 24.764ZM295.011 24.764C295.011 24.0733 294.964 23.4947 294.871 23.028C294.787 22.552 294.609 22.1647 294.339 21.866C294.077 21.5673 293.685 21.418 293.163 21.418C292.64 21.418 292.243 21.5673 291.973 21.866C291.711 22.1647 291.534 22.552 291.441 23.028C291.357 23.4947 291.315 24.0733 291.315 24.764C291.315 25.4733 291.357 26.0707 291.441 26.556C291.525 27.032 291.702 27.4193 291.973 27.718C292.243 28.0073 292.64 28.152 293.163 28.152C293.685 28.152 294.082 28.0073 294.353 27.718C294.623 27.4193 294.801 27.032 294.885 26.556C294.969 26.0707 295.011 25.4733 295.011 24.764Z" fill="white"/>
<path d="M87.448 23.536C86.952 23.376 86.572 23.124 86.308 22.78C86.052 22.436 85.924 22.02 85.924 21.532C85.924 21.1 86.032 20.716 86.248 20.38C86.472 20.036 86.796 19.768 87.22 19.576C87.644 19.376 88.152 19.276 88.744 19.276C89.336 19.276 89.844 19.376 90.268 19.576C90.692 19.768 91.012 20.036 91.228 20.38C91.452 20.716 91.564 21.1 91.564 21.532C91.564 22.012 91.432 22.428 91.168 22.78C90.912 23.132 90.536 23.384 90.04 23.536C90.584 23.672 91.012 23.932 91.324 24.316C91.636 24.7 91.792 25.168 91.792 25.72C91.792 26.232 91.664 26.68 91.408 27.064C91.16 27.44 90.804 27.732 90.34 27.94C89.884 28.148 89.352 28.252 88.744 28.252C88.136 28.252 87.6 28.148 87.136 27.94C86.68 27.732 86.324 27.44 86.068 27.064C85.82 26.68 85.696 26.232 85.696 25.72C85.696 25.168 85.852 24.7 86.164 24.316C86.476 23.932 86.904 23.672 87.448 23.536ZM90.748 21.628C90.748 21.1 90.568 20.692 90.208 20.404C89.848 20.116 89.36 19.972 88.744 19.972C88.128 19.972 87.64 20.116 87.28 20.404C86.92 20.684 86.74 21.092 86.74 21.628C86.74 22.124 86.924 22.52 87.292 22.816C87.66 23.112 88.144 23.26 88.744 23.26C89.344 23.26 89.828 23.112 90.196 22.816C90.564 22.52 90.748 22.124 90.748 21.628ZM88.744 23.908C88.088 23.908 87.552 24.056 87.136 24.352C86.72 24.648 86.512 25.096 86.512 25.696C86.512 26.272 86.712 26.724 87.112 27.052C87.512 27.38 88.056 27.544 88.744 27.544C89.424 27.544 89.964 27.38 90.364 27.052C90.764 26.716 90.964 26.264 90.964 25.696C90.964 25.104 90.756 24.66 90.34 24.364C89.932 24.06 89.4 23.908 88.744 23.908ZM93.3643 28.06C93.1883 28.06 93.0403 28 92.9203 27.88C92.8083 27.76 92.7523 27.612 92.7523 27.436C92.7523 27.26 92.8083 27.116 92.9203 27.004C93.0403 26.884 93.1883 26.824 93.3643 26.824C93.5323 26.824 93.6723 26.884 93.7843 27.004C93.9043 27.116 93.9643 27.26 93.9643 27.436C93.9643 27.612 93.9043 27.76 93.7843 27.88C93.6723 28 93.5323 28.06 93.3643 28.06ZM93.3643 22.84C93.1883 22.84 93.0403 22.78 92.9203 22.66C92.8083 22.54 92.7523 22.392 92.7523 22.216C92.7523 22.04 92.8083 21.896 92.9203 21.784C93.0403 21.664 93.1883 21.604 93.3643 21.604C93.5323 21.604 93.6723 21.664 93.7843 21.784C93.9043 21.896 93.9643 22.04 93.9643 22.216C93.9643 22.392 93.9043 22.54 93.7843 22.66C93.6723 22.78 93.5323 22.84 93.3643 22.84ZM94.6191 20.152V19.396H96.6591V28H95.8071V20.152H94.6191ZM103.727 20.116H99.335V23.188C99.535 22.908 99.827 22.68 100.211 22.504C100.595 22.32 101.011 22.228 101.459 22.228C102.115 22.228 102.651 22.364 103.067 22.636C103.483 22.9 103.783 23.248 103.967 23.68C104.151 24.104 104.243 24.56 104.243 25.048C104.243 25.608 104.135 26.116 103.919 26.572C103.711 27.02 103.387 27.376 102.947 27.64C102.515 27.904 101.975 28.036 101.327 28.036C100.503 28.036 99.835 27.824 99.323 27.4C98.811 26.968 98.499 26.388 98.387 25.66H99.215C99.319 26.188 99.559 26.596 99.935 26.884C100.311 27.172 100.775 27.316 101.327 27.316C102.023 27.316 102.547 27.112 102.899 26.704C103.259 26.288 103.439 25.74 103.439 25.06C103.439 24.396 103.259 23.88 102.899 23.512C102.539 23.136 102.023 22.948 101.351 22.948C100.887 22.948 100.479 23.056 100.127 23.272C99.775 23.488 99.515 23.78 99.347 24.148H98.555V19.384H103.727V20.116ZM106.489 22.888C106.697 22.448 107.025 22.084 107.473 21.796C107.929 21.5 108.469 21.352 109.093 21.352C109.685 21.352 110.217 21.492 110.689 21.772C111.169 22.044 111.541 22.436 111.805 22.948C112.077 23.452 112.213 24.04 112.213 24.712C112.213 25.384 112.077 25.976 111.805 26.488C111.541 27 111.169 27.396 110.689 27.676C110.217 27.956 109.685 28.096 109.093 28.096C108.477 28.096 107.941 27.952 107.485 27.664C107.029 27.368 106.697 27 106.489 26.56V31.096H105.661V21.448H106.489V22.888ZM111.361 24.712C111.361 24.168 111.253 23.7 111.037 23.308C110.829 22.908 110.541 22.604 110.173 22.396C109.805 22.188 109.389 22.084 108.925 22.084C108.477 22.084 108.065 22.192 107.689 22.408C107.321 22.624 107.029 22.932 106.813 23.332C106.597 23.732 106.489 24.196 106.489 24.724C106.489 25.252 106.597 25.716 106.813 26.116C107.029 26.516 107.321 26.824 107.689 27.04C108.065 27.256 108.477 27.364 108.925 27.364C109.389 27.364 109.805 27.26 110.173 27.052C110.541 26.836 110.829 26.528 111.037 26.128C111.253 25.72 111.361 25.248 111.361 24.712ZM121.331 21.328C122.099 21.328 122.723 21.572 123.203 22.06C123.691 22.54 123.935 23.24 123.935 24.16V28H123.107V24.256C123.107 23.544 122.935 23 122.591 22.624C122.247 22.248 121.779 22.06 121.187 22.06C120.571 22.06 120.079 22.264 119.711 22.672C119.343 23.08 119.159 23.672 119.159 24.448V28H118.331V24.256C118.331 23.544 118.159 23 117.815 22.624C117.471 22.248 116.999 22.06 116.399 22.06C115.783 22.06 115.291 22.264 114.923 22.672C114.555 23.08 114.371 23.672 114.371 24.448V28H113.531V21.448H114.371V22.576C114.579 22.168 114.875 21.86 115.259 21.652C115.643 21.436 116.071 21.328 116.543 21.328C117.111 21.328 117.607 21.464 118.031 21.736C118.463 22.008 118.775 22.408 118.967 22.936C119.143 22.416 119.443 22.02 119.867 21.748C120.299 21.468 120.787 21.328 121.331 21.328ZM129.861 25.384C129.485 25.384 129.161 25.252 128.889 24.988C128.617 24.716 128.481 24.388 128.481 24.004C128.481 23.612 128.617 23.284 128.889 23.02C129.161 22.748 129.485 22.612 129.861 22.612C130.253 22.612 130.581 22.748 130.845 23.02C131.117 23.284 131.253 23.612 131.253 24.004C131.253 24.388 131.117 24.716 130.845 24.988C130.581 25.252 130.253 25.384 129.861 25.384ZM135.317 25.96V25.324L139.685 19.444H140.681V25.228H141.965V25.96H140.681V28H139.853V25.96H135.317ZM139.889 20.368L136.289 25.228H139.889V20.368ZM153.865 21.328C154.633 21.328 155.257 21.572 155.737 22.06C156.225 22.54 156.469 23.24 156.469 24.16V28H155.641V24.256C155.641 23.544 155.469 23 155.125 22.624C154.781 22.248 154.313 22.06 153.721 22.06C153.105 22.06 152.613 22.264 152.245 22.672C151.877 23.08 151.693 23.672 151.693 24.448V28H150.865V24.256C150.865 23.544 150.693 23 150.349 22.624C150.005 22.248 149.533 22.06 148.933 22.06C148.317 22.06 147.825 22.264 147.457 22.672C147.089 23.08 146.905 23.672 146.905 24.448V28H146.065V21.448H146.905V22.576C147.113 22.168 147.409 21.86 147.793 21.652C148.177 21.436 148.605 21.328 149.077 21.328C149.645 21.328 150.141 21.464 150.565 21.736C150.997 22.008 151.309 22.408 151.501 22.936C151.677 22.416 151.977 22.02 152.401 21.748C152.833 21.468 153.321 21.328 153.865 21.328ZM158.527 20.212C158.359 20.212 158.215 20.152 158.095 20.032C157.975 19.912 157.915 19.764 157.915 19.588C157.915 19.412 157.975 19.268 158.095 19.156C158.215 19.036 158.359 18.976 158.527 18.976C158.695 18.976 158.839 19.036 158.959 19.156C159.079 19.268 159.139 19.412 159.139 19.588C159.139 19.764 159.079 19.912 158.959 20.032C158.839 20.152 158.695 20.212 158.527 20.212ZM158.947 21.448V28H158.107V21.448H158.947ZM163.693 21.328C164.477 21.328 165.117 21.572 165.613 22.06C166.109 22.54 166.357 23.24 166.357 24.16V28H165.529V24.256C165.529 23.544 165.349 23 164.989 22.624C164.637 22.248 164.153 22.06 163.537 22.06C162.905 22.06 162.401 22.26 162.025 22.66C161.649 23.06 161.461 23.648 161.461 24.424V28H160.621V21.448H161.461V22.564C161.669 22.164 161.969 21.86 162.361 21.652C162.753 21.436 163.197 21.328 163.693 21.328ZM170.668 24.712C170.668 24.04 170.8 23.452 171.064 22.948C171.336 22.436 171.708 22.044 172.18 21.772C172.66 21.492 173.2 21.352 173.8 21.352C174.424 21.352 174.96 21.496 175.408 21.784C175.864 22.072 176.192 22.44 176.392 22.888V21.448H177.232V28H176.392V26.548C176.184 26.996 175.852 27.368 175.396 27.664C174.948 27.952 174.412 28.096 173.788 28.096C173.196 28.096 172.66 27.956 172.18 27.676C171.708 27.396 171.336 27 171.064 26.488C170.8 25.976 170.668 25.384 170.668 24.712ZM176.392 24.724C176.392 24.196 176.284 23.732 176.068 23.332C175.852 22.932 175.556 22.624 175.18 22.408C174.812 22.192 174.404 22.084 173.956 22.084C173.492 22.084 173.076 22.188 172.708 22.396C172.34 22.604 172.048 22.908 171.832 23.308C171.624 23.7 171.52 24.168 171.52 24.712C171.52 25.248 171.624 25.72 171.832 26.128C172.048 26.528 172.34 26.836 172.708 27.052C173.076 27.26 173.492 27.364 173.956 27.364C174.404 27.364 174.812 27.256 175.18 27.04C175.556 26.824 175.852 26.516 176.068 26.116C176.284 25.716 176.392 25.252 176.392 24.724ZM187.561 21.448L185.509 28H184.669L182.857 22.504L181.045 28H180.193L178.141 21.448H178.993L180.625 27.148L182.461 21.448H183.301L185.113 27.16L186.733 21.448H187.561ZM188.095 24.712C188.095 24.04 188.227 23.452 188.491 22.948C188.763 22.436 189.135 22.044 189.607 21.772C190.087 21.492 190.627 21.352 191.227 21.352C191.851 21.352 192.387 21.496 192.835 21.784C193.291 22.072 193.619 22.44 193.819 22.888V21.448H194.659V28H193.819V26.548C193.611 26.996 193.279 27.368 192.823 27.664C192.375 27.952 191.839 28.096 191.215 28.096C190.623 28.096 190.087 27.956 189.607 27.676C189.135 27.396 188.763 27 188.491 26.488C188.227 25.976 188.095 25.384 188.095 24.712ZM193.819 24.724C193.819 24.196 193.711 23.732 193.495 23.332C193.279 22.932 192.983 22.624 192.607 22.408C192.239 22.192 191.831 22.084 191.383 22.084C190.919 22.084 190.503 22.188 190.135 22.396C189.767 22.604 189.475 22.908 189.259 23.308C189.051 23.7 188.947 24.168 188.947 24.712C188.947 25.248 189.051 25.72 189.259 26.128C189.475 26.528 189.767 26.836 190.135 27.052C190.503 27.26 190.919 27.364 191.383 27.364C191.831 27.364 192.239 27.256 192.607 27.04C192.983 26.824 193.279 26.516 193.495 26.116C193.711 25.716 193.819 25.252 193.819 24.724ZM201.748 21.448L197.86 31.084H196.984L198.256 27.964L195.568 21.448H196.492L198.724 27.04L200.884 21.448H201.748Z" fill="white"/>
<path d="M92.63 64.1V71H91.93V65.49L89.47 71H88.96L86.5 65.51V71H85.8V64.1H86.54L89.21 70.08L91.88 64.1H92.63ZM96.418 71.08C95.9046 71.08 95.4413 70.9666 95.028 70.74C94.6213 70.5066 94.298 70.18 94.058 69.76C93.8246 69.3333 93.708 68.8366 93.708 68.27C93.708 67.7033 93.828 67.21 94.068 66.79C94.308 66.3633 94.6346 66.0366 95.048 65.81C95.4613 65.5766 95.9246 65.46 96.438 65.46C96.9513 65.46 97.4146 65.5766 97.828 65.81C98.248 66.0366 98.5746 66.3633 98.808 66.79C99.048 67.21 99.168 67.7033 99.168 68.27C99.168 68.83 99.048 69.3233 98.808 69.75C98.568 70.1766 98.238 70.5066 97.818 70.74C97.398 70.9666 96.9313 71.08 96.418 71.08ZM96.418 70.47C96.778 70.47 97.1113 70.39 97.418 70.23C97.7246 70.0633 97.9713 69.8166 98.158 69.49C98.3513 69.1566 98.448 68.75 98.448 68.27C98.448 67.79 98.3546 67.3866 98.168 67.06C97.9813 66.7266 97.7346 66.48 97.428 66.32C97.1213 66.1533 96.788 66.07 96.428 66.07C96.068 66.07 95.7346 66.1533 95.428 66.32C95.1213 66.48 94.8746 66.7266 94.688 67.06C94.508 67.3866 94.418 67.79 94.418 68.27C94.418 68.75 94.508 69.1566 94.688 69.49C94.8746 69.8166 95.118 70.0633 95.418 70.23C95.7246 70.39 96.058 70.47 96.418 70.47ZM102.134 71.08C101.507 71.08 100.994 70.9366 100.594 70.65C100.201 70.3566 99.9807 69.96 99.934 69.46H100.654C100.687 69.7666 100.831 70.0166 101.084 70.21C101.344 70.3966 101.691 70.49 102.124 70.49C102.504 70.49 102.801 70.4 103.014 70.22C103.234 70.04 103.344 69.8166 103.344 69.55C103.344 69.3633 103.284 69.21 103.164 69.09C103.044 68.97 102.891 68.8766 102.704 68.81C102.524 68.7366 102.277 68.66 101.964 68.58C101.557 68.4733 101.227 68.3666 100.974 68.26C100.721 68.1533 100.504 67.9966 100.324 67.79C100.151 67.5766 100.064 67.2933 100.064 66.94C100.064 66.6733 100.144 66.4266 100.304 66.2C100.464 65.9733 100.691 65.7933 100.984 65.66C101.277 65.5266 101.611 65.46 101.984 65.46C102.571 65.46 103.044 65.61 103.404 65.91C103.764 66.2033 103.957 66.61 103.984 67.13H103.284C103.264 66.81 103.137 66.5533 102.904 66.36C102.677 66.16 102.364 66.06 101.964 66.06C101.611 66.06 101.324 66.1433 101.104 66.31C100.884 66.4766 100.774 66.6833 100.774 66.93C100.774 67.1433 100.837 67.32 100.964 67.46C101.097 67.5933 101.261 67.7 101.454 67.78C101.647 67.8533 101.907 67.9366 102.234 68.03C102.627 68.1366 102.941 68.24 103.174 68.34C103.407 68.44 103.607 68.5866 103.774 68.78C103.941 68.9733 104.027 69.23 104.034 69.55C104.034 69.8433 103.954 70.1066 103.794 70.34C103.634 70.5666 103.411 70.7466 103.124 70.88C102.837 71.0133 102.507 71.08 102.134 71.08ZM106.072 66.13V69.52C106.072 69.8533 106.135 70.0833 106.262 70.21C106.388 70.3366 106.612 70.4 106.932 70.4H107.572V71H106.822C106.328 71 105.962 70.8866 105.722 70.66C105.482 70.4266 105.362 70.0466 105.362 69.52V66.13H104.602V65.54H105.362V64.17H106.072V65.54H107.572V66.13H106.072ZM111.78 66.74C111.954 66.3733 112.227 66.07 112.6 65.83C112.98 65.5833 113.43 65.46 113.95 65.46C114.444 65.46 114.887 65.5766 115.28 65.81C115.68 66.0366 115.99 66.3633 116.21 66.79C116.437 67.21 116.55 67.7 116.55 68.26C116.55 68.82 116.437 69.3133 116.21 69.74C115.99 70.1666 115.68 70.4966 115.28 70.73C114.887 70.9633 114.444 71.08 113.95 71.08C113.437 71.08 112.99 70.96 112.61 70.72C112.23 70.4733 111.954 70.1666 111.78 69.8V73.58H111.09V65.54H111.78V66.74ZM115.84 68.26C115.84 67.8066 115.75 67.4166 115.57 67.09C115.397 66.7566 115.157 66.5033 114.85 66.33C114.544 66.1566 114.197 66.07 113.81 66.07C113.437 66.07 113.094 66.16 112.78 66.34C112.474 66.52 112.23 66.7766 112.05 67.11C111.87 67.4433 111.78 67.83 111.78 68.27C111.78 68.71 111.87 69.0966 112.05 69.43C112.23 69.7633 112.474 70.02 112.78 70.2C113.094 70.38 113.437 70.47 113.81 70.47C114.197 70.47 114.544 70.3833 114.85 70.21C115.157 70.03 115.397 69.7733 115.57 69.44C115.75 69.1 115.84 68.7066 115.84 68.26ZM120.038 71.08C119.525 71.08 119.062 70.9666 118.648 70.74C118.242 70.5066 117.918 70.18 117.678 69.76C117.445 69.3333 117.328 68.8366 117.328 68.27C117.328 67.7033 117.448 67.21 117.688 66.79C117.928 66.3633 118.255 66.0366 118.668 65.81C119.082 65.5766 119.545 65.46 120.058 65.46C120.572 65.46 121.035 65.5766 121.448 65.81C121.868 66.0366 122.195 66.3633 122.428 66.79C122.668 67.21 122.788 67.7033 122.788 68.27C122.788 68.83 122.668 69.3233 122.428 69.75C122.188 70.1766 121.858 70.5066 121.438 70.74C121.018 70.9666 120.552 71.08 120.038 71.08ZM120.038 70.47C120.398 70.47 120.732 70.39 121.038 70.23C121.345 70.0633 121.592 69.8166 121.778 69.49C121.972 69.1566 122.068 68.75 122.068 68.27C122.068 67.79 121.975 67.3866 121.788 67.06C121.602 66.7266 121.355 66.48 121.048 66.32C120.742 66.1533 120.408 66.07 120.048 66.07C119.688 66.07 119.355 66.1533 119.048 66.32C118.742 66.48 118.495 66.7266 118.308 67.06C118.128 67.3866 118.038 67.79 118.038 68.27C118.038 68.75 118.128 69.1566 118.308 69.49C118.495 69.8166 118.738 70.0633 119.038 70.23C119.345 70.39 119.678 70.47 120.038 70.47ZM124.564 66.74C124.738 66.3733 125.011 66.07 125.384 65.83C125.764 65.5833 126.214 65.46 126.734 65.46C127.228 65.46 127.671 65.5766 128.064 65.81C128.464 66.0366 128.774 66.3633 128.994 66.79C129.221 67.21 129.334 67.7 129.334 68.26C129.334 68.82 129.221 69.3133 128.994 69.74C128.774 70.1666 128.464 70.4966 128.064 70.73C127.671 70.9633 127.228 71.08 126.734 71.08C126.221 71.08 125.774 70.96 125.394 70.72C125.014 70.4733 124.738 70.1666 124.564 69.8V73.58H123.874V65.54H124.564V66.74ZM128.624 68.26C128.624 67.8066 128.534 67.4166 128.354 67.09C128.181 66.7566 127.941 66.5033 127.634 66.33C127.328 66.1566 126.981 66.07 126.594 66.07C126.221 66.07 125.878 66.16 125.564 66.34C125.258 66.52 125.014 66.7766 124.834 67.11C124.654 67.4433 124.564 67.83 124.564 68.27C124.564 68.71 124.654 69.0966 124.834 69.43C125.014 69.7633 125.258 70.02 125.564 70.2C125.878 70.38 126.221 70.47 126.594 70.47C126.981 70.47 127.328 70.3833 127.634 70.21C127.941 70.03 128.181 69.7733 128.354 69.44C128.534 69.1 128.624 68.7066 128.624 68.26ZM135.162 65.54V71H134.462V70.04C134.302 70.38 134.056 70.64 133.722 70.82C133.389 71 133.016 71.09 132.602 71.09C131.949 71.09 131.416 70.89 131.002 70.49C130.589 70.0833 130.382 69.4966 130.382 68.73V65.54H131.072V68.65C131.072 69.2433 131.219 69.6966 131.512 70.01C131.812 70.3233 132.219 70.48 132.732 70.48C133.259 70.48 133.679 70.3133 133.992 69.98C134.306 69.6466 134.462 69.1566 134.462 68.51V65.54H135.162ZM137.27 63.6V71H136.57V63.6H137.27ZM138.346 68.26C138.346 67.7 138.456 67.21 138.676 66.79C138.902 66.3633 139.212 66.0366 139.606 65.81C140.006 65.5766 140.456 65.46 140.956 65.46C141.476 65.46 141.922 65.58 142.296 65.82C142.676 66.06 142.949 66.3666 143.116 66.74V65.54H143.816V71H143.116V69.79C142.942 70.1633 142.666 70.4733 142.286 70.72C141.912 70.96 141.466 71.08 140.946 71.08C140.452 71.08 140.006 70.9633 139.606 70.73C139.212 70.4966 138.902 70.1666 138.676 69.74C138.456 69.3133 138.346 68.82 138.346 68.26ZM143.116 68.27C143.116 67.83 143.026 67.4433 142.846 67.11C142.666 66.7766 142.419 66.52 142.106 66.34C141.799 66.16 141.459 66.07 141.086 66.07C140.699 66.07 140.352 66.1566 140.046 66.33C139.739 66.5033 139.496 66.7566 139.316 67.09C139.142 67.4166 139.056 67.8066 139.056 68.26C139.056 68.7066 139.142 69.1 139.316 69.44C139.496 69.7733 139.739 70.03 140.046 70.21C140.352 70.3833 140.699 70.47 141.086 70.47C141.459 70.47 141.799 70.38 142.106 70.2C142.419 70.02 142.666 69.7633 142.846 69.43C143.026 69.0966 143.116 68.71 143.116 68.27ZM145.924 66.51C146.077 66.17 146.31 65.9066 146.624 65.72C146.944 65.5333 147.334 65.44 147.794 65.44V66.17H147.604C147.097 66.17 146.69 66.3066 146.384 66.58C146.077 66.8533 145.924 67.31 145.924 67.95V71H145.224V65.54H145.924V66.51Z" fill="white"/>
<rect x="83" y="38" width="13" height="15" rx="2" fill="#D9D9D9"/>
<rect x="115" y="38" width="13" height="15" rx="2" fill="#D9D9D9"/>
<path d="M93.288 46.87H90.642V49.586H88.794V46.87H86.148V45.162H88.794V42.446H90.642V45.162H93.288V46.87ZM124.323 45.176V46.828H118.387V45.176H124.323Z" fill="#003060"/>
<path d="M103.881 42.6V40.794H107.255V51H105.239V42.6H103.881ZM139.833 43.132C140.421 43.132 140.944 43.2627 141.401 43.524C141.859 43.776 142.213 44.154 142.465 44.658C142.727 45.1527 142.857 45.75 142.857 46.45V51H140.897V46.716C140.897 46.1 140.743 45.6287 140.435 45.302C140.127 44.966 139.707 44.798 139.175 44.798C138.634 44.798 138.205 44.966 137.887 45.302C137.579 45.6287 137.425 46.1 137.425 46.716V51H135.465V40.64H137.425V44.21C137.677 43.874 138.013 43.6127 138.433 43.426C138.853 43.23 139.32 43.132 139.833 43.132ZM146.415 44.448C146.667 44.0373 146.994 43.7153 147.395 43.482C147.806 43.2487 148.273 43.132 148.795 43.132V45.19H148.277C147.661 45.19 147.195 45.3347 146.877 45.624C146.569 45.9133 146.415 46.4173 146.415 47.136V51H144.455V43.244H146.415V44.448ZM152.817 51.126C152.183 51.126 151.613 51.014 151.109 50.79C150.605 50.5567 150.204 50.244 149.905 49.852C149.616 49.46 149.457 49.026 149.429 48.55H151.403C151.441 48.8487 151.585 49.096 151.837 49.292C152.099 49.488 152.421 49.586 152.803 49.586C153.177 49.586 153.466 49.5113 153.671 49.362C153.886 49.2127 153.993 49.0213 153.993 48.788C153.993 48.536 153.863 48.3493 153.601 48.228C153.349 48.0973 152.943 47.9573 152.383 47.808C151.805 47.668 151.329 47.5233 150.955 47.374C150.591 47.2247 150.274 46.996 150.003 46.688C149.742 46.38 149.611 45.9647 149.611 45.442C149.611 45.0127 149.733 44.6207 149.975 44.266C150.227 43.9113 150.582 43.6313 151.039 43.426C151.506 43.2207 152.052 43.118 152.677 43.118C153.601 43.118 154.339 43.3513 154.889 43.818C155.44 44.2753 155.743 44.896 155.799 45.68H153.923C153.895 45.372 153.765 45.1293 153.531 44.952C153.307 44.7653 153.004 44.672 152.621 44.672C152.267 44.672 151.991 44.7373 151.795 44.868C151.609 44.9987 151.515 45.1807 151.515 45.414C151.515 45.6753 151.646 45.876 151.907 46.016C152.169 46.1467 152.575 46.282 153.125 46.422C153.685 46.562 154.147 46.7067 154.511 46.856C154.875 47.0053 155.188 47.2387 155.449 47.556C155.72 47.864 155.86 48.2747 155.869 48.788C155.869 49.236 155.743 49.6373 155.491 49.992C155.249 50.3467 154.894 50.6267 154.427 50.832C153.97 51.028 153.433 51.126 152.817 51.126Z" fill="white"/>
<path d="M39.2206 56.0345C39.1753 56.6127 39.1351 57.1458 39.0908 57.6783C38.9956 58.8223 38.8978 59.9662 38.8011 61.1102C38.6881 62.4431 38.5741 63.7765 38.4626 65.1094C38.3541 66.4081 38.2483 67.7072 38.1408 69.0064C38.0904 69.6173 38.0329 70.2277 37.9912 70.8386C37.9774 71.0384 37.8486 70.9948 37.7392 70.9953C36.5525 70.9974 35.3663 70.9969 34.1796 70.9969C30.8232 70.9969 27.4673 71.0005 24.1109 70.9953C21.8206 70.9917 19.8962 69.6318 19.155 67.5157C18.8363 66.6063 18.8098 65.6788 18.9412 64.7326C19.1453 63.2637 19.3357 61.7933 19.5337 60.3233C19.7537 58.6915 19.9227 57.0503 20.2113 55.4309C20.4985 53.8197 21.4917 52.7542 23.0139 52.2455C26.2099 51.1778 29.4146 50.1366 32.6132 49.0762C32.8143 49.0093 32.9028 49.0435 33.0047 49.234C34.0956 51.2806 35.2406 53.2986 36.2781 55.3727C36.8442 56.5037 38.1475 56.9335 39.2206 56.035V56.0345Z" fill="#CCE5ED"/>
<path d="M43.6983 56.022C43.9655 56.1616 44.2043 56.3101 44.4756 56.3796C45.2326 56.5738 46.0156 56.212 46.4 55.4791C47.2456 53.867 48.0866 52.2527 48.9296 50.639C49.1959 50.1293 49.4703 49.6233 49.7253 49.1073C49.8109 48.934 49.8903 48.8997 50.0766 48.9573C52.9957 49.8532 55.9189 50.7366 58.839 51.6289C60.5908 52.164 61.6313 53.4699 61.8492 55.3255C62.0615 57.1322 62.3094 58.9344 62.539 60.7391C62.7294 62.236 62.9341 63.7308 63.1 65.2303C63.4004 67.9366 61.5555 70.4047 58.9276 70.8355C58.6944 70.8739 58.4551 70.8858 58.2184 70.8858C53.9141 70.8889 49.6093 70.8884 45.3049 70.8884C44.9303 70.8884 44.9404 70.8868 44.9104 70.5157C44.7836 68.9674 44.6497 67.4202 44.5199 65.8724C44.4115 64.5737 44.3066 63.2751 44.1977 61.9765C44.0872 60.6607 43.9727 59.3454 43.8612 58.0297C43.8057 57.3694 43.7538 56.7087 43.6978 56.0215L43.6983 56.022Z" fill="#CCE5ED"/>
<path d="M40.9529 19.9995C43.1624 20.0229 45.2934 20.2492 47.3481 20.9748C48.6727 21.443 49.9083 22.0736 50.8755 23.1459C51.8723 24.2505 52.1691 25.5709 51.9181 27.0149C51.7283 28.108 50.9519 28.6659 49.9821 28.9987C49.9154 29.0215 49.8589 29.0293 49.8177 28.9405C49.7332 28.7578 49.585 28.777 49.4272 28.8284C48.154 29.2442 46.8614 29.5789 45.5429 29.8073C43.675 30.1307 41.797 30.2558 39.9017 30.1665C37.6388 30.0601 35.4487 29.5556 33.2678 28.9846C32.9975 28.914 32.7256 28.8481 32.4436 28.8461C32.3071 28.845 32.1676 28.8377 32.0735 28.966C32.0098 29.0526 31.9355 29.0085 31.8668 28.9883C30.5055 28.5865 29.7739 27.4177 29.8732 25.9804C30.0096 24.0039 31.1418 22.7759 32.7129 21.8504C34.1312 21.0153 35.6839 20.5798 37.285 20.3011C38.5149 20.0872 39.7571 20.0151 40.9529 19.9995ZM41.0996 28.9172C41.9889 28.9161 42.664 28.2268 42.6558 27.3284C42.6472 26.4107 41.9441 25.6462 41.1011 25.6389C40.1802 25.6311 39.4415 26.3796 39.4354 27.3279C39.4298 28.2056 40.1761 28.9182 41.0996 28.9172Z" fill="#CCE5ED"/>
<path d="M50.5918 34.5072C50.7822 35.1363 50.7812 35.7695 50.7048 36.4095C50.6086 37.213 50.4258 37.989 49.9926 38.6809C49.7564 39.0577 49.486 39.3997 49.0019 39.4547C48.8339 39.4739 48.8619 39.6364 48.8339 39.7387C48.4964 40.9672 48.0163 42.132 47.3469 43.2116C46.4224 44.7022 45.2469 45.9428 43.658 46.672C41.1543 47.8217 38.7963 47.4272 36.6459 45.745C34.9231 44.3971 33.8744 42.5607 33.1714 40.4991C33.0741 40.2146 32.9937 39.924 32.9143 39.6338C32.8873 39.5352 32.8644 39.4594 32.7432 39.4475C32.364 39.4096 32.1165 39.1589 31.9088 38.8682C31.3957 38.1504 31.1691 37.323 31.0826 36.4547C31.0103 35.728 31.0612 35.0071 31.2883 34.2934C31.3147 34.3136 31.3397 34.3225 31.3468 34.3396C31.9307 35.7088 32.9637 36.6395 34.2028 37.3625C35.6404 38.2013 37.2033 38.6466 38.836 38.8693C40.5032 39.0966 42.1659 39.0675 43.8194 38.7577C45.7091 38.4032 47.4706 37.7357 48.9744 36.4723C49.595 35.9507 50.1127 35.3387 50.4915 34.611C50.5108 34.5742 50.5175 34.527 50.5923 34.5083L50.5918 34.5072Z" fill="#CCE5ED"/>
<path d="M40.9047 37.9692C38.7019 37.9194 36.522 37.4813 34.5264 36.3166C33.5494 35.7462 32.7003 35.0283 32.208 33.9591C31.8272 33.1323 31.844 32.2914 32.1586 31.4464C32.21 31.3084 32.2762 31.2632 32.4238 31.3084C33.7378 31.7065 35.0751 31.9971 36.4319 32.1975C38.3638 32.483 40.304 32.593 42.2563 32.5048C44.1888 32.4176 46.0964 32.1591 47.979 31.7075C48.4641 31.5912 48.9477 31.4667 49.4248 31.3208C49.6111 31.2637 49.6752 31.3177 49.7414 31.4833C50.2459 32.7539 50.0316 33.9015 49.1733 34.9323C48.3852 35.878 47.3568 36.4708 46.2496 36.9311C44.5609 37.6339 42.7944 37.9433 40.9057 37.9692H40.9047Z" fill="#CCE5ED"/>
<path d="M41.5614 50.9032C41.3863 51.1628 41.2325 51.3885 41.0808 51.6154C40.3213 52.749 39.5633 53.8831 38.8022 55.0156C38.3781 55.6468 37.646 55.6182 37.2876 54.9549C36.1936 52.9301 35.1037 50.9032 34.0076 48.8795C33.9348 48.7451 33.92 48.6433 33.9989 48.5027C34.4276 47.7392 34.8476 46.9705 35.2645 46.2002C35.3368 46.0663 35.3811 46.0274 35.5165 46.1452C36.1763 46.7187 36.8936 47.202 37.6801 47.5814C37.9866 47.7288 38.2203 47.9956 38.4835 48.212C39.4538 49.0082 40.4226 49.8055 41.3837 50.6131C41.5268 50.7335 41.6021 50.7278 41.7365 50.6058C43.4379 49.0591 45.1474 47.5217 46.8473 45.9739C47.0025 45.8322 47.0616 45.8379 47.1731 46.0159C47.673 46.8168 48.1841 47.611 48.7008 48.4009C48.7904 48.5375 48.7843 48.6366 48.712 48.7736C47.6526 50.788 46.5983 52.8055 45.5415 54.8215C45.4977 54.9051 45.4519 54.9891 45.3948 55.0628C45.0675 55.4853 44.4067 55.5611 44.0738 55.0037C43.304 53.7139 42.5078 52.4396 41.7223 51.1597C41.6775 51.087 41.6312 51.0148 41.5619 50.9043L41.5614 50.9032Z" fill="#CCE5ED"/>
<path d="M41.5135 52.71C41.7991 53.2566 42.0776 53.7512 42.3153 54.2651C42.3973 54.4426 42.3866 54.6684 42.4044 54.8734C42.5973 57.1006 42.7847 59.3283 42.9797 61.555C43.1909 63.9711 43.4098 66.3868 43.6237 68.8024C43.6817 69.4559 43.729 70.1104 43.7906 70.7633C43.8074 70.9429 43.7586 71.0005 43.5753 71C42.1259 70.9933 40.6766 70.9933 39.2272 71C39.0383 71.001 39.0032 70.9362 39.019 70.7592C39.2089 68.6358 39.3926 66.5119 39.5785 64.3885C39.7816 62.0673 39.9847 59.7456 40.1878 57.4245C40.2729 56.4528 40.3569 55.4812 40.4444 54.5101C40.4521 54.4255 40.4607 54.3294 40.504 54.262C40.8257 53.7564 41.1561 53.2566 41.513 52.7105L41.5135 52.71Z" fill="#CCE5ED"/>
</g>
<defs>
<filter id="filter0_d_0_1" x="-48" y="-138" width="402" height="616" filterUnits="userSpaceOnUse" color-interpolation-filters="sRGB">
<feFlood flood-opacity="0" result="BackgroundImageFix"/>
<feColorMatrix in="SourceAlpha" type="matrix" values="0 0 0 0 0 0 0 0 0 0 0 0 0 0 0 0 0 0 127 0" result="hardAlpha"/>
<feOffset/>
<feGaussianBlur stdDeviation="8"/>
<feComposite in2="hardAlpha" operator="out"/>
<feColorMatrix type="matrix" values="0 0 0 0 0 0 0 0 0 0 0 0 0 0 0 0 0 0 0.25 0"/>
<feBlend mode="normal" in2="BackgroundImageFix" result="effect1_dropShadow_0_1"/>
<feBlend mode="normal" in="SourceGraphic" in2="effect1_dropShadow_0_1" result="shape"/>
</filter>
<clipPath id="clip0_0_1">
<rect width="360" height="1016" fill="white" transform="translate(-27 -513)"/>
</clipPath>
</defs>
</svg>
