<svg width="28" height="28" viewBox="0 0 28 28" fill="none" xmlns="http://www.w3.org/2000/svg">
<circle cx="14" cy="14" r="14" fill="#003060"/>
<path d="M13.8591 21.505C12.4125 21.5428 10.9235 21.0802 9.69842 20.3143C9.63643 20.2752 9.56791 20.2685 9.49923 20.2768C9.0779 20.3198 8.66103 20.3968 8.24082 20.4463C8.11509 20.4607 7.99159 20.4871 7.86586 20.5021C7.45346 20.5513 7.0444 20.1586 7.09826 19.7511C7.16678 19.2625 7.22542 18.7713 7.30462 18.2846C7.35657 18.1309 7.32916 17.9935 7.23992 17.8569C5.53421 15.2291 5.72002 11.5967 7.64325 9.12795C7.8512 8.9068 8.34057 8.03525 8.6204 8.57955C8.66055 8.68643 8.60908 8.7686 8.54231 8.84273C8.35189 9.05413 8.16433 9.26741 7.99414 9.4958C6.32158 11.692 6.10406 14.823 7.44788 17.2278C7.66078 17.6117 7.94474 17.9087 7.80626 18.3757C7.73121 18.8204 7.67783 19.2663 7.60675 19.7116C7.5717 19.9389 7.69982 20.0379 7.93088 19.9938C8.23269 19.9364 8.53976 19.9052 8.84461 19.8628C9.22227 19.8331 9.63149 19.6664 9.9749 19.9002C12.2672 21.3731 15.3915 21.3876 17.7112 19.9653C20.8125 18.1649 22.0873 14.0318 20.5691 10.8186C18.7246 6.55803 12.9817 5.219 9.34848 8.11097C9.21574 8.21296 9.06164 8.20525 8.96906 8.09428C8.86676 7.97166 8.8862 7.84023 9.03615 7.72344C9.38959 7.44783 9.76566 7.20558 10.1617 6.99309C11.3284 6.36725 12.6565 6.0493 13.9831 6.07196C18.3366 6.00318 22.079 10.0244 21.6977 14.2977C21.5173 18.2567 17.8882 21.6365 13.8591 21.505Z" fill="white"/>
<path d="M14.0893 21.5796C14.0124 21.5796 13.9358 21.5784 13.8588 21.5759C13.1462 21.5944 12.4114 21.4943 11.6752 21.2788C10.9666 21.0715 10.2887 20.7671 9.66005 20.3741C9.61861 20.348 9.57033 20.3395 9.50786 20.3472C9.27425 20.3709 9.03889 20.4057 8.81133 20.4392C8.62744 20.4663 8.43733 20.4945 8.2493 20.5167C8.18603 20.5239 8.12181 20.5345 8.05951 20.5447C7.99927 20.5546 7.93696 20.565 7.87434 20.5724C7.65459 20.5985 7.42082 20.512 7.24904 20.3407C7.07997 20.1721 6.99901 19.9538 7.02706 19.7419C7.04937 19.5833 7.07088 19.4221 7.0916 19.2661C7.1351 18.9403 7.18004 18.6033 7.23374 18.2734L7.2347 18.2677L7.23661 18.2622C7.27916 18.1366 7.26099 18.02 7.17972 17.8955C6.75712 17.2444 6.44224 16.5223 6.24352 15.7491C6.05039 14.998 5.97151 14.2176 6.00912 13.4295C6.04656 12.6431 6.19875 11.8729 6.46152 11.1402C6.73082 10.3889 7.10945 9.69726 7.58655 9.08481L7.59085 9.07977C7.62894 9.03916 7.67913 8.97289 7.73698 8.89608C7.93298 8.63637 8.17647 8.31306 8.42108 8.33368C8.52753 8.34265 8.61613 8.41458 8.68433 8.54743L8.68768 8.55483C8.74249 8.70059 8.66744 8.81045 8.59605 8.88978C8.42442 9.0804 8.22683 9.30328 8.05202 9.53781C7.64471 10.0727 7.31836 10.671 7.08172 11.3165C6.8505 11.947 6.70915 12.6106 6.66151 13.2886C6.61386 13.9662 6.66087 14.6427 6.80142 15.2994C6.94499 15.971 7.1837 16.6082 7.51086 17.1936C7.55085 17.2658 7.59404 17.3359 7.63579 17.4036C7.82048 17.7031 7.99497 17.986 7.87641 18.3916C7.83546 18.6349 7.80024 18.8832 7.7663 19.1232C7.73841 19.3196 7.70973 19.5227 7.67786 19.7226C7.66909 19.7789 7.66782 19.8553 7.71148 19.8967C7.74941 19.9326 7.82255 19.9425 7.91752 19.9244C8.13233 19.8835 8.3524 19.8554 8.56513 19.8282C8.65373 19.8169 8.74536 19.8052 8.83492 19.7928L8.83922 19.7923C8.93148 19.7851 9.02487 19.7695 9.12382 19.753C9.4242 19.7029 9.73478 19.651 10.0151 19.8414C11.1259 20.5549 12.4463 20.9376 13.8337 20.9478C15.2178 20.9582 16.5449 20.5974 17.6737 19.9053L17.6752 19.9044C18.4244 19.4695 19.0797 18.8912 19.6228 18.1857C20.1467 17.5052 20.5442 16.7367 20.8042 15.9012C21.064 15.0668 21.1728 14.2099 21.1279 13.3541C21.0815 12.4688 20.8716 11.6261 20.5045 10.8488L20.5035 10.8468C20.0648 9.83342 19.3992 8.96439 18.5253 8.26395C17.7059 7.60711 16.7171 7.12325 15.666 6.86448C14.5995 6.60193 13.4757 6.57249 12.4165 6.77917C11.2913 6.99874 10.2744 7.46544 9.39377 8.16636C9.22932 8.29275 9.03236 8.28142 8.91396 8.1396C8.85404 8.06783 8.82679 7.98897 8.83524 7.91137C8.8448 7.82354 8.89738 7.74169 8.99188 7.66802C9.33975 7.39666 9.72187 7.14875 10.1276 6.93106C11.3039 6.29987 12.6376 5.97845 13.9833 6.00112C16.0644 5.96854 18.1295 6.87455 19.6488 8.48715C21.1806 10.1133 21.9535 12.2327 21.7694 14.3024C21.7248 15.278 21.4753 16.2339 21.0281 17.1435C20.5972 18.02 20.0059 18.8084 19.2708 19.4871C18.5339 20.1674 17.6976 20.6955 16.7852 21.0569C15.9083 21.4041 15.0025 21.5796 14.0894 21.5796H14.0893ZM13.8593 21.4342H13.8614C14.8328 21.4661 15.7988 21.2947 16.7315 20.9253C17.6275 20.5705 18.4488 20.0517 19.1726 19.3835C19.8948 18.7168 20.4756 17.9424 20.8989 17.0817C21.3377 16.189 21.5825 15.2514 21.626 14.2945V14.2915C21.8073 12.2612 21.0483 10.1808 19.5436 8.58379C18.0519 7.00016 16.0252 6.11052 13.9842 6.14278H13.983H13.9817C12.6605 6.12043 11.3508 6.43571 10.1958 7.05525C9.79725 7.26916 9.42197 7.51266 9.08048 7.77899C9.03714 7.81283 8.98407 7.86572 8.97754 7.92616C8.97324 7.96551 8.98901 8.00691 9.02439 8.04925C9.09259 8.1311 9.20254 8.13331 9.30437 8.05508C10.2022 7.34031 11.2402 6.86401 12.3883 6.64002C13.4681 6.42942 14.6134 6.45948 15.7003 6.72691C16.7716 6.99056 17.7797 7.48402 18.6153 8.15377C19.5072 8.86854 20.1866 9.7555 20.6345 10.7898C21.0093 11.5833 21.2233 12.4435 21.2706 13.3467C21.3164 14.219 21.2055 15.0924 20.9408 15.9427C20.6758 16.7941 20.2705 17.5777 19.7364 18.2715C19.182 18.9915 18.513 19.5819 17.748 20.0261C16.6121 20.7224 15.2791 21.0896 13.8899 21.0896C13.8706 21.0896 13.8513 21.0896 13.8319 21.0895C12.4168 21.0791 11.0695 20.6884 9.93541 19.9596L9.93381 19.9585C9.70116 19.8002 9.43201 19.845 9.14693 19.8926C9.05004 19.9088 8.94997 19.9255 8.85213 19.9334C8.76241 19.9458 8.6711 19.9574 8.58282 19.9686C8.37232 19.9955 8.15448 20.0232 7.94414 20.0634C7.762 20.098 7.66272 20.0473 7.61141 19.9987C7.56296 19.9527 7.51038 19.8636 7.53556 19.7009C7.56727 19.5018 7.59595 19.2993 7.62368 19.1034C7.65794 18.8611 7.69347 18.6105 7.73506 18.364L7.73698 18.3559C7.84008 18.0082 7.68837 17.7621 7.51277 17.4772C7.47022 17.4081 7.42608 17.3367 7.38465 17.2619C7.0508 16.6646 6.80715 16.014 6.66055 15.3288C6.51729 14.6594 6.46933 13.9697 6.51793 13.279C6.56653 12.5878 6.71075 11.9115 6.94643 11.2685C7.18801 10.6097 7.52105 9.99901 7.93649 9.45345C8.11432 9.21467 8.31463 8.98879 8.48832 8.79582C8.55717 8.71947 8.57517 8.668 8.55398 8.60803C8.51016 8.52429 8.46108 8.47943 8.40833 8.47503C8.24372 8.46118 7.99816 8.78653 7.85139 8.98092C7.79195 9.05962 7.74064 9.12778 7.69762 9.1739C7.23055 9.77392 6.8599 10.4515 6.59601 11.1877C6.33802 11.9074 6.18855 12.664 6.15174 13.4364C6.11477 14.2105 6.19221 14.9769 6.38168 15.7145C6.57657 16.4728 6.8854 17.181 7.29955 17.8191C7.40361 17.9786 7.42799 18.1364 7.37381 18.3019C7.32091 18.6282 7.27629 18.9622 7.2331 19.2852C7.21223 19.4413 7.19072 19.6026 7.16857 19.7613C7.14642 19.9289 7.21271 20.1043 7.35039 20.2415C7.49126 20.382 7.68057 20.4534 7.85665 20.4323C7.91609 20.4252 7.97664 20.4152 8.03544 20.4056C8.09935 20.395 8.16548 20.384 8.23209 20.3764C8.41789 20.3546 8.60688 20.3265 8.78966 20.2996C9.01881 20.2658 9.25593 20.2308 9.49129 20.2068C9.58595 20.1953 9.66658 20.2109 9.73638 20.2549C10.3537 20.6409 11.0196 20.9398 11.7155 21.1435C12.4379 21.3549 13.1583 21.4528 13.8568 21.4347H13.8588L13.8593 21.4342Z" fill="white"/>
<path d="M11.6477 13.7915C11.6477 14.0995 11.6504 14.4077 11.647 14.7157C11.6612 15.8802 9.88745 16.0107 9.74356 14.8546C9.7093 14.147 9.71472 13.4364 9.74244 12.7285C9.84682 11.7584 11.2628 11.6272 11.5822 12.51C11.7125 12.9215 11.6228 13.3665 11.6477 13.7915ZM11.1414 13.7915C11.1414 13.4797 11.143 13.1678 11.1409 12.856C11.1357 12.2521 10.2277 12.3037 10.2328 12.8278C10.2285 13.4658 10.2264 14.1038 10.2336 14.7417C10.274 15.3389 11.1293 15.3087 11.1412 14.7162C11.1428 14.408 11.1416 14.0998 11.1416 13.7915H11.1414Z" fill="white"/>
<path d="M10.6776 15.7291C10.232 15.7291 9.74759 15.4667 9.67254 14.8632L9.67206 14.858C9.64067 14.2067 9.64019 13.5092 9.67094 12.7258L9.67126 12.7211C9.72162 12.253 10.0716 11.9132 10.5625 11.8554C10.9727 11.8072 11.468 11.9835 11.6499 12.4863L11.6509 12.489C11.7403 12.771 11.7304 13.0668 11.7209 13.3528C11.7161 13.4967 11.7111 13.6452 11.7194 13.7875V13.7916C11.7194 13.8876 11.7197 13.9838 11.7201 14.0798C11.7207 14.2882 11.7212 14.5037 11.7189 14.7157C11.7223 15.0076 11.6198 15.2599 11.4227 15.4451C11.2479 15.6095 11.0097 15.7094 10.752 15.7266C10.7275 15.7282 10.7024 15.7291 10.6776 15.7291ZM9.81516 14.8486C9.84639 15.0946 9.95969 15.2939 10.1428 15.425C10.3077 15.5431 10.5209 15.6 10.7423 15.5854C11.1483 15.5585 11.5821 15.2752 11.5754 14.7167V14.7151C11.5776 14.5037 11.5771 14.2884 11.5765 14.0801C11.5762 13.9846 11.576 13.8891 11.576 13.7935C11.5676 13.6456 11.5725 13.4943 11.5774 13.3481C11.587 13.0617 11.5959 12.7913 11.5143 12.5326C11.3586 12.1043 10.9327 11.9544 10.5794 11.996C10.2594 12.0336 9.86743 12.2494 9.81404 12.7337C9.78361 13.5108 9.78393 14.2028 9.815 14.8486H9.81516ZM10.683 15.2462C10.4459 15.2462 10.1853 15.0915 10.1619 14.7464V14.7425C10.1543 14.0737 10.1571 13.3991 10.161 12.8274C10.1594 12.6591 10.2435 12.5126 10.3917 12.4262C10.5649 12.3253 10.7961 12.3218 10.9674 12.4175C11.1239 12.5049 11.2109 12.6604 11.2127 12.8554C11.2143 13.0737 11.2138 13.2955 11.2135 13.5099C11.2135 13.6037 11.2132 13.6977 11.2132 13.7915C11.2132 13.8799 11.2132 13.9682 11.2135 14.0567C11.2138 14.273 11.2141 14.4965 11.213 14.7165C11.2098 14.8757 11.1526 15.0104 11.0474 15.1074C10.9537 15.1938 10.8288 15.2429 10.6956 15.246C10.6914 15.246 10.6873 15.246 10.683 15.246V15.2462ZM10.3052 14.7389C10.3235 14.9972 10.5123 15.1091 10.6921 15.1044C10.9461 15.0985 11.0658 14.8983 11.0694 14.7148C11.0705 14.4963 11.0702 14.273 11.0699 14.0568C11.0699 13.9684 11.0697 13.8799 11.0696 13.7915C11.0696 13.6975 11.0696 13.6035 11.0699 13.5096C11.0702 13.2955 11.0705 13.074 11.0691 12.8565C11.0675 12.6744 10.9744 12.5843 10.8967 12.5407C10.7706 12.4704 10.5928 12.4734 10.4644 12.5481C10.36 12.6089 10.3031 12.7081 10.3042 12.8271C10.3004 13.3986 10.2975 14.0716 10.305 14.7387L10.3052 14.7389Z" fill="white"/>
<path d="M14.8405 13.7915C14.8405 14.0995 14.8432 14.4077 14.8399 14.7158C14.8541 15.8802 13.0803 16.0107 12.9364 14.8546C12.9022 14.1471 12.9076 13.4364 12.9353 12.7285C13.0397 11.7585 14.4557 11.6272 14.775 12.5101C14.9054 12.9215 14.8157 13.3665 14.8405 13.7915ZM14.3343 13.7915C14.3343 13.4797 14.3359 13.1679 14.3338 12.856C14.3285 12.2521 13.4205 12.3037 13.4256 12.8279C13.4213 13.4658 13.4193 14.1038 13.4264 14.7417C13.4669 15.3389 14.3222 15.3087 14.3341 14.7162C14.3357 14.408 14.3344 14.0998 14.3344 13.7915H14.3343Z" fill="white"/>
<path d="M13.87 15.7291C13.4244 15.7291 12.94 15.4667 12.8649 14.8632L12.8644 14.858C12.8331 14.2067 12.8326 13.5093 12.8633 12.7259L12.8636 12.7211C12.914 12.253 13.2639 11.9132 13.7549 11.8554C14.1651 11.8073 14.6603 11.9835 14.8423 12.4863L14.8433 12.489C14.9327 12.771 14.9228 13.0668 14.9132 13.3528C14.9085 13.4967 14.9035 13.6453 14.9118 13.7875V13.7916C14.9118 13.8877 14.9121 13.9838 14.9124 14.0798C14.9131 14.2882 14.9136 14.5037 14.9113 14.7158C14.9147 15.0076 14.8122 15.2599 14.6151 15.4452C14.4403 15.6095 14.202 15.7094 13.9444 15.7266C13.9198 15.7282 13.8948 15.7291 13.87 15.7291ZM13.0075 14.8486C13.0388 15.0946 13.1521 15.2939 13.3352 15.425C13.5001 15.5431 13.7132 15.6 13.9347 15.5854C14.3407 15.5585 14.7744 15.2752 14.7678 14.7167V14.7151C14.77 14.5037 14.7695 14.2884 14.7689 14.0802C14.7685 13.9846 14.7684 13.8891 14.7684 13.7935C14.7599 13.6456 14.7649 13.4943 14.7698 13.3481C14.7794 13.0618 14.7883 12.7913 14.7067 12.5326C14.551 12.1043 14.1252 11.9544 13.7718 11.996C13.4518 12.0336 13.0598 12.2494 13.0064 12.7337C12.976 13.511 12.9763 14.2028 13.0075 14.8486ZM13.8754 15.2462C13.6383 15.2462 13.3777 15.0915 13.3543 14.7464V14.7425C13.3466 14.0735 13.3495 13.3991 13.3533 12.8274C13.3517 12.6591 13.4359 12.5126 13.5841 12.4262C13.7573 12.3253 13.9885 12.3218 14.1598 12.4175C14.3163 12.5049 14.4033 12.6604 14.4051 12.8554C14.4067 13.0737 14.4062 13.2955 14.4059 13.5099C14.4059 13.6037 14.4055 13.6977 14.4055 13.7915C14.4055 13.8799 14.4055 13.9682 14.4059 14.0567C14.4062 14.273 14.4065 14.4965 14.4054 14.7165C14.4022 14.8757 14.345 15.0104 14.2398 15.1074C14.1461 15.1938 14.0212 15.2429 13.888 15.246C13.8838 15.246 13.8795 15.246 13.8754 15.246V15.2462ZM13.4976 14.7389C13.5156 14.9925 13.6983 15.1045 13.8749 15.1045C13.8781 15.1045 13.8813 15.1045 13.8846 15.1045C14.1386 15.0987 14.2583 14.8985 14.262 14.715C14.2631 14.4965 14.2628 14.2731 14.2624 14.057C14.2624 13.9686 14.2623 13.8801 14.2621 13.7916C14.2621 13.6977 14.2621 13.6037 14.2624 13.5097C14.2628 13.2957 14.2631 13.0742 14.2616 12.8567C14.2601 12.6745 14.167 12.5845 14.0892 12.5409C13.9632 12.4706 13.7853 12.4735 13.6569 12.5483C13.5525 12.6091 13.4956 12.7082 13.4968 12.8272C13.4929 13.3988 13.4901 14.0717 13.4976 14.7389Z" fill="white"/>
<path d="M18.0603 13.7915C18.0603 14.0995 18.063 14.4077 18.0596 14.7158C18.0738 15.8802 16.3001 16.0107 16.1562 14.8546C16.1219 14.1471 16.1273 13.4364 16.155 12.7285C16.2594 11.7585 17.6754 11.6272 17.9948 12.5101C18.1251 12.9215 18.0354 13.3665 18.0603 13.7915ZM17.554 13.7915C17.554 13.4797 17.5556 13.1679 17.5535 12.856C17.5483 12.2521 16.6403 12.3037 16.6454 12.8279C16.6411 13.4658 16.639 14.1038 16.6462 14.7417C16.6866 15.3389 17.5419 15.3087 17.5538 14.7162C17.5554 14.408 17.5542 14.0998 17.5542 13.7915H17.554Z" fill="white"/>
<path d="M17.09 15.7291C16.6444 15.7291 16.16 15.4667 16.085 14.8632L16.0845 14.858C16.0529 14.2066 16.0526 13.5091 16.0834 12.7259L16.0837 12.7211C16.134 12.253 16.484 11.9132 16.9749 11.8554C17.3851 11.8073 17.8804 11.9835 18.0624 12.4863L18.0633 12.489C18.1527 12.771 18.1428 13.0668 18.1333 13.3528C18.1285 13.4967 18.1235 13.6453 18.1318 13.7875V13.7916C18.1318 13.8875 18.1322 13.9834 18.1325 14.0792C18.1331 14.2878 18.1336 14.5034 18.1314 14.7158C18.1347 15.0076 18.0322 15.2599 17.8351 15.4452C17.6603 15.6095 17.4221 15.7094 17.1646 15.7266C17.1399 15.7282 17.115 15.7291 17.0901 15.7291H17.09ZM16.2276 14.8486C16.2588 15.0946 16.3721 15.2939 16.5552 15.425C16.7201 15.5431 16.933 15.6002 17.1547 15.5854C17.5607 15.5585 17.9945 15.2752 17.9878 14.7167V14.7151C17.99 14.5034 17.9895 14.2879 17.9889 14.0795C17.9886 13.9841 17.9884 13.8889 17.9884 13.7935C17.98 13.6456 17.9849 13.4943 17.9899 13.3481C17.9994 13.0618 18.0083 12.7913 17.9267 12.5326C17.7711 12.1043 17.3451 11.9544 16.9918 11.996C16.6718 12.0336 16.2798 12.2494 16.2265 12.7337C16.196 13.5108 16.1963 14.2026 16.2276 14.8486ZM17.0954 15.2462C16.8583 15.2462 16.5977 15.0915 16.5743 14.7464V14.7425C16.5667 14.0721 16.5695 13.3983 16.5734 12.8274C16.5718 12.6591 16.6559 12.5126 16.8041 12.4262C16.9773 12.3253 17.2085 12.3218 17.3799 12.4175C17.5363 12.5049 17.6233 12.6604 17.6251 12.8554C17.6267 13.0737 17.6262 13.2953 17.6259 13.5096C17.6259 13.6035 17.6256 13.6975 17.6256 13.7915C17.6256 13.8803 17.6256 13.969 17.6259 14.0578C17.6262 14.2736 17.6265 14.497 17.6254 14.7165C17.6222 14.8757 17.565 15.0104 17.4598 15.1074C17.3661 15.1938 17.2412 15.2429 17.108 15.246C17.1039 15.246 17.0997 15.246 17.0954 15.246V15.2462ZM16.7176 14.7389C16.7361 14.9972 16.9249 15.1091 17.1046 15.1044C17.3585 15.0986 17.4783 14.8983 17.482 14.7147C17.4831 14.4965 17.4828 14.2735 17.4825 14.0578C17.4825 13.969 17.4823 13.8801 17.4822 13.7913C17.4822 13.6974 17.4822 13.6032 17.4825 13.5093C17.4828 13.2952 17.4831 13.0739 17.4817 12.8564C17.4801 12.6742 17.387 12.584 17.3093 12.5406C17.1832 12.4702 17.0054 12.4732 16.8769 12.548C16.7726 12.6088 16.7157 12.7079 16.7168 12.8269C16.713 13.3977 16.7101 14.0701 16.7176 14.7386V14.7389Z" fill="white"/>
</svg>
