<svg width="49" height="49" viewBox="0 0 49 49" fill="none" xmlns="http://www.w3.org/2000/svg">
<circle cx="24.5" cy="24.5" r="24.5" fill="#003060"/>
<path d="M25.1211 39C23.421 38.9826 21.7328 38.8545 20.062 38.538C18.8893 38.3159 17.7416 38.0097 16.6533 37.5131C16.0409 37.2336 15.4638 36.8979 14.9684 36.4393C14.5501 36.0519 14.2283 35.6035 14.0796 35.0475C14.011 34.7911 13.9951 34.5299 14.0012 34.2661C14.0567 31.8498 14.8171 29.6749 16.3035 27.7529C17.1834 26.615 18.2566 25.6895 19.505 24.9611C19.5666 24.9252 19.6028 24.9318 19.6569 24.9745C20.9343 25.9829 22.3825 26.6082 24.0066 26.8007C26.4337 27.0885 28.6188 26.4849 30.5489 24.9993C30.6289 24.9377 30.6802 24.9269 30.7706 24.9815C33.4195 26.5784 35.1434 28.854 35.9169 31.8234C36.1431 32.6912 36.2423 33.5773 36.2348 34.4734C36.2294 35.1165 35.9743 35.666 35.5539 36.1461C35.1098 36.6536 34.5576 37.0213 33.9614 37.3291C33.0394 37.805 32.057 38.1151 31.0493 38.3529C29.7158 38.6675 28.3616 38.8464 26.994 38.9247C26.3703 38.9604 25.7453 38.9754 25.1209 39H25.1211Z" fill="white"/>
<path d="M25.1142 25.5069C21.0808 25.5047 17.7885 22.2952 17.7742 18.2927C17.7597 14.2456 21.047 10.9984 25.1283 11C29.1947 11.0017 32.4787 14.254 32.4634 18.2927C32.4482 22.3108 29.1396 25.5109 25.1144 25.5069H25.1142Z" fill="white"/>
</svg>
