<svg width="21" height="26" viewBox="0 0 21 26" fill="none" xmlns="http://www.w3.org/2000/svg">
<path d="M10.3267 26C8.74804 25.9838 7.18042 25.8648 5.629 25.571C4.54001 25.3647 3.4743 25.0805 2.46376 24.6193C1.89513 24.3597 1.35925 24.0481 0.899241 23.6222C0.510784 23.2625 0.211984 22.8461 0.0738774 22.3299C0.0102552 22.0917 -0.00457267 21.8491 0.00111711 21.6042C0.05267 19.3605 0.758721 17.341 2.13892 15.5562C2.95601 14.4997 3.95259 13.6402 5.11175 12.9639C5.16899 12.9306 5.20261 12.9367 5.25279 12.9764C6.43902 13.9127 7.78371 14.4934 9.29184 14.6721C11.5455 14.9394 13.5745 14.3788 15.3668 12.9993C15.4411 12.9421 15.4887 12.9321 15.5727 12.9828C18.0324 14.4656 19.6331 16.5788 20.3514 19.336C20.5614 20.1418 20.6535 20.9647 20.6466 21.7967C20.6416 22.3939 20.4047 22.9042 20.0143 23.35C19.6019 23.8212 19.0891 24.1626 18.5355 24.4484C17.6794 24.8903 16.7672 25.1783 15.8315 25.3991C14.5932 25.6912 13.3357 25.8574 12.0659 25.93C11.4867 25.9632 10.9064 25.9772 10.3265 26H10.3267Z" fill="#CCE5ED"/>
<path d="M10.3204 13.4706C6.5751 13.4686 3.51796 10.4884 3.50468 6.77175C3.49123 3.01377 6.54372 -0.00153141 10.3335 5.83513e-07C14.1094 0.00153258 17.1588 3.0216 17.1446 6.77175C17.1305 10.5028 14.0582 13.4744 10.3205 13.4706H10.3204Z" fill="#CCE5ED"/>
</svg>
