<svg width="24" height="28" viewBox="0 0 24 28" fill="none" xmlns="http://www.w3.org/2000/svg">
<path d="M23.9991 14.0162C23.9991 16.8319 23.9991 19.6457 23.9991 22.4614C23.9991 25.6397 21.6201 27.9957 18.4099 27.9977C14.1156 27.9997 9.81928 28.0017 5.52498 27.9977C2.83476 27.9957 0.640433 26.2243 0.102389 23.6344C0.026101 23.2718 9.06216e-07 22.9033 9.22499e-07 22.5307C0.0020077 16.8438 -0.00200702 11.1589 0.0020082 5.47193C0.00200833 2.36691 2.40513 0.00495283 5.55509 0.00297146C9.84939 -0.000991372 14.1457 -0.000991184 18.44 0.00297202C21.608 0.00495366 23.9951 2.37087 23.9991 5.50364C24.0011 8.34116 23.9991 11.1787 23.9991 14.0162ZM5.60729 19.3841C4.85845 19.3841 4.35654 19.822 4.36256 20.47C4.36858 21.104 4.86246 21.538 5.59123 21.538C9.86344 21.538 14.1357 21.538 18.4079 21.538C18.5424 21.538 18.6829 21.534 18.8114 21.5003C19.3474 21.3636 19.6928 20.8643 19.6285 20.3352C19.5623 19.7804 19.1005 19.3881 18.4922 19.3861C16.334 19.3821 14.1738 19.3861 12.0156 19.3861C9.87951 19.3861 7.7434 19.3861 5.60729 19.3861L5.60729 19.3841ZM18.4099 15.0763C19.1326 15.0763 19.6285 14.6344 19.6285 14.0003C19.6285 13.3643 19.1366 12.9244 18.4119 12.9244C15.5832 12.9244 8.39587 12.9244 5.56714 12.9244C5.44266 12.9244 5.31618 12.9283 5.19573 12.9581C4.66371 13.0888 4.31037 13.5922 4.36858 14.1172C4.42882 14.6582 4.88454 15.0704 5.46274 15.0743C6.90622 15.0822 8.34769 15.0763 9.79117 15.0763C11.2106 15.0763 16.9905 15.0763 18.4099 15.0763ZM5.57115 6.46269C4.85443 6.46467 4.35654 6.91447 4.36256 7.55053C4.36859 8.17273 4.86045 8.6146 5.55911 8.61659C6.94436 8.61857 17.0527 8.61857 18.438 8.61659C19.1326 8.61659 19.6245 8.16877 19.6285 7.54657C19.6325 6.92042 19.1427 6.46863 18.45 6.46467C17.7574 6.46071 8.34368 6.46467 7.65105 6.46467C6.95842 6.46467 6.26579 6.46467 5.57316 6.46467L5.57115 6.46269Z" fill="#CCE5ED"/>
</svg>
