<svg width="29" height="29" viewBox="0 0 29 29" fill="none" xmlns="http://www.w3.org/2000/svg">
<circle cx="14.5" cy="14.5" r="14.5" fill="white"/>
<path d="M7.0041 17.7143C7.0041 16.6542 7.01094 15.594 7.00003 14.5339C6.99678 14.213 7.23289 13.8864 7.64328 13.8907C8.31272 13.8977 8.98216 13.8918 9.6516 13.8928C10.0418 13.8934 10.2883 14.1438 10.2895 14.537C10.29 14.7148 10.2908 14.8924 10.289 15.0702C10.2885 15.1232 10.3028 15.1479 10.3614 15.151C11.0211 15.1859 11.6256 15.3958 12.1935 15.7297C12.5834 15.9589 12.9829 16.1709 13.4066 16.3331C13.5337 16.3818 13.6653 16.395 13.7975 16.4068C14.3683 16.458 14.9395 16.5057 15.5104 16.5553C16.0351 16.6008 16.5607 16.6391 17.0841 16.6953C17.8143 16.7735 18.3714 17.3669 18.4219 18.1084C18.4286 18.2064 18.4614 18.2454 18.5604 18.247C18.7306 18.2498 18.9008 18.2629 19.0708 18.2735C19.1208 18.2766 19.1597 18.2573 19.1995 18.2305C20.0224 17.6758 20.8456 17.1219 21.669 16.5681C21.916 16.4019 22.1598 16.2305 22.4112 16.0717C22.9529 15.7294 23.6516 15.9478 23.9115 16.5348C24.0858 16.9285 23.9999 17.3897 23.6803 17.695C23.3997 17.9631 23.1083 18.22 22.8206 18.4806C22.0194 19.206 21.2189 19.9322 20.4152 20.6548C20.0275 21.0035 19.5678 21.1945 19.0539 21.2641C18.6305 21.3214 18.2082 21.3877 17.7855 21.4491C17.3626 21.5105 16.9395 21.5701 16.5167 21.6314C16.1031 21.6914 15.6896 21.7526 15.276 21.8128C14.8685 21.8721 14.4615 21.9366 14.0531 21.9882C13.7072 22.0317 13.3815 21.9526 13.0571 21.8248C12.1706 21.4751 11.2775 21.1421 10.387 20.8028C10.295 20.7677 10.2909 20.771 10.2898 20.873C10.2859 21.2073 10.152 21.4134 9.87698 21.5113C9.81107 21.5347 9.74322 21.537 9.6752 21.5371C8.9903 21.5378 8.30523 21.5314 7.6205 21.5399C7.24249 21.5442 6.99743 21.2184 7.0002 20.9136C7.01012 19.8472 7.0041 18.7809 7.0041 17.7145V17.7143ZM7.50138 17.7179C7.50138 18.7625 7.50138 19.8073 7.50138 20.8519C7.50138 21.0218 7.51375 21.0349 7.6794 21.0349C8.32411 21.0351 8.96882 21.0351 9.61353 21.0349C9.77902 21.0349 9.7909 21.0223 9.7909 20.8514C9.7909 19.7225 9.7909 18.5937 9.7909 17.4648C9.7909 17.4242 9.78927 17.3835 9.79334 17.3434C9.80408 17.2361 9.88951 17.1436 9.99267 17.1238C10.1033 17.1027 10.2099 17.1589 10.2625 17.2613C10.2911 17.3172 10.2895 17.3756 10.2895 17.4347C10.2895 18.3328 10.2898 19.2309 10.289 20.129C10.289 20.1884 10.2926 20.2327 10.3622 20.2591C11.349 20.6328 12.3352 21.0074 13.3195 21.3874C13.5348 21.4705 13.7509 21.5201 13.9813 21.4925C14.049 21.4843 14.1161 21.472 14.1834 21.4623C14.6034 21.4021 15.0236 21.3423 15.4434 21.2816C15.8756 21.2191 16.3075 21.1556 16.7397 21.0929C17.0737 21.0444 17.408 20.9971 17.742 20.9485C18.1679 20.8864 18.5936 20.8221 19.0196 20.7614C19.409 20.7059 19.7631 20.5654 20.0577 20.301C20.9153 19.5313 21.7686 18.7568 22.6231 17.9834C22.8672 17.7626 23.1169 17.5473 23.35 17.315C23.5859 17.0796 23.5355 16.684 23.26 16.5013C23.0972 16.3932 22.8532 16.3695 22.6079 16.5363C21.554 17.2532 20.494 17.9612 19.4389 18.6764C19.3157 18.7599 19.1943 18.7869 19.0471 18.7776C18.7135 18.7566 18.3804 18.7139 18.0449 18.7357C17.7728 18.7532 17.5007 18.7725 17.2286 18.7899C16.6349 18.8277 16.0411 18.8645 15.4471 18.9022C14.7235 18.948 14.0004 19.0037 13.2754 19.0259C12.9508 19.0359 12.6887 18.899 12.4745 18.6602C12.441 18.6227 12.4168 18.5801 12.4111 18.5279C12.3982 18.4124 12.4498 18.3095 12.5458 18.2639C12.6436 18.2172 12.7599 18.2378 12.8426 18.3272C12.9809 18.4767 13.1453 18.54 13.3496 18.5261C14.0638 18.4775 14.7784 18.4351 15.4929 18.3912C16.2723 18.3434 17.0518 18.2961 17.8314 18.2508C17.9069 18.2464 17.9316 18.2213 17.927 18.1427C17.8995 17.6593 17.511 17.2404 17.0308 17.1936C16.5188 17.1438 16.0063 17.1021 15.4938 17.0579C14.9259 17.0087 14.3579 16.9605 13.7898 16.9122C13.564 16.8928 13.3435 16.855 13.1313 16.7666C12.6812 16.5794 12.2553 16.3446 11.8329 16.1036C11.3843 15.8478 10.9047 15.6971 10.391 15.6521C10.3059 15.6448 10.2846 15.6714 10.2877 15.7535C10.2937 15.9123 10.2893 16.0715 10.289 16.2305C10.2888 16.3253 10.2486 16.4001 10.1697 16.45C10.0903 16.5001 10.0057 16.5037 9.9227 16.4567C9.83044 16.4045 9.79025 16.323 9.79041 16.2169C9.79122 15.668 9.79073 15.1193 9.79041 14.5704C9.79041 14.4203 9.76567 14.3939 9.61987 14.3937C8.97207 14.3934 8.32427 14.3934 7.67647 14.3937C7.52482 14.3937 7.50106 14.4191 7.50089 14.5746C7.50089 15.6223 7.50089 16.6702 7.50089 17.7179H7.50138Z" fill="#003060"/>
<path d="M15.4816 5.99995C16.309 5.99995 17.1365 5.99979 17.9639 5.99995C18.3056 5.99995 18.4801 6.16136 18.5268 6.50089C18.6396 7.3199 19.0675 7.91055 19.812 8.26415C20.1324 8.41639 20.251 8.60629 20.2159 8.95989C20.121 9.91495 19.8797 10.833 19.5056 11.7152C19.0981 12.6765 18.5405 13.5382 17.8038 14.2785C17.1936 14.8919 16.4955 15.3804 15.7185 15.7566C15.58 15.8235 15.452 15.8062 15.3185 15.742C13.7058 14.9674 12.5125 13.7653 11.7111 12.1634C11.366 11.4734 11.1133 10.7507 10.9462 9.99664C10.87 9.65253 10.8095 9.30662 10.7709 8.95646C10.7441 8.71336 10.8594 8.47402 11.0799 8.36614C11.3893 8.21487 11.6752 8.03545 11.9043 7.77222C12.2162 7.41354 12.3915 6.99609 12.4419 6.52446C12.4764 6.20213 12.6567 6.03187 12.981 6.03105C13.8147 6.02909 14.6483 6.0304 15.4819 6.0304C15.4819 6.02025 15.4819 6.0101 15.4819 5.99995H15.4816ZM19.7194 8.94172C19.7305 8.78211 19.7287 8.77867 19.6076 8.72105C18.725 8.30115 18.2017 7.60884 18.0433 6.63774C18.0186 6.48632 18.0531 6.50105 17.8857 6.50203C16.2713 6.51169 14.6569 6.5225 13.0425 6.53084C12.9703 6.53117 12.9394 6.54885 12.9306 6.62547C12.8904 6.9753 12.7893 7.30713 12.6188 7.61604C12.3298 8.13973 11.9149 8.52673 11.3723 8.77425C11.2999 8.80732 11.2594 8.85038 11.2698 8.93878C11.3094 9.27306 11.3683 9.60342 11.4428 9.93181C11.6277 10.7472 11.9157 11.5227 12.3215 12.2526C13.0562 13.5739 14.0929 14.5774 15.4458 15.2465C15.5001 15.2733 15.5454 15.2861 15.6092 15.2538C16.9559 14.5712 17.9818 13.5569 18.7037 12.2286C19.2615 11.202 19.5832 10.1008 19.7194 8.94205V8.94172Z" fill="#003060"/>
<path d="M8.59569 18.8192C9.08517 18.8176 9.47879 19.2077 9.48172 19.697C9.48465 20.1816 9.08647 20.5869 8.60497 20.5897C8.12103 20.5923 7.7261 20.1973 7.7222 19.7068C7.71829 19.2155 8.10671 18.8207 8.59553 18.8192H8.59569ZM8.60172 19.3216C8.38969 19.321 8.2242 19.4842 8.22192 19.6962C8.21964 19.911 8.38904 20.0868 8.59879 20.0873C8.80691 20.0878 8.98298 19.909 8.98135 19.699C8.97972 19.4888 8.81228 19.3223 8.60172 19.3216Z" fill="#003060"/>
<path d="M15.4815 6.94275C16.0949 6.94275 16.7084 6.94275 17.322 6.94275C17.5445 6.94275 17.6818 7.04179 17.7511 7.25641C17.976 7.9533 18.3989 8.49647 19.0114 8.88936C19.1951 9.00723 19.2684 9.15702 19.2262 9.37802C19.1802 9.61965 19.1336 9.86095 19.0767 10.1001C19.0427 10.2429 18.9605 10.3201 18.8425 10.3319C18.7499 10.3413 18.6515 10.2863 18.6041 10.1987C18.5625 10.1214 18.5768 10.0407 18.5936 9.9613C18.631 9.78483 18.6689 9.60819 18.711 9.43286C18.7317 9.34675 18.7143 9.29338 18.6352 9.2392C18.0175 8.81635 17.5804 8.24928 17.322 7.54371C17.2986 7.47986 17.2711 7.4427 17.1914 7.44336C16.0512 7.454 14.9108 7.4612 13.7706 7.46775C13.7125 7.46808 13.6852 7.48625 13.6647 7.54453C13.4099 8.27236 12.9677 8.85842 12.3362 9.29666C12.2583 9.35068 12.2776 9.41043 12.2921 9.47608C12.3349 9.67056 12.381 9.86422 12.4234 10.0589C12.4543 10.2005 12.3797 10.3252 12.2452 10.3629C12.1273 10.3959 11.9846 10.3144 11.947 10.1856C11.8648 9.90449 11.8015 9.6185 11.7603 9.32874C11.7359 9.15653 11.8259 9.03097 11.9683 8.94126C12.1955 8.79801 12.3969 8.62383 12.5775 8.42526C12.8856 8.08639 13.0976 7.69317 13.2367 7.25723C13.3003 7.05832 13.4295 6.9678 13.6408 6.96747C14.2542 6.96632 14.8679 6.96714 15.4813 6.96714C15.4813 6.95896 15.4813 6.95093 15.4813 6.94275H15.4815Z" fill="#003060"/>
<path d="M15.5242 14.7511C15.4401 14.7567 15.3716 14.721 15.3033 14.683C14.0347 13.9758 13.1099 12.9461 12.482 11.6383C12.4309 11.5319 12.3835 11.4236 12.3368 11.3151C12.2711 11.162 12.3186 11.024 12.4563 10.9615C12.5847 10.9031 12.721 10.9599 12.7882 11.111C12.9658 11.5093 13.1646 11.8953 13.4058 12.2589C13.941 13.0654 14.6231 13.7136 15.4596 14.1968C15.5189 14.231 15.561 14.2173 15.6129 14.1862C16.4508 13.6854 17.1285 13.019 17.6533 12.1939C17.8772 11.8418 18.065 11.4706 18.2263 11.0854C18.2777 10.9625 18.3734 10.9018 18.4853 10.9111C18.5927 10.9201 18.6778 10.9959 18.7089 11.1062C18.7273 11.1714 18.7069 11.2303 18.683 11.2876C18.0775 12.7369 17.1321 13.8904 15.7661 14.677C15.6904 14.7205 15.6134 14.7613 15.5242 14.7511Z" fill="#003060"/>
<path d="M15.3831 12.0147C15.3186 12.0211 15.2604 11.9949 15.2111 11.9479C14.8646 11.618 14.5172 11.2888 14.1731 10.9565C14.0683 10.8553 14.0665 10.7024 14.1581 10.6036C14.2559 10.4981 14.402 10.4914 14.5148 10.597C14.7621 10.8282 15.0057 11.0636 15.2509 11.2972C15.3104 11.3539 15.3635 11.347 15.4103 11.2764C15.8737 10.5728 16.337 9.86903 16.8001 9.16526C16.8891 9.03004 16.9934 8.97847 17.1084 9.01318C17.2759 9.0636 17.3393 9.2476 17.2394 9.40574C17.138 9.56601 17.0319 9.72316 16.9276 9.88163C16.4951 10.5386 16.0624 11.1954 15.6303 11.8525C15.572 11.941 15.5072 12.0186 15.3829 12.0147H15.3831Z" fill="#003060"/>
</svg>
