<svg width="28" height="28" viewBox="0 0 28 28" fill="none" xmlns="http://www.w3.org/2000/svg">
<circle cx="14" cy="14" r="14" fill="#003060"/>
<path d="M8.10475 11.1607C8.10475 10.3381 8.10444 9.51559 8.10491 8.69302C8.10507 8.44489 8.19 8.37381 8.43557 8.39567C10.6689 8.59506 12.5781 7.94657 14.076 6.2225C14.2391 6.03475 14.3502 6.03082 14.506 6.2115C15.9643 7.93352 17.9913 8.58499 20.1945 8.39016C20.3912 8.379 20.486 8.45904 20.486 8.65261C20.486 10.2872 20.5112 11.9223 20.4748 13.5561C20.3741 17.1548 17.5376 20.0298 14.4328 21.4675C14.3468 21.5075 14.2645 21.5155 14.1747 21.4727C12.4587 20.6578 10.9478 19.5766 9.78628 18.0486C8.15678 16.0896 7.99772 13.6098 8.10475 11.1607ZM8.54496 11.3516C8.12356 15.8844 10.1784 19.0501 14.2076 21.0022C16.048 20.4018 17.5777 18.9514 18.727 17.3838C20.57 14.9578 19.9522 11.8127 20.0483 8.97104C20.0486 8.86883 20.013 8.84901 19.9191 8.85216C19.5333 8.86489 19.148 8.86505 18.7621 8.83455C17.0494 8.69931 15.5961 8.01796 14.4163 6.76218C14.3215 6.66122 14.2769 6.65226 14.1772 6.75888C12.8069 8.28559 10.7372 9.01113 8.71389 8.85483C8.56564 8.84665 8.54104 8.8921 8.54214 9.02733C8.54825 9.80209 8.54511 10.5768 8.54511 11.3515L8.54496 11.3516Z" fill="white"/>
<path d="M14.295 21.5798C14.243 21.5798 14.1921 21.5678 14.1414 21.5438C12.2502 20.6457 10.8058 19.5186 9.72528 18.0977C8.9671 17.1858 8.47408 16.1084 8.2177 14.8037C7.96383 13.5116 7.98216 12.1773 8.02667 11.159V10.4602C8.02667 9.87112 8.02651 9.28192 8.02683 8.69287C8.02683 8.54254 8.05676 8.44803 8.12352 8.38671C8.20971 8.30761 8.33931 8.30792 8.44274 8.3172C9.56574 8.41753 10.5958 8.29613 11.5044 7.95648C12.4489 7.60346 13.2942 7.00261 14.017 6.17061C14.0861 6.0912 14.1805 6 14.298 6H14.2985C14.3879 6.00016 14.4702 6.04938 14.5653 6.15976C15.9309 7.77218 17.8749 8.51612 20.1879 8.31154H20.1904C20.3161 8.30415 20.4084 8.33025 20.4725 8.39111C20.5345 8.44992 20.5646 8.53546 20.5646 8.6523C20.5646 9.12923 20.5668 9.61418 20.5688 10.0833C20.574 11.222 20.5792 12.3995 20.5535 13.5575C20.529 14.4337 20.3419 15.3017 19.9976 16.1379C19.6773 16.9158 19.221 17.6675 18.6411 18.3719C18.0975 19.0324 17.451 19.6453 16.7198 20.1937C16.0223 20.7167 15.2641 21.1691 14.466 21.5387C14.4072 21.566 14.3505 21.5796 14.295 21.5796V21.5798ZM8.35984 8.47052C8.2959 8.47052 8.25296 8.48121 8.22946 8.50275C8.19874 8.5309 8.1837 8.59317 8.1837 8.69287C8.18338 9.28192 8.18338 9.87097 8.18338 10.46V11.1623V11.164C8.13919 12.1739 8.1207 13.4966 8.37144 14.7732C8.62265 16.0519 9.10517 17.1069 9.84673 17.9982L9.84892 18.0008C10.9139 19.4019 12.3399 20.5143 14.2085 21.4015C14.2709 21.431 14.3282 21.4295 14.4003 21.396C15.1886 21.031 15.9374 20.5841 16.6261 20.0677C17.3475 19.5269 17.9848 18.9226 18.5204 18.2719C19.0903 17.5796 19.5386 16.8414 19.853 16.078C20.1901 15.2595 20.3731 14.4101 20.3969 13.5536C20.4226 12.3981 20.4173 11.2217 20.4123 10.0839C20.4102 9.61465 20.408 9.12954 20.408 8.6523C20.408 8.58201 20.3935 8.53247 20.365 8.50543C20.3344 8.47649 20.2791 8.46391 20.2006 8.46832C19.9454 8.4908 19.6944 8.50213 19.4482 8.50213C17.4126 8.50213 15.6949 7.73601 14.4467 6.26213C14.3861 6.19184 14.3373 6.15725 14.2985 6.15725C14.2571 6.15756 14.2038 6.1953 14.1355 6.27408C13.3953 7.12605 12.5285 7.74168 11.5594 8.10397C10.6289 8.45181 9.57562 8.57619 8.42911 8.47382C8.40388 8.47162 8.38084 8.47036 8.36 8.47036L8.35984 8.47052ZM14.2022 21.0867L14.1739 21.073C9.97758 19.0401 8.05754 15.7678 8.46688 11.3478C8.46688 11.1522 8.46703 10.9566 8.46735 10.7611C8.46797 10.193 8.4686 9.60553 8.4639 9.02796C8.46327 8.95783 8.46735 8.87873 8.52204 8.82637C8.57501 8.77574 8.65101 8.77259 8.7184 8.77637H8.72012C10.7936 8.9366 12.812 8.16279 14.1192 6.70636L14.1203 6.70526C14.1693 6.65289 14.2243 6.6043 14.2953 6.6043H14.2955C14.3693 6.6043 14.426 6.65808 14.4733 6.70856C15.0513 7.32371 15.7073 7.80803 16.423 8.14785C17.1328 8.48483 17.922 8.68972 18.7684 8.75655C19.105 8.78313 19.47 8.78863 19.9168 8.77385C19.9713 8.77212 20.0329 8.77605 20.0771 8.81898C20.1214 8.86222 20.1269 8.92324 20.1267 8.97151V8.97387C20.1053 9.60915 20.1199 10.2735 20.134 10.9162C20.184 13.1834 20.2355 15.528 18.7895 17.4316C18.1616 18.2883 17.4841 19.0236 16.7769 19.6161C15.959 20.3014 15.1027 20.7929 14.232 21.0771L14.2021 21.0868L14.2022 21.0867ZM8.68345 8.93251C8.63989 8.93251 8.63033 8.94006 8.63017 8.94006C8.6286 8.94195 8.61998 8.95547 8.62061 9.02655C8.62516 9.60475 8.62453 10.1927 8.62406 10.7611C8.6239 10.9579 8.62359 11.1546 8.62359 11.3515L8.62327 11.3587C8.52 12.4696 8.56686 13.5202 8.76244 14.4813C8.95441 15.425 9.2951 16.3073 9.77464 17.1039C10.2467 17.8878 10.8657 18.6092 11.6148 19.2481C12.3463 19.8722 13.2206 20.4338 14.2135 20.9175C15.0549 20.6382 15.8834 20.1597 16.6766 19.4952C17.3741 18.9107 18.0429 18.1845 18.6642 17.3371C20.0779 15.4761 20.0268 13.1596 19.9774 10.9195C19.9631 10.2753 19.9486 9.60899 19.97 8.96978C19.97 8.94918 19.9682 8.93817 19.9669 8.93283C19.9609 8.93157 19.9481 8.93 19.9219 8.93078C19.4692 8.94572 19.0987 8.94006 18.7561 8.91301C17.8906 8.84461 17.0831 8.635 16.3559 8.28968C15.6225 7.94138 14.9509 7.44574 14.3594 6.81612C14.3141 6.768 14.2985 6.76187 14.2949 6.76124C14.2945 6.76155 14.2789 6.76532 14.2351 6.81203C13.0117 8.17474 11.1821 8.95421 9.2578 8.95437C9.07539 8.95437 8.89266 8.94745 8.709 8.9333C8.69944 8.93283 8.69097 8.93251 8.68345 8.93251Z" fill="white"/>
<path d="M9.41872 11.8844C9.41872 11.2793 9.41825 10.6742 9.41887 10.0693C9.41919 9.81483 9.46934 9.75524 9.71663 9.74124C11.3687 9.64799 12.836 9.07907 14.1166 8.02661C14.2644 7.90506 14.3335 7.91025 14.5065 8.05051C15.7281 9.04463 17.2537 9.64265 18.8263 9.7208C19.1155 9.73417 19.1714 9.78857 19.1717 10.0719C19.1662 10.6287 19.1839 11.1873 19.1645 11.7433C19.1444 11.8655 19.0664 11.9361 18.9465 11.9322C18.8202 11.9279 18.7387 11.8532 18.7361 11.7196C18.7318 11.5126 18.734 11.3057 18.7337 11.0986C18.7335 10.8492 18.721 10.5989 18.7381 10.3506C18.7495 10.185 18.6864 10.1462 18.538 10.1359C17.045 10.0237 15.5985 9.4497 14.4127 8.5361C14.3389 8.47901 14.2895 8.45024 14.1978 8.52179C12.9541 9.492 11.5441 10.0359 9.97426 10.1624C9.9028 10.1682 9.85547 10.1749 9.85641 10.2666C9.63655 14.7034 10.1095 17.1787 14.2152 19.5214C14.2995 19.5686 14.3522 19.532 14.4163 19.497C15.3882 18.9729 16.2417 18.2886 16.9954 17.4824C17.2641 17.2663 17.538 17.6354 17.2332 17.8692C16.813 18.3381 14.5995 20.3336 14.0533 19.9364C10.9641 18.2844 9.05749 15.4723 9.41872 11.8844Z" fill="white"/>
<path d="M14.2387 20.0672C14.1482 20.0672 14.0727 20.0458 14.0119 20.0034C13.231 19.5854 12.528 19.0945 11.9224 18.5441C11.3023 17.9807 10.7817 17.3525 10.3751 16.677C9.95555 15.9802 9.65435 15.2279 9.47961 14.4409C9.29861 13.6256 9.25175 12.7642 9.34045 11.8804V11.3483C9.34045 10.9218 9.3403 10.4956 9.34061 10.0691C9.34092 9.77017 9.42429 9.67896 9.71233 9.66261C10.5274 9.61654 11.3064 9.45096 12.0278 9.17027C12.751 8.88879 13.4371 8.48357 14.0672 7.96559C14.2443 7.81998 14.3538 7.82533 14.556 7.98918C15.7716 8.97858 17.2897 9.56559 18.8305 9.64201C19.1637 9.65742 19.25 9.74579 19.2503 10.0716C19.2483 10.2858 19.2495 10.5031 19.2508 10.7135C19.2528 11.0519 19.255 11.4019 19.243 11.7458L19.242 11.7559C19.2154 11.9182 19.1014 12.0161 18.9441 12.0105C18.7711 12.0047 18.6614 11.8938 18.6578 11.721C18.6547 11.5686 18.655 11.4142 18.6553 11.2647C18.6553 11.2093 18.6556 11.1538 18.6554 11.0984C18.6554 11.0258 18.6542 10.9517 18.6531 10.88C18.6504 10.7048 18.6476 10.5237 18.66 10.3449C18.6626 10.3073 18.6619 10.2589 18.6438 10.2414C18.6217 10.2202 18.5547 10.2157 18.5327 10.2141C17.7865 10.1579 17.0462 9.98827 16.3319 9.70947C15.6271 9.43444 14.9653 9.06051 14.3651 8.59804C14.2991 8.54694 14.2935 8.54631 14.246 8.58342C13.0003 9.55521 11.5653 10.1127 9.98062 10.2402C9.96997 10.241 9.9474 10.2429 9.93612 10.2458C9.93549 10.2496 9.93471 10.2557 9.93486 10.2653V10.2677V10.2701C9.82752 12.4346 9.88033 14.1777 10.4863 15.6489C11.1022 17.1441 12.2644 18.3174 14.2542 19.4527C14.2921 19.4739 14.3084 19.4667 14.3647 19.4356L14.3791 19.4275C15.3024 18.9297 16.1636 18.257 16.9385 17.4283L16.9423 17.4242L16.9466 17.4207C17.0469 17.3399 17.1631 17.317 17.2651 17.3578C17.3604 17.3959 17.4285 17.4849 17.443 17.5901C17.4599 17.7129 17.403 17.8352 17.287 17.9269C17.0535 18.1858 16.3906 18.7985 15.7379 19.2903C15.0478 19.8101 14.553 20.0671 14.2391 20.0672H14.2387ZM14.2923 8.01906C14.2543 8.01906 14.2199 8.04327 14.1664 8.0873C13.5234 8.61566 12.8229 9.02937 12.0843 9.31682C11.3478 9.60349 10.5526 9.77268 9.72111 9.8197C9.51848 9.83118 9.49748 9.85445 9.49732 10.0693C9.49685 10.4956 9.49701 10.9218 9.49701 11.3483V11.8883L9.4967 11.8922C9.32369 13.6102 9.66438 15.1925 10.5092 16.5957C10.908 17.258 11.4189 17.8744 12.0278 18.4276C12.625 18.9703 13.3189 19.4544 14.0903 19.867L14.0993 19.8727C14.1918 19.9398 14.5273 20.0054 15.6436 19.1646C16.3469 18.6349 16.988 18.0252 17.1751 17.8165L17.18 17.811L17.1858 17.8066C17.2609 17.7491 17.2971 17.6799 17.2877 17.6116C17.2809 17.5624 17.25 17.5212 17.2071 17.5041C17.1595 17.4851 17.1034 17.498 17.0488 17.5404C16.2632 18.3796 15.3902 19.0611 14.4537 19.5661L14.4405 19.5733C14.3784 19.6077 14.2935 19.6548 14.1774 19.5898C13.1481 19.0025 12.3429 18.4059 11.7156 17.7657C11.1041 17.1419 10.6546 16.4691 10.3415 15.7089C9.72456 14.2112 9.67002 12.4492 9.77831 10.2644C9.77784 10.0988 9.90634 10.0884 9.96824 10.0834C11.5219 9.95839 12.9289 9.41196 14.15 8.45919C14.2955 8.3455 14.3951 8.42255 14.4609 8.47335C15.0492 8.92669 15.698 9.29324 16.3889 9.56276C17.0888 9.8359 17.8141 10.0021 18.5442 10.057C18.6158 10.0619 18.697 10.0741 18.7526 10.1277C18.8197 10.1924 18.8212 10.2886 18.8165 10.3556C18.8046 10.5278 18.8073 10.7055 18.81 10.8773C18.8111 10.9497 18.8122 11.0244 18.8123 11.0981C18.8123 11.1536 18.8123 11.2093 18.8122 11.2648C18.8118 11.4134 18.8115 11.5669 18.8147 11.7175C18.8165 11.8057 18.8606 11.8502 18.9494 11.8531C19.0267 11.8554 19.0718 11.8169 19.0867 11.7347C19.0985 11.3956 19.0963 11.0492 19.0942 10.7141C19.093 10.5033 19.0916 10.2852 19.0938 10.0707C19.0938 9.94393 19.0815 9.87977 19.0522 9.85005C19.0223 9.81986 18.956 9.80508 18.8233 9.79894C17.2493 9.72079 15.6989 9.12136 14.4577 8.1112C14.3794 8.04768 14.3341 8.0189 14.2927 8.0189L14.2923 8.01906Z" fill="white"/>
<path d="M18.7467 15.463C18.6833 15.7115 18.5308 15.961 18.4225 16.1971C18.3072 16.4539 17.9 16.2435 18.0403 15.9942C18.1357 15.7824 18.2316 15.5708 18.3291 15.3597C18.3807 15.2482 18.4715 15.2031 18.5885 15.2325C18.6924 15.2586 18.7444 15.3346 18.7467 15.463Z" fill="white"/>
<path d="M18.2479 16.3928C18.1407 16.3928 18.0332 16.3342 17.9754 16.2424C17.9209 16.1557 17.919 16.0526 17.9702 15.959C18.0851 15.7041 18.174 15.509 18.2581 15.3269C18.3261 15.1798 18.4535 15.1177 18.6076 15.1564C18.7047 15.1808 18.8215 15.2536 18.8251 15.4618V15.4725L18.8226 15.4827C18.7759 15.6657 18.685 15.8455 18.5971 16.0192C18.5601 16.0923 18.5252 16.1614 18.4937 16.2303C18.4507 16.326 18.3684 16.3853 18.2681 16.3924C18.2614 16.3928 18.2545 16.393 18.2478 16.393L18.2479 16.3928ZM18.5222 15.3025C18.4678 15.3025 18.4285 15.3321 18.4003 15.3929C18.3159 15.5753 18.2269 15.7708 18.1117 16.0268L18.1086 16.0331C18.0837 16.0774 18.0834 16.1195 18.1078 16.1584C18.1384 16.207 18.2012 16.2392 18.2573 16.2353C18.3 16.2323 18.3316 16.2085 18.3512 16.1648C18.3843 16.0928 18.4216 16.0191 18.4576 15.9478C18.5399 15.7851 18.625 15.617 18.6684 15.4541C18.6638 15.3473 18.6184 15.321 18.5698 15.3088C18.5529 15.3045 18.5371 15.3023 18.5225 15.3023L18.5222 15.3025Z" fill="white"/>
<path d="M19.1673 13.5198C19.127 13.7302 19.208 14.144 18.8871 14.1126C18.7567 14.098 18.6941 14.0102 18.7001 13.8803C18.7097 13.6687 18.7223 13.4572 18.7363 13.2458C18.7386 12.9795 19.1552 12.9725 19.1654 13.2377C19.1759 13.3317 19.1674 13.4278 19.1674 13.5198H19.1673Z" fill="white"/>
<path d="M18.9206 14.1928C18.9072 14.1928 18.8936 14.1921 18.8797 14.1907C18.7124 14.1719 18.6142 14.0516 18.622 13.8767C18.6303 13.6913 18.6415 13.4957 18.6581 13.2427C18.6609 13.0623 18.8055 12.9658 18.9477 12.9637C18.9492 12.9637 18.9508 12.9637 18.9524 12.9637C19.092 12.9637 19.2354 13.0549 19.2437 13.2317C19.2512 13.3015 19.2493 13.3701 19.2475 13.4366C19.2467 13.4655 19.2459 13.4927 19.2459 13.5198V13.5273L19.2445 13.5347C19.236 13.5789 19.2334 13.6368 19.2307 13.6981C19.2236 13.855 19.2156 14.0329 19.1042 14.1297C19.056 14.1717 18.9942 14.1929 18.9207 14.1929L18.9206 14.1928ZM18.9525 13.121C18.9516 13.121 18.9508 13.121 18.9499 13.121C18.888 13.1219 18.8156 13.1553 18.8148 13.2465V13.251C18.798 13.5039 18.7869 13.699 18.7786 13.8838C18.7731 14.0063 18.843 14.0285 18.8961 14.0344C18.9665 14.0413 18.993 14.0184 19.0016 14.0108C19.0621 13.9582 19.0685 13.8162 19.0741 13.691C19.0771 13.6268 19.0798 13.5661 19.0892 13.5127C19.0892 13.4858 19.0901 13.4587 19.0907 13.4323C19.0925 13.3704 19.0942 13.3064 19.0876 13.2466L19.0871 13.2408C19.0838 13.1523 19.0132 13.1211 18.9525 13.1211V13.121Z" fill="white"/>
</svg>
