<svg width="29" height="29" viewBox="0 0 29 29" fill="none" xmlns="http://www.w3.org/2000/svg">
<circle cx="14.5" cy="14.5" r="14.5" fill="white"/>
<path d="M21.6518 9.92092C22.8807 11.2655 23.2901 12.8147 22.7946 14.581C22.5988 15.2789 22.2285 15.8841 21.7377 16.4152C21.6245 16.5377 21.4743 16.5596 21.3489 16.4766C21.2289 16.3973 21.1861 16.2538 21.2409 16.1182C21.2606 16.0693 21.2979 16.0341 21.3319 15.9968C21.9584 15.3061 22.3239 14.4979 22.4022 13.5668C22.4812 12.6275 22.2631 11.7601 21.749 10.9681C21.5769 10.7031 21.3703 10.4687 21.1506 10.2441C21.0639 10.1553 21.045 10.0253 21.0956 9.9222C21.1511 9.8095 21.2645 9.74326 21.3851 9.75531C21.4515 9.76191 21.5102 9.78843 21.5599 9.83329C21.5913 9.86175 21.6213 9.89166 21.652 9.92108L21.6518 9.92092Z" fill="#003060"/>
<path d="M20.4134 11.157C21.2536 12.0258 21.4868 13.2785 21.0106 14.3853C20.8788 14.6918 20.6947 14.9652 20.4692 15.2101C20.3616 15.3268 20.215 15.3489 20.094 15.2743C19.9727 15.1997 19.9238 15.0641 19.9687 14.9287C19.9891 14.8673 20.0354 14.8247 20.0752 14.7775C20.6859 14.0494 20.8309 13.2377 20.5048 12.3448C20.3977 12.0516 20.2206 11.8004 20.0054 11.5758C19.9608 11.5292 19.9102 11.4871 19.8853 11.4242C19.8343 11.2949 19.8736 11.1575 19.9849 11.0772C20.0997 10.9944 20.2434 11.0046 20.3581 11.1043C20.3772 11.121 20.395 11.1393 20.4132 11.1568L20.4134 11.157Z" fill="#003060"/>
<path d="M13.0172 23.9998C12.6248 23.9998 12.2658 23.7712 12.0327 23.3723C10.7903 21.2477 9.50574 19.051 8.22888 16.8557C7.99073 16.4461 7.78594 16.0633 7.60312 15.6853C7.14639 14.7409 6.94737 13.7249 7.01184 12.6657C7.0909 11.3639 7.5486 10.1985 8.37209 9.20232C9.36573 8.00016 10.632 7.28212 12.1356 7.06796C13.921 6.81376 15.5229 7.27086 16.8965 8.42688C18.0972 9.43722 18.8071 10.7637 19.0066 12.3694C19.0278 12.5403 19.0347 12.7109 19.0406 12.8614C19.0432 12.926 19.0456 12.9871 19.049 13.0442L19.0498 13.0585L19.0493 13.073C19.0161 14.1536 18.7622 15.1117 18.2734 16.0022C17.2934 17.7874 16.243 19.568 15.2274 21.2901C14.8261 21.9704 14.4113 22.6738 14.0066 23.3673C13.7722 23.7691 13.4118 23.9996 13.0177 23.9999H13.0172V23.9998ZM13.0717 7.64355C12.7949 7.64355 12.5127 7.66397 12.2259 7.70481C10.8852 7.89566 9.75479 8.53766 8.86603 9.6128C8.13122 10.5018 7.72276 11.542 7.65219 12.7049C7.59382 13.6661 7.7667 14.5491 8.18045 15.4049C8.35605 15.7681 8.55315 16.1366 8.78311 16.5318C10.0595 18.7263 11.344 20.9229 12.5863 23.0472C12.7012 23.244 12.8584 23.3568 13.0173 23.3568H13.0175C13.1779 23.3568 13.3368 23.2422 13.4532 23.0427C13.8585 22.3479 14.2738 21.6439 14.6754 20.963C15.6886 19.2452 16.7364 17.4689 17.7117 15.6924C18.1483 14.8969 18.3762 14.0383 18.408 13.0675C18.4048 13.0091 18.4024 12.9498 18.4 12.8873C18.3942 12.7427 18.3882 12.5932 18.3704 12.4491C18.2816 11.7348 18.0799 11.077 17.7705 10.4944C17.457 9.90365 17.0243 9.37388 16.4845 8.91967C15.8703 8.40276 15.1998 8.03859 14.4918 7.83697C14.0395 7.70819 13.5644 7.64371 13.072 7.64371L13.0717 7.64355ZM13.0051 15.3829C13.0023 15.3829 12.9994 15.3829 12.9965 15.3829C12.3223 15.3806 11.6864 15.1126 11.2061 14.6279C10.7258 14.1431 10.4627 13.504 10.4654 12.8283C10.4681 12.1478 10.7366 11.509 11.2214 11.0296C11.7044 10.5519 12.3451 10.2889 13.0255 10.2889C13.0271 10.2889 13.0287 10.2889 13.0303 10.2889C13.7053 10.2902 14.3421 10.5563 14.8234 11.0384C15.3048 11.5208 15.5702 12.1586 15.5709 12.8345C15.5715 13.5133 15.3077 14.1513 14.8281 14.6311C14.3433 15.1162 13.6962 15.3829 13.0051 15.3829ZM13.0258 10.932C11.9716 10.932 11.1112 11.783 11.107 12.8308C11.1051 13.3346 11.3019 13.8117 11.6614 14.1746C12.021 14.5375 12.4958 14.7382 12.9987 14.7398C13.0008 14.7398 13.0031 14.7398 13.0053 14.7398C13.5252 14.7398 14.0116 14.5396 14.3752 14.1758C14.7333 13.8177 14.9302 13.3415 14.9297 12.835C14.9293 12.3306 14.7306 11.8542 14.3704 11.4933C14.0099 11.1322 13.5337 10.9328 13.0295 10.932H13.026H13.0258Z" fill="#003060"/>
</svg>
