<svg width="18" height="17" viewBox="0 0 18 17" fill="none" xmlns="http://www.w3.org/2000/svg">
<path d="M8.0489 0.927049C8.34825 0.00573802 9.65166 0.00574017 9.95101 0.927051L11.2451 4.90983C11.379 5.32185 11.7629 5.60081 12.1961 5.60081H16.3839C17.3526 5.60081 17.7554 6.84043 16.9717 7.40983L13.5837 9.87132C13.2332 10.126 13.0866 10.5773 13.2204 10.9894L14.5145 14.9721C14.8139 15.8934 13.7594 16.6596 12.9757 16.0902L9.58774 13.6287C9.23725 13.374 8.76265 13.374 8.41217 13.6287L5.02421 16.0902C4.2405 16.6596 3.18602 15.8934 3.48537 14.9721L4.77945 10.9894C4.91333 10.5773 4.76667 10.126 4.41618 9.87132L1.02823 7.40983C0.244512 6.84043 0.64729 5.60081 1.61601 5.60081H5.80376C6.23698 5.60081 6.62094 5.32185 6.75481 4.90983L8.0489 0.927049Z" fill="white"/>
</svg>
