<svg width="45" height="44" viewBox="0 0 45 44" fill="none" xmlns="http://www.w3.org/2000/svg">
<path d="M30.1334 25.5521C29.502 25.0411 28.8706 24.5292 28.2393 24.0192C24.0051 20.5984 19.7701 17.1776 15.5359 13.7559C15.4352 13.6748 15.3317 13.5945 15.2452 13.5C15.0018 13.2334 14.9376 12.9248 15.082 12.5904C15.2203 12.2703 15.4735 12.0839 15.8231 12.0821C17.6022 12.0759 19.3813 12.0741 21.1612 12.0821C21.6383 12.0848 21.9754 12.4602 21.9692 12.9337C21.9629 13.4028 21.6178 13.7577 21.1345 13.7622C20.3194 13.7711 19.5043 13.764 18.6892 13.7666C18.584 13.7666 18.4734 13.7399 18.3691 13.7934C18.3646 13.9102 18.4681 13.937 18.5314 13.9878C23.3586 17.8928 28.1857 21.796 33.0174 25.6957C33.3464 25.9614 33.548 26.2637 33.4454 26.6953C33.3518 27.0904 33.0165 27.316 32.5403 27.316C30.5819 27.3178 28.6236 27.316 26.6653 27.3187C26.5502 27.3187 26.4281 27.2848 26.3166 27.357C26.321 27.4827 26.4191 27.5469 26.4869 27.6254C27.0461 28.271 27.6132 28.9104 28.1679 29.5596C28.2847 29.6961 28.4194 29.7308 28.5835 29.7469C31.4193 30.0332 33.5435 31.4261 34.9516 33.8927C35.5821 34.9967 35.8987 36.2023 35.9183 37.4775C35.929 38.1829 35.9272 38.8883 35.9228 39.5937C35.9192 40.1778 35.5803 40.5202 34.9944 40.5229C33.7816 40.5291 32.5688 40.5318 31.356 40.5193C31.1117 40.5166 30.9993 40.5791 30.9208 40.8261C30.4098 42.433 28.9197 43.5094 27.2547 43.496C25.6103 43.4826 24.1389 42.3875 23.6448 40.7886C23.578 40.571 23.4781 40.5211 23.2694 40.5211C19.5124 40.5264 15.7544 40.5273 11.9974 40.5193C11.7771 40.5193 11.6951 40.5942 11.6309 40.7957C11.1083 42.4321 9.63507 43.5085 7.95765 43.496C6.30341 43.4835 4.8409 42.3857 4.33883 40.761C4.27819 40.5648 4.18723 40.522 4.00263 40.5238C3.22768 40.5318 2.45184 40.5291 1.67689 40.5264C1.01876 40.5238 0.689696 40.1947 0.689696 39.5321C0.687912 37.3857 0.685237 35.2392 0.689696 33.0937C0.694155 31.2147 1.93194 29.8717 3.80288 29.7255C4.03741 29.7068 4.09805 29.5953 4.15424 29.4098C4.57069 28.0231 4.95951 26.6275 5.42055 25.256C6.12862 23.1515 8.28761 21.5882 10.5063 21.5633C12.6832 21.5392 14.8627 21.4884 17.0359 21.5784C19.8316 21.6944 22.2073 22.842 24.0854 24.9172C24.5634 25.4451 25.02 25.6698 25.7271 25.6395C27.0764 25.5824 28.4301 25.6225 29.782 25.6225C29.889 25.6225 29.996 25.6225 30.1022 25.6225C30.1111 25.5976 30.1209 25.5735 30.1298 25.5485L30.1334 25.5521ZM22.1065 31.4082C20.059 31.4082 18.0115 31.4127 15.964 31.4029C15.7063 31.402 15.6207 31.4698 15.6215 31.7364C15.6314 33.9917 15.6314 36.2469 15.6215 38.5022C15.6207 38.7679 15.7018 38.8375 15.9604 38.8357C18.3852 38.8267 20.8108 38.8276 23.2355 38.8357C23.4692 38.8357 23.5771 38.7786 23.6529 38.536C24.319 36.4172 26.5975 35.3186 28.6718 36.1203C29.8168 36.5626 30.5623 37.3991 30.944 38.5628C30.9859 38.6903 30.9948 38.8339 31.1964 38.8321C32.1408 38.825 33.0852 38.8285 34.0286 38.8294C34.1553 38.8294 34.232 38.7991 34.2346 38.6484C34.2543 37.6229 34.2427 36.6027 33.8824 35.62C33.8111 35.4256 33.7174 35.3427 33.4972 35.348C32.7918 35.3632 32.0855 35.3632 31.3801 35.3498C30.2056 35.3284 29.2523 34.5124 29.0356 33.3612C28.9348 32.8288 28.9982 32.2911 28.9892 31.756C28.9857 31.5581 28.9331 31.468 28.7226 31.4644C28.365 31.4582 28.0083 31.4118 27.6516 31.4109C25.8029 31.4047 23.9543 31.4082 22.1056 31.4082H22.1065ZM9.79916 31.4082C8.5266 31.4082 7.25493 31.4127 5.98237 31.4038C5.75408 31.402 5.64706 31.46 5.67471 31.7034C5.68987 31.8309 5.67917 31.9611 5.6756 32.0904C5.64885 33.0446 5.22793 33.7839 4.44317 34.3154C3.91256 34.6738 3.30973 34.7826 2.68103 34.7532C2.45006 34.7425 2.37426 34.8112 2.37693 35.052C2.38942 36.2237 2.38763 37.3964 2.37782 38.569C2.37604 38.7786 2.44203 38.8455 2.64803 38.8401C3.085 38.8276 3.52286 38.8259 3.95983 38.841C4.18634 38.849 4.27998 38.7768 4.34953 38.5503C4.92919 36.6634 6.8242 35.5362 8.76025 35.9437C10.2014 36.2469 11.1547 37.1324 11.6228 38.5227C11.7049 38.767 11.8119 38.8446 12.0589 38.8357C12.5753 38.8178 13.0925 38.8196 13.6088 38.8357C13.8496 38.8428 13.937 38.775 13.9361 38.5209C13.9272 36.2558 13.9281 33.9908 13.9361 31.7257C13.9361 31.4805 13.8656 31.4011 13.616 31.4029C12.3443 31.4145 11.0717 31.4082 9.79916 31.4082ZM25.9902 29.6559C25.9331 29.5846 25.8939 29.5293 25.8493 29.4785C25.1065 28.6251 24.3609 27.7734 23.6199 26.9183C22.976 26.1745 22.3286 25.437 21.5162 24.8645C19.8673 23.7035 18.0338 23.1773 16.0228 23.2442C15.6287 23.2576 15.6269 23.2469 15.6269 23.6268C15.6269 25.5235 15.6269 27.4194 15.6269 29.3162C15.6269 29.5778 15.7559 29.7089 16.0139 29.7094C19.2225 29.7094 22.4302 29.7094 25.6388 29.7086C25.745 29.7086 25.8564 29.7335 25.9902 29.6559ZM9.87229 29.7094C11.1243 29.7094 12.3764 29.7068 13.6284 29.7121C13.8291 29.713 13.9361 29.6827 13.9352 29.4401C13.9272 27.4631 13.9281 25.487 13.9343 23.51C13.9343 23.3004 13.8648 23.2398 13.6588 23.2415C12.6947 23.2505 11.7307 23.2433 10.7667 23.246C9.03313 23.2522 7.50374 24.3322 6.96243 25.9748C6.58788 27.1135 6.27576 28.2737 5.9137 29.4178C5.82809 29.6889 5.91549 29.713 6.14467 29.7121C7.38691 29.705 8.62915 29.7086 9.87139 29.7086L9.87229 29.7094ZM29.4075 39.6766C29.4093 38.4932 28.4765 37.5569 27.2949 37.556C26.1177 37.5551 25.168 38.4986 25.168 39.6695C25.168 40.8412 26.1177 41.7936 27.2877 41.7945C28.4649 41.7954 29.4057 40.8555 29.4075 39.6775V39.6766ZM7.99778 37.5551C6.8251 37.5533 5.86555 38.503 5.86287 39.6677C5.8602 40.827 6.82599 41.7927 7.98886 41.7936C9.16511 41.7936 10.1077 40.8546 10.1122 39.6775C10.1166 38.5022 9.17492 37.5569 7.99778 37.5551ZM3.98658 31.8764C3.98658 31.7774 3.98391 31.6784 3.98658 31.5795C3.99015 31.4493 3.92773 31.4118 3.80288 31.4163C3.11086 31.4377 2.38942 32.1707 2.38585 32.86C2.38585 32.9661 2.38763 33.0509 2.53121 33.066C3.5514 33.1686 4.04187 32.6201 3.98658 31.8764ZM31.9464 33.6626C32.1345 33.6626 32.3236 33.6644 32.5117 33.6608C32.5581 33.6608 32.6232 33.6572 32.6455 33.6287C32.691 33.569 32.6295 33.519 32.592 33.478C32.0953 32.9278 31.5183 32.4801 30.862 32.135C30.7335 32.0672 30.6791 32.1083 30.68 32.2474C30.6818 32.4659 30.672 32.6843 30.6827 32.9019C30.7068 33.3647 31.0002 33.6457 31.4693 33.6608C31.628 33.6662 31.7867 33.6608 31.9455 33.6617L31.9464 33.6626Z" fill="#003060"/>
<path d="M35.2478 0.133464C39.3179 0.120979 42.8974 2.94695 43.8088 6.9224C44.4331 9.64582 43.8615 12.132 42.168 14.3382C40.1481 16.9698 38.0908 19.5728 36.0486 22.1875C35.5367 22.842 34.9803 22.8411 34.4639 22.1794C32.4093 19.5496 30.3466 16.9252 28.3045 14.2865C24.798 9.7555 26.5075 3.15384 31.7744 0.854894C32.8802 0.372454 34.0412 0.139706 35.2478 0.133464ZM35.2487 1.82869C34.365 1.82869 33.5097 1.98653 32.6893 2.31291C28.2171 4.08929 26.7448 9.54594 29.7108 13.3386C31.4845 15.6072 33.2556 17.8794 35.0275 20.1498C35.2621 20.4494 35.2594 20.4494 35.502 20.1382C37.2793 17.8598 39.0646 15.5867 40.833 13.3011C42.0948 11.6701 42.5826 9.81703 42.2607 7.78294C41.7167 4.35057 38.7239 1.82691 35.2496 1.82869H35.2487Z" fill="#003060"/>
<path d="M23.719 12.9293C23.7163 12.4441 24.0811 12.0767 24.56 12.0803C25.0139 12.0839 25.3964 12.4629 25.4018 12.9141C25.4071 13.3716 25.0067 13.7684 24.5448 13.7648C24.082 13.7613 23.7208 13.3956 23.719 12.9284V12.9293Z" fill="#003060"/>
<path d="M18.9078 33.5983C18.9078 34.0781 18.5368 34.4473 18.0597 34.4411C17.6031 34.4357 17.2295 34.0585 17.2277 33.6019C17.2259 33.14 17.6263 32.7432 18.0856 32.7521C18.5448 32.7619 18.9078 33.1337 18.9087 33.5975L18.9078 33.5983Z" fill="#003060"/>
<path d="M28.136 39.6819C28.1306 40.1349 27.749 40.5184 27.2995 40.522C26.8447 40.5255 26.4381 40.1189 26.4434 39.665C26.4497 39.1995 26.8456 38.8223 27.3165 38.8339C27.7775 38.8455 28.1413 39.2218 28.1369 39.681L28.136 39.6819Z" fill="#003060"/>
<path d="M8.829 39.6793C8.82722 40.1448 8.46427 40.5149 8.00411 40.522C7.54752 40.5291 7.14712 40.1296 7.14979 39.6686C7.15247 39.2129 7.52791 38.8375 7.98449 38.8339C8.46694 38.8303 8.83079 39.1942 8.82811 39.6793H8.829Z" fill="#003060"/>
<path d="M39.4881 8.91625C39.4899 11.2455 37.5993 13.1476 35.2709 13.1601C32.9505 13.1726 31.0127 11.2348 31.0189 8.91001C31.0252 6.58521 32.9282 4.69469 35.262 4.69469C37.6011 4.69469 39.4863 6.57807 39.489 8.91625H39.4881ZM37.7964 8.9332C37.8018 7.53047 36.6737 6.39259 35.2709 6.38724C33.8673 6.381 32.7249 7.50817 32.716 8.90734C32.7071 10.294 33.8557 11.4551 35.2459 11.4658C36.6326 11.4756 37.7911 10.3261 37.7964 8.93409V8.9332Z" fill="#003060"/>
</svg>
