<svg width="122" height="151" viewBox="0 0 122 151" fill="none" xmlns="http://www.w3.org/2000/svg">
<mask id="mask0_144_253" style="mask-type:alpha" maskUnits="userSpaceOnUse" x="0" y="0" width="151" height="151">
<g opacity="0.53">
<path d="M1.00007 54.7275C2.28389 56.5278 2.8578 56.7348 4.95488 56.171C9.80728 54.8664 14.6624 53.5618 19.5148 52.2572C19.8901 52.1564 20.2764 52.072 20.6327 51.9195C21.9111 51.3666 22.5067 50.062 22.0824 48.7873C21.688 47.5971 20.4641 46.84 19.1639 47.1804C13.7349 48.5994 8.32219 50.0756 2.90676 51.5436C1.99558 51.7915 1.44614 52.4806 0.997351 53.2622V54.7303L1.00007 54.7275Z" fill="black"/>
<path d="M92.5048 17.6456C92.6299 15.4041 92.4204 13.1217 92.0152 10.8557C91.6589 8.87014 90.8021 7.09162 89.2735 5.78974C86.7276 3.62175 83.8771 1.85413 80.6893 0.860008C76.3537 -0.493625 71.8521 1.52457 69.464 5.63994C66.4966 10.7576 63.5209 15.8753 60.616 21.0283C59.9687 22.1777 59.2397 22.657 57.8634 22.6816C44.1004 22.9131 31.6784 34.4857 30.2015 48.199C29.5297 54.4443 30.6448 60.2619 33.5742 65.7636C33.9877 66.5398 34.0312 67.1526 33.5606 67.9289C32.3176 69.977 31.1344 72.0606 29.973 74.1578C29.614 74.806 29.1461 75.1655 28.4308 75.3643C25.8278 76.0942 23.8123 77.6358 22.3571 79.9209C21.8567 80.7053 21.3045 81.4543 20.8122 82.2414C19.9337 83.6441 18.6852 84.4993 17.094 84.8969C16.3841 85.074 15.6824 85.2864 14.9779 85.4907C8.96681 87.2202 5.90413 91.6188 6.63036 97.8205C6.93228 100.397 6.36653 102.516 4.65297 104.439C2.59396 106.748 1.08438 109.303 1.16325 112.585C1.21494 114.824 1.83238 116.818 3.12708 118.615C3.69826 119.408 4.28848 120.192 4.93311 120.925C6.45357 122.657 6.92413 124.604 6.6467 126.903C6.1163 131.269 7.26685 135.052 10.9796 137.765C12.2688 138.705 13.7267 139.342 15.2635 139.587C18.435 140.088 20.5239 141.861 22.058 144.596C23.3336 146.873 25.2185 148.553 27.7481 149.419C29.9485 150.171 32.1544 150.204 34.3657 149.512C35.2035 149.25 36.044 148.967 36.8409 148.605C38.9788 147.633 41.0677 147.687 43.2165 148.621C44.688 149.261 46.1921 149.855 47.8377 149.964C52.2086 150.253 55.614 148.523 57.8009 144.789C59.4655 141.943 61.6795 140.282 64.9108 139.47C71.0987 137.915 74.0852 133.481 73.3672 127.151C73.0734 124.561 73.6364 122.431 75.3718 120.544C75.8668 120.004 76.2993 119.408 76.7345 118.817C79.5496 114.979 79.6013 110.248 76.8541 106.364C76.2041 105.447 75.4914 104.575 74.7734 103.709C73.5113 102.186 73.0598 100.443 73.3182 98.5041C73.4814 97.2866 73.612 96.0528 73.3944 94.849C73.1768 93.6452 73.5984 93.5471 74.6401 93.7242C80.2242 94.6747 85.2561 96.9843 90.0677 99.8686C92.7414 101.47 92.7768 101.456 91.1937 104.205C87.3423 110.902 83.5099 117.61 79.5904 124.269C77.6837 127.511 77.0364 130.798 78.6058 134.33C81.5406 140.938 90.7313 143.403 96.057 139.023C97.0552 138.201 97.7923 137.177 98.4315 136.068C102.686 128.698 106.956 121.339 111.166 113.947C111.724 112.966 112.159 112.694 113.312 113.13C117.316 114.644 120.92 113.775 123.945 110.79C124.636 110.109 125.09 110.199 125.83 110.545C136.56 115.565 148.566 109.532 150.674 97.8531C151.947 90.7936 149.444 84.946 143.719 80.6018C142.748 79.8664 142.326 79.3571 142.672 78.0335C143.8 73.6811 141.894 69.5167 137.77 67.1118C130.089 62.6287 122.383 58.1892 114.675 53.7498C109.597 50.8246 104.959 47.3493 101.168 42.8417C95.067 35.586 92.6054 27.0584 92.502 17.6538L92.5048 17.6456ZM11.6269 98.564C11.6269 97.4555 11.6188 96.6711 11.6269 95.8894C11.6568 93.3074 12.8346 91.2457 15.3369 90.7119C20.4994 89.6088 24.2747 86.9642 26.8777 82.3204C28.1479 80.0544 30.7074 79.5342 33.2206 80.3894C34.0992 80.689 34.9696 81.0131 35.8318 81.3535C38.5925 82.4403 41.3696 82.492 44.1141 81.359C49.5621 79.112 51.6483 79.4007 54.9667 84.9215C56.4409 87.3727 58.6332 88.9388 61.3994 89.6959C62.5281 90.0064 63.6705 90.2951 64.7694 90.6955C67.1085 91.548 68.338 93.3483 68.3679 95.8513C68.376 96.4859 68.4114 97.1287 68.3434 97.7578C67.9 101.756 69.0996 105.174 71.8358 108.105C72.5974 108.919 73.2801 109.829 73.6065 110.946C74.2702 113.217 73.4515 115.08 71.98 116.73C69.4695 119.541 67.968 122.657 68.3189 126.582C68.8847 132.898 66.638 134.099 61.9025 135.164C58.8453 135.85 56.4844 137.55 54.8416 140.241C54.3329 141.074 53.7753 141.88 53.2123 142.678C52.3882 143.847 51.2702 144.533 49.8586 144.854C48.2674 145.214 46.8258 144.732 45.4632 144.105C41.8102 142.428 38.2689 142.507 34.5643 144.076C30.2804 145.889 28.4172 145.17 25.8196 141.254C25.6292 140.968 25.428 140.69 25.2539 140.396C23.5594 137.544 21.0679 135.82 17.8502 135.088C16.9009 134.872 15.9489 134.614 15.0459 134.251C12.889 133.38 11.7466 131.74 11.6324 129.406C11.6024 128.772 11.5725 128.126 11.6487 127.5C12.1628 123.278 10.8436 119.705 7.94955 116.643C7.21243 115.864 6.65485 114.947 6.35294 113.876C5.66479 111.43 6.80717 109.592 8.30858 107.901C10.7674 105.133 12.16 102.023 11.6242 98.5667L11.6269 98.564ZM87.5245 23.6484C87.9978 23.9753 87.957 24.2885 87.9951 24.5745C88.5554 29.0766 89.8256 33.3744 91.7785 37.4599C95.241 44.7047 100.55 50.3398 107.108 54.8528C107.968 55.4438 108.474 55.9014 107.794 57.0698C101.184 68.4355 94.6154 79.8283 88.0876 91.2402C87.4592 92.3406 86.918 92.4958 85.7946 91.9729C81.5569 90.001 77.0908 88.8271 72.4315 88.3478C71.4877 88.2497 70.4459 88.3777 69.6272 87.6941C68.085 86.4004 66.2518 85.6868 64.3315 85.3109C61.5952 84.7744 59.5797 83.3935 58.2932 80.9178C58.0701 80.4874 57.8253 80.0244 57.4772 79.7057C56.1063 78.4583 56.5034 77.3253 57.3385 75.8954C65.0115 62.7159 72.6083 49.49 80.2269 36.2805C82.6422 32.0944 85.0602 27.9136 87.5218 23.6484H87.5245ZM116.778 108.729C115.798 108.808 114.83 108.396 113.878 107.843C106.904 103.799 99.933 99.7488 92.9291 95.756C91.9363 95.1895 91.7785 94.77 92.366 93.7568C98.9701 82.3831 105.536 70.9875 112.08 59.5783C112.592 58.6877 113.032 58.5624 113.916 59.0799C121.051 63.2361 128.22 67.3324 135.352 71.4941C137.928 72.9975 138.706 75.7429 137.234 78.3167C131.871 87.6968 126.455 97.047 121.045 106.4C120.137 107.969 118.739 108.742 116.775 108.729H116.778ZM87.1573 12.9365C87.2362 13.9306 86.7956 14.843 86.2761 15.7473C78.7744 28.747 71.281 41.7495 63.7875 54.7548C60.053 61.2342 56.3185 67.7164 52.584 74.1959C52.2494 74.776 52.0155 75.4733 51.0744 75.22C48.3137 74.4791 45.7379 75.2581 43.2627 76.3666C41.0079 77.3771 38.8564 77.2954 36.6233 76.323C34.9451 75.5931 34.8961 75.6557 35.7856 74.1087C45.1096 57.9278 54.439 41.7523 63.7684 25.5713C67.065 19.8545 70.3399 14.124 73.6555 8.41802C75.282 5.61815 77.8496 4.74387 80.4608 6.10295C81.9758 6.89008 83.4473 7.77253 84.8889 8.68766C86.3903 9.6382 87.2389 11.0054 87.16 12.9365H87.1573ZM82.8244 130.569C82.7918 129.349 83.0012 128.461 83.4854 127.633C84.3966 126.072 85.2887 124.498 86.189 122.932C89.5781 117.049 92.9699 111.166 96.3589 105.28C96.756 104.591 97.0552 103.87 98.1215 104.507C100.969 106.215 103.852 107.857 106.738 109.499C107.467 109.913 107.497 110.319 107.089 111.022C102.702 118.585 98.3581 126.176 93.9654 133.737C92.7387 135.847 90.6334 136.844 88.5091 136.147C85.9823 135.316 82.9414 133.546 82.8544 131.027C82.8462 130.782 82.8217 130.539 82.8217 130.566L82.8244 130.569ZM37.2598 61.4821C34.3793 56.359 34.0502 47.322 37.8582 40.4531C41.8973 33.162 48.0634 29.0085 56.702 27.7529C50.1115 39.1866 43.7115 50.2908 37.2598 61.4821ZM133.334 107.244C131.843 107.356 130.209 106.912 128.588 106.318C127.53 105.929 127.413 105.414 127.973 104.452C131.71 98.0302 135.42 91.5916 139.1 85.1366C139.682 84.1153 140.21 84.1643 141.05 84.8043C145.277 88.0345 147.045 93.686 145.362 98.7274C143.653 103.842 138.978 107.222 133.334 107.247V107.244Z" fill="black"/>
<path d="M37.4202 21.2707C39.006 21.2843 40.3415 19.7891 39.9552 18.2829C38.5517 12.7894 37.0857 7.30951 35.5734 1.84595C35.1708 0.391546 33.8136 -0.267568 32.4699 0.10012C31.1779 0.451465 30.4218 1.73428 30.8135 3.23772C32.1979 8.58416 33.6368 13.9197 35.0811 19.2498C35.4075 20.4536 36.2507 21.1318 37.423 21.268L37.4202 21.2707Z" fill="black"/>
<path d="M7.8898 23.5749C7.86803 24.6208 8.40931 25.3507 9.25794 25.8437C14.0287 28.6136 18.7968 31.3917 23.6003 34.1098C25.0119 34.9078 26.4181 34.453 27.1199 33.1702C27.7781 31.9664 27.3973 30.6073 26.0156 29.7956C21.2557 27.0039 16.4903 24.2231 11.6787 21.5186C9.84274 20.4863 7.89525 21.6194 7.88709 23.5776L7.8898 23.5749Z" fill="black"/>
<path d="M25.8277 100.852C25.7814 101.634 26.2302 102.252 26.7987 102.821C34.3901 110.42 41.9733 118.024 49.5729 125.615C50.9628 127.004 52.4587 127.099 53.5467 125.95C54.5368 124.904 54.3953 123.343 53.1088 122.05C46.6 115.51 40.0748 108.985 33.5523 102.459C32.3447 101.25 31.1479 100.029 29.8858 98.88C29.1052 98.1691 28.1505 98.0111 27.1659 98.5204C26.2547 98.9889 25.8059 99.7461 25.8277 100.852Z" fill="black"/>
<path d="M19.6318 124.732C19.6155 129.379 23.1378 132.928 27.7617 132.925C32.1925 132.922 35.8917 129.256 35.9352 124.828C35.9787 120.38 32.2007 116.605 27.71 116.611C23.2085 116.616 19.6454 120.198 19.6318 124.735V124.732ZM27.6828 127.832C25.9611 127.802 24.5875 126.465 24.5739 124.806C24.5603 123.09 26.0019 121.698 27.7753 121.723C29.5759 121.747 30.8924 123.117 30.8298 124.909C30.77 126.655 29.4698 127.862 27.6828 127.832Z" fill="black"/>
<path d="M60.3877 100.048C60.3034 95.5544 56.5743 91.8939 52.1843 91.9947C47.7073 92.0982 43.9456 95.982 44.0707 100.37C44.1985 104.831 47.9276 108.448 52.3475 108.399C56.8545 108.35 60.472 104.591 60.385 100.048H60.3877ZM49.1761 100.179C49.1924 98.4578 50.5197 97.1232 52.2387 97.1014C53.9822 97.0797 55.4401 98.5177 55.4238 100.247C55.4075 101.914 53.8408 103.412 52.1653 103.363C50.5061 103.314 49.1597 101.881 49.1761 100.179Z" fill="black"/>
</g>
</mask>
<g mask="url(#mask0_144_253)">
<rect opacity="0.53" x="-223" y="8.99939" width="330" height="135" rx="19" fill="black"/>
</g>
</svg>
