<svg width="20" height="20" viewBox="0 0 20 20" fill="none" xmlns="http://www.w3.org/2000/svg">
<path d="M10.7486 0.751496C10.2799 0.282867 9.52015 0.282867 9.05152 0.751496L0.651521 9.1515C0.182892 9.62012 0.182892 10.3799 0.651521 10.8486C1.12015 11.3172 1.87995 11.3172 2.34858 10.8486L2.70005 10.4971V18.4C2.70005 19.0628 3.23731 19.6 3.90005 19.6H6.30005C6.96279 19.6 7.50005 19.0628 7.50005 18.4V16C7.50005 15.3373 8.03731 14.8 8.70005 14.8H11.1C11.7628 14.8 12.3 15.3373 12.3 16V18.4C12.3 19.0628 12.8373 19.6 13.5 19.6H15.9C16.5628 19.6 17.1 19.0628 17.1 18.4V10.4971L17.4515 10.8486C17.9201 11.3172 18.6799 11.3172 19.1486 10.8486C19.6172 10.3799 19.6172 9.62012 19.1486 9.1515L10.7486 0.751496Z" fill="#3433F2"/>
</svg>
