<svg width="21" height="20" viewBox="0 0 21 20" fill="none" xmlns="http://www.w3.org/2000/svg">
<path d="M10.7001 8.9C10.0901 8.9 9.60007 9.39 9.60007 10C9.60007 10.61 10.0901 11.1 10.7001 11.1C11.3101 11.1 11.8001 10.61 11.8001 10C11.8001 9.39 11.3101 8.9 10.7001 8.9ZM10.7001 0C5.18007 0 0.700073 4.48 0.700073 10C0.700073 15.52 5.18007 20 10.7001 20C16.2201 20 20.7001 15.52 20.7001 10C20.7001 4.48 16.2201 0 10.7001 0ZM12.8901 12.19L4.70007 16L8.51007 7.81L16.7001 4L12.8901 12.19Z" fill="#A0A0A0"/>
</svg>
