<svg width="23" height="23" viewBox="0 0 23 23" fill="none" xmlns="http://www.w3.org/2000/svg">
<path d="M19.6663 17.4011C19.6076 16.8105 19.2932 16.2782 18.8269 15.9107C18.1879 15.4093 17.124 14.379 16.9582 12.9573C16.7164 10.9036 17.2933 3.55097 11.2416 2.69242H11.2243C11.1829 2.42799 11.2623 2.17042 11.2796 2.11204C11.2796 2.11204 11.2796 2.10861 11.2796 2.10517V2.10174C11.3383 1.93689 11.3729 1.75832 11.3729 1.57287C11.3729 0.704013 10.6648 0 9.79086 0C8.91696 0 8.20886 0.704013 8.20886 1.57287C8.20886 1.76862 8.2434 1.95407 8.30903 2.12921C8.33321 2.2082 8.40229 2.45546 8.36084 2.70616C2.38862 3.60935 2.95856 10.9105 2.71677 12.9573C2.55097 14.379 1.48709 15.4093 0.848071 15.9107C0.381761 16.2782 0.0674335 16.8105 0.00871293 17.4011C-0.139815 18.95 1.6598 18.7817 1.6598 18.7817H18.0152C18.0152 18.7817 19.8148 18.9465 19.6663 17.4011Z" fill="white"/>
<path d="M9.83935 22.0098C11.1796 22.0098 12.2918 21.038 12.499 19.7639H7.18311C7.39035 21.038 8.50259 22.0098 9.8428 22.0098H9.83935Z" fill="white"/>
<path d="M18.973 12.1478C21.05 11.2996 22.0421 8.93806 21.189 6.87309C20.3359 4.80813 17.9607 3.82171 15.8837 4.66988C13.8068 5.51805 12.8146 7.87961 13.6677 9.94458C14.5208 12.0095 16.8961 12.996 18.973 12.1478Z" fill="#E30613" stroke="#CECECE" stroke-width="3" stroke-miterlimit="10"/>
</svg>
