<svg width="20" height="20" viewBox="0 0 20 20" fill="none" xmlns="http://www.w3.org/2000/svg">
<path fill-rule="evenodd" clip-rule="evenodd" d="M19.7001 10C19.7001 15.302 15.402 19.6 10.1001 19.6C4.79813 19.6 0.500061 15.302 0.500061 10C0.500061 4.69809 4.79813 0.400024 10.1001 0.400024C15.402 0.400024 19.7001 4.69809 19.7001 10ZM12.5001 6.40002C12.5001 7.72551 11.4255 8.80002 10.1001 8.80002C8.77458 8.80002 7.70006 7.72551 7.70006 6.40002C7.70006 5.07454 8.77458 4.00002 10.1001 4.00002C11.4255 4.00002 12.5001 5.07454 12.5001 6.40002ZM10.1 11.2C7.67893 11.2 5.59279 12.634 4.64454 14.6989C5.9649 16.2305 7.91924 17.2 10.1 17.2C12.2808 17.2 14.2351 16.2305 15.5555 14.699C14.6072 12.634 12.5211 11.2 10.1 11.2Z" fill="#A0A0A0"/>
</svg>
